<mxfile host="app.diagrams.net" modified="2021-03-05T23:29:48.117Z" agent="5.0 (Windows NT 10.0; Win64; x64) AppleWebKit/537.36 (KHTML, like Gecko) Chrome/85.0.4183.102 Safari/537.36" etag="58C7dwn8DqDHTBLppZpl" version="14.4.3" type="github">
  <diagram id="kgpKYQtTHZ0yAKxKKP6v" name="Page-1">
    <mxGraphModel dx="1483" dy="713" grid="1" gridSize="10" guides="1" tooltips="1" connect="1" arrows="1" fold="1" page="1" pageScale="1" pageWidth="850" pageHeight="1100" math="0" shadow="0">
      <root>
        <mxCell id="0" />
        <mxCell id="1" parent="0" />
        <mxCell id="JggLTyKNFOGJQd1DEr2l-16" style="edgeStyle=orthogonalEdgeStyle;rounded=0;orthogonalLoop=1;jettySize=auto;html=1;exitX=1;exitY=0.5;exitDx=0;exitDy=0;entryX=0;entryY=0.5;entryDx=0;entryDy=0;" edge="1" parent="1" source="JggLTyKNFOGJQd1DEr2l-1" target="JggLTyKNFOGJQd1DEr2l-4">
          <mxGeometry relative="1" as="geometry" />
        </mxCell>
        <mxCell id="JggLTyKNFOGJQd1DEr2l-1" value="User" style="whiteSpace=wrap;html=1;aspect=fixed;" vertex="1" parent="1">
          <mxGeometry x="80" y="40" width="80" height="80" as="geometry" />
        </mxCell>
        <mxCell id="JggLTyKNFOGJQd1DEr2l-30" value="Eletricity" style="edgeStyle=orthogonalEdgeStyle;rounded=0;orthogonalLoop=1;jettySize=auto;html=1;entryX=0;entryY=0.5;entryDx=0;entryDy=0;" edge="1" parent="1" source="JggLTyKNFOGJQd1DEr2l-2" target="JggLTyKNFOGJQd1DEr2l-29">
          <mxGeometry relative="1" as="geometry" />
        </mxCell>
        <mxCell id="JggLTyKNFOGJQd1DEr2l-2" value="Power Source" style="whiteSpace=wrap;html=1;aspect=fixed;" vertex="1" parent="1">
          <mxGeometry x="80" y="510" width="80" height="80" as="geometry" />
        </mxCell>
        <mxCell id="JggLTyKNFOGJQd1DEr2l-19" style="edgeStyle=orthogonalEdgeStyle;rounded=0;orthogonalLoop=1;jettySize=auto;html=1;entryX=0;entryY=0.5;entryDx=0;entryDy=0;" edge="1" parent="1" source="JggLTyKNFOGJQd1DEr2l-3" target="JggLTyKNFOGJQd1DEr2l-8">
          <mxGeometry relative="1" as="geometry" />
        </mxCell>
        <mxCell id="JggLTyKNFOGJQd1DEr2l-3" value="Computer Network" style="whiteSpace=wrap;html=1;aspect=fixed;" vertex="1" parent="1">
          <mxGeometry x="80" y="390" width="80" height="80" as="geometry" />
        </mxCell>
        <mxCell id="JggLTyKNFOGJQd1DEr2l-9" value="" style="edgeStyle=orthogonalEdgeStyle;rounded=0;orthogonalLoop=1;jettySize=auto;html=1;" edge="1" parent="1" source="JggLTyKNFOGJQd1DEr2l-4" target="JggLTyKNFOGJQd1DEr2l-6">
          <mxGeometry relative="1" as="geometry" />
        </mxCell>
        <mxCell id="JggLTyKNFOGJQd1DEr2l-4" value="1. communicates with an input device" style="whiteSpace=wrap;html=1;aspect=fixed;fillColor=#f5f5f5;strokeColor=#666666;fontColor=#333333;" vertex="1" parent="1">
          <mxGeometry x="220" y="40" width="80" height="80" as="geometry" />
        </mxCell>
        <mxCell id="JggLTyKNFOGJQd1DEr2l-5" value="" style="shape=image;verticalLabelPosition=bottom;labelBackgroundColor=#ffffff;verticalAlign=top;aspect=fixed;imageAspect=0;image=data:image/png,iVBORw0KGgoAAAANSUhEUgAABQUAAAHACAYAAAAbag4UAAAgAElEQVR4AezdB7htR1UH8FBD76EGkN577106BESlht57jdJ7aFKMiIFQFRJQiXQQRBBBaVaKSlGxoYi9t+P3G/K/TM6797378t59uee+/3zfnNl7Zs2aNf89e9bM2jNzDlnUFYEiUASKQBEoAkWgCBSBIlAEikARKAJFoAgUgSKw4xG4yEUusjj88MMXwkN2fG1bwSJQBIpAESgCRaAIFIEiUASKQBEoAkWgCBSBIlAEhjGQQbBGwTaGIlAEikARKAJFoAgUgSJQBIpAESgCRaAIFIEicJAg0JWCB8mDbjWLQBEoAkWgCBSBIlAEikARKAJFoAgUgSJQBIpAEMjW4a4UDCINi0ARKAJFoAgUgSJQBIpAESgCRaAIFIEiUASKwA5HoCsFd/gDbvWKQBEoAkWgCBSBIlAEikARKAJFoAgUgSJQBIrAMgJZKSjsH40so9P7IlAEikARKAJFoAgUgSJQBIpAESgCRaAIFIEisAMR6ErBHfhQW6UiUASKQBEoAkWgCBSBIlAEikARKAJFoAgUgSKwOwSsEIzvSsHdIdW0IlAEikARKAJFoAgUgSJQBIpAESgCRaAIFIEisEMQ6ErBHfIgW40iUASKQBEoAkWgCBSBIlAEikARKAJFoAgUgSKwWQSySrBnCm4WsdIVgSJQBIpAESgCRaAIFIEiUASKQBEoAkWgCBSBFUcgRkErBrt9eMUfZsUvAkWgCBSBIlAEikARKAJFoAgUgSJQBIpAESgCm0EgRsGuFNwMWqUpAkWgCBSBIlAEikARKAJFoAgUgSJQBIpAESgCOwCBGgV3wENsFYpAESgCRaAIFIEiUASKQBEoAkWgCBSBIlAEisDeIFCj4N6gVdoiUASKQBEoAkWgCBSBIlAEikARKAJFoAgUgSKwAxBgFLzoRS+66PbhHfAwW4UiUASKQBEoAkWgCBSBIlAEikARKAJFoAgUgSKwGQS6UnAzKJWmCBSBIlAEikARKAJFoAgUgSJQBIpAESgCRaAI7CAEulJwBz3MVqUIFIEiUASKQBEoAkWgCBSBIlAEikARKAJFoAhsBoGuFNwMSqUpAkWgCBSBIlAEikARKAJFoAgUgSJQBIpAESgCOwiBrhTcQQ+zVSkCRaAIFIEiUASKQBEoAkWgCBSBIlAEikARKAKbQSB/MsI4eMhmMpSmCBSBIlAEikARKAJFoAgUgSJQBIpAESgCRaAIFIHVRqArBVf7+VX6IlAEikARKAJFoAgUgSJQBIpAESgCRaAIFIEisNcIZKWgsCsF9xq+ZigCRaAIFIEiUASKQBEoAkWgCBSBIlAEikARKAKrh0BXCq7eM6vERaAIFIEiUASKQBEoAkWgCBSBIlAEikARKAJFYJ8QsEIwvisF9wnKZi4CRaAIFIEiUASKQBEoAkWgCBSBIlAEikARKAKrgUBXCq7Gc6qURaAIFIEiUASKQBEoAkWgCBSBIlAEikARKAJFYL8hkFWCPVNwv0FaRkWgCBSBIlAEikARKAJFoAgUgSJQBIpAESgCRWB7I9CVgtv7+VS6IlAEikARKAJFoAgUgSJQBIpAESgCRaAIFIEisN8R6ErB/Q5pGRaBIlAEikARKAJFoAgUgSJQBIpAESgCRaAIFIHtjUBWCnb78PZ+TpWuCBSBIlAEikARKAJFoAgUgSJQBIpAESgCRaAI7DcEulJwv0FZRkWgCBSBIlAEikARKAJFoAgUgSJQBIpAESgCRWA1EKhRcDWeU6UsAkWgCBSBIlAEikARKAJFoAgUgSJQBIpAESgC+w2BGgX3G5RlVASKQBEoAkWgCBSBIlAEikARKAJFoAgUgSJQBFYDgRoFV+M5VcoiUASKQBEoAkWgCBSBIlAEikARKAJFoAgUgSKw3xCoUXC/QVlGRaAIFIEiUASKQBEoAkWgCBSBIlAEikARKAJFYDUQYBS82MUuthAeshoiV8oiUASKQBEoAkWgCBSBIlAEikARKAJFoAgUgSJQBPYFga4U3Bf0mrcIFIEiUASKQBEoAkWgCBSBIlAEikARKAJFoAisIAJdKbiCD60iF4EiUASKQBEoAkWgCBSBIlAEikARKAJFoAgUgX1BIFuHu314X1Bs3iJQBIpAESgCRaAIFIEiUASKQBEoAkWgCBSBIrBCCHSl4Ao9rIpaBIpAESgCRaAIFIEiUASKQBEoAkWgCBSBIlAE9gcCWSko7B+N7A9Ey6MIFIEiUASKQBEoAkWgCBSBIlAEikARKAJFoAhscwS6UnCbP6CKVwSKQBEoAkWgCBSBIlAEikARKAJFoAgUgSJQBPY3AlYIxnel4P5Gt/yKQBEoAkWgCBSBIlAEikARKAJFoAgUgSJQBIrANkSgKwW34UOpSEWgCBSBIlAEikARKAJFoAgUgSJQBIpAESgCRWArEcgqwZ4puJUol3cRKAJFoAgUgSJQBIpAESgCRaAIFIEiUASKQBHYRgjEKGjFYLcPb6MHU1GKQBEoAkWgCBSBIlAEikARKAJFoAgUgSJQBIrAViEQo2BXCm4VwuVbBIpAESgCRaAIFIEiUASKQBEoAkWgCBSBIlAEthkCNQpuswdScYpAESgCRaAIFIEiUASKQBEoAkWgCBSBIlAEisBWI1Cj4FYjXP5FoAgUgSJQBIpAESgCRaAIFIEiUASKQBEoAkVgmyFQo+A2eyAVpwgUgSJQBIpAESgCRaAIFIEiUASKQBEoAkWgCGw1AjUKbjXC5V8EikARKAJFoAgUgSJQBIpAESgCRaAIFIEiUAS2GQI1Cm6zB1JxikARKAJFoAgUgSJQBIpAESgCRaAIFIEiUASKwFYjUKPgViNc/kWgCBSBIlAEikARKAJFoAgUgSJQBIpAESgCRWCbIcAoePGLX3whPGSbyVZxikARKAJFoAgUgSJQBIpAESgCRaAIFIEiUASKQBHYAgRiEKxRcAvALcsiUASKQBEoAkWgCBSBIlAEikARKAJFoAgUgSKwHRHoSsHt+FQqUxEoAkWgCBSBIlAEikARKAJFoAgUgSJQBIpAEdhCBLJSUNjtw1sIdFkXgSJQBIpAESgCRaAIFIEiUASKQBEoAkWgCBSB7YJAVwpulydROYpAEdjWCPzv//7vgv+///u/IeccJi0VkDbHLdP+z//8zxqf5NkolDf85OP++7//e/BfzhNa8SlzmSZpkW89upSXvO43W/bML3wStx5+KSNhaIXx0taTdzluzpu0mW/SEzfLk7iGRaAIFIEisLUI6IuX+9+5v1e69P/6r/9aV5eFdrlP34zUc9nztbzr8Y0ukbYsT/LP5YbHchy9vVxG9Oqcx/V//ud/DllS9sxr+To4Bq/l9Pk+8iaPtJQtzNjEddIi98zH9TKP1GWmw0d+IXp+dnMcmmW60CdNuOzQ5LmEDs16tMt5e18EikARKALfQ8AKwfiuFGyrKAJFoAhsgIBBJ2+Aa/CbwbPQAF5a3HKcQWvyoPuP//iPtcGxgWt4uV4eJCdNuf/+7/8+0v/t3/5tyJHy5Akf11zixC97aakP/qGVL3yku+bQkJkjQ9KSL3lmXonLhMC96+RJKH72ePBoedecMpPfvTziYI/G/ZxXWuSc0+aywl9cXREoAkWgCBwYBPT/+udZD7jWhydO//wv//Iv455Uc3r6+tCmD3c/x0U3yJ++X1zKRquc6AJpuQ8SaJP+r//6r4N/ygmv8BZKEz/LIT/dGbqUG+PfTI/2n/7pnwYP19Fj8sSlHGF0ILrglfTkyX3qJ480PmW7pudzL4/rjDvc85wwcrlO/ZIWOjwzXkGfPPiiIYc4LvK4xy98I6M8kS355UObeiddXvmEy34U1p8iUASKQBE4GQJdKXgyOHpTBIpAEdg9Agas//AP/zAGpygNQueB7XpxBqUmEwauy07ef/zHf1yLRsfHZWDrXln//M//PAa7SReXiUrihMrkIp/BvrIywA8t/nhKk8e96/UMl8mDJz4G++gzkUh+6Qbq0jZykQ+d/HwmAvCFlfvZzXzl9yzIKp4T/v3f//1aPjTiUudl+SLDXEavi0ARKAJF4MAgoH+Oj77Qr/Nz/+yaTtC/o4+jI9DG0WV0CYduPX2wzFu5dATa6LKZp/TIRg5pdB/dEzfXAQ0fnUbGZV2GnzxCacmDN33uPg4NXjF8iZcHXfR2aPGEgRCNEC+h/HPdI6O0WZ7kCU908pFBiHZ2GS8kDk3qNMfhy0n77ne/u6aXQyPEO7KEPs9EemT527/925Hf/UYuafhERrLVFYEiUASKwK4IZJVgzxTcFZvGFIEiUATWEDCoNJg1YDVIzYBTyIs34OQzqA4NJvJKE2cC4jqDX/xmnwF1QmkZ/ONtcC/ONY9PyjBZ4TlpeITOdcrED52JRdIjf+qDnhevvLjEpVyTKXVKPiHPoUHP4aM8vKSHf2QiR+hci5dHfcMztOJdJ14+13gnnzriYwIR+uU8qfsouD9FoAgUgSKwpQik70/fnTD9v49kMYBF7+m3oy/Qc/p0cdKSVxwdMHvpoREmP5p8MBIfHSE99/iSITpMubmfdUfqIF88w1fkT7p7ZeKXcuhhsuCXOKH71CM8xXMzHX74Jn/C8FAvcTzalBfspItXVnhHTmmJCyboxKcOoVVeeKbs8J1lwmeZDk+00sKHnHinXDwii/zhIR3dnE/e3KNL/V3XFYEiUASKwK4IdKXgrpg0pggUgSKwCwIZWGawy7gljjcg5TLwDI2BrmuD3Qxa3WeQnvwZJLt3jQ8a1+jlzeBcOe7RSOc56bMXJ00c2twLIx8+8+A5tNLlJU/q5JpDk0kBOk79InvyyC99Lkua/OEV+UKrLLylh7e0YKes8EudpKHnY+CcaVyrIz7yoBO6D79cj4j+FIEiUASKwJYhoE9On5vr9M3uZ/2Sfn42EEUfzPoKnXhheAmVE53jOuWqXPSGMrnwQJ98wllnkI0P7/ATzuXiSebQhYcwOk6e1FV85Azw0tUp5Ulf9mjoX/Gph/zu57KTjtdcPlo8Un6wFc54Jj9afMNbmblPndEkXj7lpYyUj7e04OI6elqc9KTh5ZrHR5q4eVw158GLT91ck1Eevq4IFIEiUAR2RaArBXfFpDFFoAgUgXURmAe/MQoacGaQnUwZuIo3CDXYRZeBcQamBrLi3c+8XRv4ctLRJd1AOPmF4YkeTXiFLrzwicuAW97IlTj5lSe/MGUkP7rQisuKDuWgj6xC/OXnMzFwLZ97Dl34oQ+WaPCMc82HZ/KGHh/PBP/QLce5Dx/XeNUVgSJQBIrAgUcgfXX6ZSEvnk6IUY1k9FH6emnJm77evXR9Op9+Xl707tHMae655FU22pQV/RD53Eujm8QlXf7QKMc1z6Gf84iLbGikRS58lR/+oYtMSZMe2vAOLZ5Jc01GHjaRLbRz2WQQH8Oc6+RNeULxaFPnuQzp8zOQP3RklxavnNQnPMMr8ZFJ+iyPdPfkdx26xKfM1A9teI6H0p8iUASKQBHYBYGuFNwFkkYUgSJQBNZHIINeg04uocEs41gGrgaj/EzjGl3i3WfQLTRozaDWPV74o89g2bWtuugy4BaKR8vLZ+D9d3/3d+NaOe4ZzOKcOWRQnjz4q1vKce2gc/do3EfulKscPL797W+PdDTkipM3/BKXepHFFjG8OXxSBzQcmsShc80HF6F6RMbwEqqvePTf+c53RjmJwxsNefFIeaPQ/hSBIlAEisCWI6AP1v/qp4WcuPTx9KljH/Tb4nm0y/39HIdP6KJP3c/9vHs86ZzwEtJHoZOufI5+cE9fyOs+ZaQ8ofToEvfqgY6+pqekReeEj3LRckkTR7aUKV1dIs8gPulHGrnl4dEpV37lSY+XhibyK88YIXJJS71y7V5+tBze5JKHp6ODozxkTN1CIxSHFp/wTBn4u0bHuc69OOWRPeny88HLdeiShidZYZ98+JChrggUgSJQBNZHoCsF18elsUWgCBSBdREw8DRo5TJ4NUA1ODdA5k0CDEAzeM3A1WA1zmB1o/ikoUfDuc6g2mDeAHzmhyYD6JQx50/cHKb8xKmPMmaHpwH27Mi3XDZekTW0oRNymUC4RrvMw30mUPKQRfniyUC+5INvJkTSeWmhiQwJl2UTvyxfaBsWgSJQBIrA1iCQPjx99lzK3E+nP9dPMwyhd62P50IbfuJCk/ToA/l4Tkif0C+zjsFH/Kzv6NllnRi5U677ZRfZEq9Muiwf21Ju0skZWRMnREceebnUA3/XdKr0ZRmkRT7YxYlblk25yS8NT/fKpI/JsJzH/Syva1gplzzhGblTPlnwjEOnPHm55HWtDPTC2UceIU9WfJJ/rq80eeuKQBEoAkVg9wjEKGjF4CG7J21qESgCReDgRcDg1gDUoNegM4Nu8QxUBp/i4tFkkGxQatDKS8+g230GtSYLvHx4CTOYda0ceec882A4fAyqlZtBtLxzmuvIkzJmecThqzzy4CcuPLUAPMTFWS1ooE82vKSnrsoid/jCCk3kwz/1UKZ8WQ2JRhp+eCSPa14afvLN5UiLjPj92Z/92aARp7zIF36pR8MiUASKQBHYegTS96bvpx+iF6zu9g/0HLqE6fOTV6h/j36Ijozuis6K7kGPR/jJy4efMqO/hD464e2a3kDHRWeFzyyHsnn1+ou/+Iu1OikXnXj5I5PyQy9deXRpaNHLy8sT+YWpt+vQCent3KORL3Knzsrk3MsvRJd7MqKRRpbQiAs/8RycYaVMaUJpyScutJE1dO7DO+Mo+SO3fKENT2HqF75CecR7Xnn24uVXL2nzcxzC96cIFIEiUAQGAjEKCmsUbKMoAkWgCGyAgAFlBqLCDELf9a53LR70oActHvOYxywe8pCHDP+IRzxiwT/5yU8ek5sMfBNmMB+ef/qnfzp4POABD1h8/OMfH4PklKWcDGi/9rWvLR72sIct/vzP/3xIabBrIM2F9/ve974FPspGlwExHuHzkz/5k0POn/qpnxr1MNBPmpB8QpMLaZ/97GcXD37wg4dXR/XlU9/73Oc+i4985CMDH/kyyBeSP/V0/zM/8zMj78tf/vIhe8qSj6z+sfFpT3vaWlkp71GPetSo+0Mf+tC1EObkePe73z3kTVnKUeZv/MZvjPR73/veiy9/+ctr8klTLnq0fF0RKAJFoAhsPQLpp5WkL9b3J9QX/8RP/MTiyCOPXLz61a9e69fRnnjiiWv69ZGPfOTiC1/4wjAAyZs+X3j88ccPHfjjP/7jawY3NL/+678+dAedQp/QJfSaMHrmV37lV0YeusjHKfmOO+64Nf2Hns4R0v3RHalD6mE1vzLo4uhJobJ4epoOQs/jA5fPfOYzi/vf//6Lhz/84aMMejVp0ZFki16Hi/Q3velNoxy8lelDWGRJGTHy4UmWxz72seP4D/n50OF9zDHHrMk6yx3dT77US3nok/+lL33pkP+Nb3zjGv7qRn7eeCc4hId7Y6ZvfvOba+0Bv7QVRr73v//9C88dHfw/97nPjcZK9uDv2niATEcdddSoX7BK+SNTf4pAESgCReBkCGy5UZDyoaxe97rXLV772tcO/9M//dOL2Se+4ffwKQ7FYRXagIGy9zvO4I2PW75P/CqHGaAaXHIGmyYeZzjDGRYXuchFxkTGgJWx6o53vOPiAhe4wOIlL3nJ4o//+I/XBt3ycAa8BrBf/epXF09/+tMXhx566ODDaBbs5kGx609/+tOL05/+9IvnPve5iz/6oz8ak4qsWsgEw4D8tKc97Sj7D/7gD9YmBilXmXe9610Hn7vf/e5DFnHJrxyTBzLEWHjCCScM2Q455JDFEUccMSY7JjwG6MILX/jCC4bBT37yk2ttIPUTKlsZJmvXu971Rtk3v/nNh9FRPI8OriZTz3/+8xePfvSjB2/hAx/4wMV5z3veUa/rXve6A1/lPv7xjx9073nPe4asozInreTIBBAWpzvd6Raf+MQnhmxzXVO2cKe4PL/UJ7j+zd/8zZjEHnvssWu6eBX6mcpYfdg2cPI2QEdkTC1knPIBKP1o3v3tGkaPCtMHu+bc/9AP/dDo629/+9uvfbzRjz3zmc8c8Wc84xmHvmRI8uEn/OR37YOYPv/KV77y+PAUg9Gb3/zmoXtOc5rTLO51r3ut6RF6jJGLPvnUpz61ZnBjiKKzbnzjGy+uda1rrRmk6J7LXOYyi1vf+tYLH9YYvxgQUwehVYImWMqis+TxQY8+u9SlLrW4y13usnjve987dF7klu/tb3/7yHPmM5951OEe97jH4qMf/ejgrR70NH3qOtjRzze4wQ0GNsYHxiO/+7u/O2hDR5fD0JgNT/ic+9znXnzjG99Y46N83ko7eoLRkNw8uS95yUuOMi596UuvpRnvSIcB/txNb3rThWfEuAlDjhzk/v3f//3xHMlJDtjznvlZz3rWYchjYPy1X/u1IYv6qieZjG3OdKYzrT1DhkFjIrz5yP+85z1v1O8HfuAHxtgrGJAPzU5w3/rWt0ZbecMb3jD6gnlOrX9w337z5P1m8Sge26EN5F0ly3xNl3uf3/GOd4yz0E+NfmpLjYI6YIrv6le/+lBYFKMJYX0xaBtY/TZgwG0gxxloGXhlUCguA9adMgjLgFMdDVDVT52f8YxnjEH4la50pTExE8cbfJtIGKC/5jWvWRjEGeDKG7zQ+Why9rOffXH9619/ca5znWvwY0REEwwNpuW1isAkw8DY5CEySbNikIHRQN6An0HSykI8pDMecsq8293uNgbtQveRR934bLERz1FSDIJ8BuspW2j1wEUvetExyP+93/u9tXLwStnqcJWrXGVMiC5xiUssrnGNa4wJ2LzSkSwcnuRO+X/91389+Cv/Oc95zhpNVj4oA//IZPvVU57ylGGoVQ48KFwTtciDyVzGYLoDfmBihWfajnttzqoK7+y1r33tMUltH7z6fXCf4cH5DG90oxsteM/fuPpqV7va0Df6T/3bqrj0v0K6Io5e0tff4Q53WOvX1Yuu9ZGHQYmnC48++ujR78sffcEoKI1O1vfRZ7BhFJSfZ0xM+dFTyS/eVmIflhjALnvZy45Vi+LxEZLFuUt4HXbYYSczrqFhpGWUkk5nzTqK8dGHNB/GPv/5z486RpbZKGjsoB73u9/9Bj74RkahPGQ3zlAOPSeMUZBOjLzB4J73vOfiQhe60OIKV7jC4pznPOdYVecPXfAKP7TBUxynPEZazyXjPvHo0EQecTe72c3WjIJ4cUIfMp/1rGctznOe84x2G8MlOX/nd35ntGmGQXV43OMeN2SPMVM9rCBlbIQJj86uAtiSIfgwCkozwf2rv/qrNfnISN6d4D74wQ+OdnmTm9xkzK9nXXDDG95wrW+Y43t9cOqLPvft+9zN+zwfejzX9Aa9oL860E6fqXzhft0+rIM2MTMB8dVHx54O+0BXsuUVgSKw/xFgZLnNbW4zGHvfMzgUkQHiqdGp7f+afo+jgWcG2AaxGYga5BoomyA4CylO+m//9m8vznGOcyzOcpazLF75yleOfhBOPGwMlH0ZohR8Ub/Oda6zONvZzjZWLMjPZVDs2kQmk6G3vvWtY7Cb8oQG/CYEBvtXvOIVhxGR0Q0vfOLufOc7D7nue9/7ju265EEjjCNfnt9GRkHPPcY4qyNNShjh8FKu+gUz+uCqV73qMIIa3BvUM4IyZKacuWy8E7+RUTC80ZGdLMHWZAEef/iHfziMrp7RK17xipPVcS4jZe+EEB6etzaV52pFxeGHHz5WkMzPeSfUt3UoAgcLAt7t9IvqzHilr3/nO9853vU5bbtjkv5XOPdJMQre9ra3XfvAId1KwRiEGIcYfl70ohcNHSNd/4/Xk570pKGTGb7y0QkWPsDRA3hkhVlkCFbww8uKQbqU/7mf+7mRvIw9feIDnUkUA5fyGSGdr/eXf/mXw/Am/4/92I+tnROYeZDdAdJ8KGO4oiv11T/7sz87ZCQnXa+OVjXSn3HkwEcezmTSuMHqQvnwzce5OQ8eP/zDPzw+mNkmHSx+/ud/fuBGfjpjoza0WaOgFZTGAoyZcXhbjem5WUkId45MqZv6X/Oa1xx1YRS0ayDOtR0SMQgbU6kz4yxdBwurNfFgFFQ3hlfPYSe6X/zFX1xc/vKXH/XTXvMOpW3AW3xdESgC2xsB72z01xe/+MWhU/TP+rID7bZ0paBOyiSX8UCl3euoogwCgvv6YtA2sFptwOo322q8097v2WeQIm6nuOX6xeC1bBQ0QDUxgIsv4wx0BvYMYXho5wbewcjqBSs9TF5udatbjYG9wXOwmwd3WSloQGxFgbTIgZ6Rz6DZgNxkxUqJbD1CawKJ3goMW36sSCTHct3IT87IsJFRMPnU2TlBBu1kM7B3hp90aVauKd8E6C1vectYdWHQblD/la98Za18ZXLyzeUvGwXndHzJq5wZW0bBH/3RHx1yeAYmggyzFC38uRgVx80O+PEseW7GyLVJsFUYX/rSlwZOsKovBm0Dq9UGvNv6Ot57zRBiO6o+Wn+Wd39cbPMfbS/9VPotIsco6AgO8dFxjD0MXhe84AUXv/zLvzy27zLIWRnI4UXXPOEJTxi6hbEsuoee8AGObvShji6FYTCTH43ybBmG6aGHHjrOMYRx+CtDPnT0km22DF1WEzrzLjytFLR6nqGO4RI9n/oyCpLFllzn/5GDp9eVSz/SlQxrzscLVvRXrvPu0rewYSCTD0aMlHH4MrwJGRif+tSnLmIUJDujJ4zJRkZ1wDt1Fsdt1ih4i1vcYox5yI4nmR0v4rlZZWgLsfFO5Ie7MtE68sQRJec73/nGeEa5ZENDf5PXuMGWecZHPG1hjuzCGAWtiIxRUHxwG5VZ8R+GXKtYGUvhyxCtraun5+yZBd+Gq9XH93nt7OflfeU576vr6AZ9o/7feF3agXZbtlJQZVSSUdCh9iZtOvZUPGDkHn19MWgbWJ02wChoC5MBiJbcmOgAACAASURBVOcW59p7TbHtNKdOqVvCF7zgBcMQZnBvAKqDhwlvlZqBqU7eeTgxFobmbW9728CQscyg95d+6ZfG1htnDykLffB1j79JiI7bQJ4M0qXJ7w81rAJkEDM5YCB06DaHxkpGEyjnIZFb/tmhiex5F6VvZBSc6eVzlg3jm0nJb/3Wb42BvsG/1YAmCM4FdPaQVQwmMLZNS2OkU9e0IyHeuV/PKBj8g4FJBT5wcI6jrbI/8iM/MupMfqtGxJMH/ikjfGYcVvVanTwH9YuL7jXI0A59iVRntPXFoG1gtdqA99r7m37PsRRWYFspqO/zPFfFpY8Xqk9cjII+XkVX6td8gGNIsyqfIY2Riq7Rz+PBwcDRET6KObqITggPuod+kqY/FJ988ronBz2mr+R9RMGD3ohDoxz0Prqhw5ehShqedLVzhulgZ+SK4+VDwygozWov573qp/FjFBTPmGj7sq3GjD/0JQzwEOLz9a9/fZzHZ/tyzpaDD0yyUlBZdCOjkTIZO5/4xCeO40ws2CCjtqOOjEpoyRE94jp9xN4YBRnvfKRkjFQ3Zx6SyzmAysA/9SGj+SE6184Q9iHV+JILHaMgbM5//vMP46EzCeFuRSlc8MXDdm04ZKWgOsALn53irBQ0pvGhN/VWRzhoq3DMc2u4Wn18n9fOfl7eUT7OtXdX32V8Tp/o+7WDA+2yUtDHtv2+fVgFnXfgIEWdlI4rTofF1xWBIrCaCDD2Wyk4d26pibhTo0NL+VsRqo96GVjqy1I/xjUDeEZB24ASzyBoEuMwb1/nTR70iclroOr8P6v5GKvwlm7Q7EwYkwMD5XxM0V9SHPpSRkRGtvyxB5nwYxT0xyfKttrQCrlf+IVfGH0tmm9/+9sL5/lZKeEsJnE8mVO/PM/EwXJPRkG05Hv9618/BuMG7oyC5FVf254N8slH2ZHV9iyTM5Md26zVMy6yCLn1jILklCfyqgds3P/gD/7g0D1WYYonh1WYJptWcyg/vNGHR8pf1TDPIc9UvWDkGVgZo516LtW9q/qEK/fBjkD6Ru+295xxjD5gkMp7vyoYqUPqM/dJy0ZBaXy2DzMKMro5qN3CA0dW6Ov18+jyRyO2VdOpcOFtH2ZEoouyUlAeafrJ4McoyKhlcsa4xmDG4x1dEZ4f+9jHBi2+DDVopNG1s1EwZSjPH4zc7na3G8Y+q+vpLfH66awUpBud30t/02eeMb0V/mh/8zd/c6z+tgqPXoUH3Wu1vpWCysSXZ/BzbtWd7nSnhVVmeFkB6QOhM4F/9Vd/dRjw0Koj7xouqfdmjYLOSmQANEaBG1mNaRjqjG/CT7xrbYCsnhVPHvjPRkHpL3/5ywcPRlC7MIw30MCGgdPZiPI/+9nPHnTwzznCwU5ZO8Fl+7A6e07BVD3TVtV1p9R3Jzyz1qEIBAH9qz4t76f3Vt/FKOjMVX2/9APttmyloArrmCzv9nVO5cQBIMoGCHVFoAisJgKMgoz+6dSEuV7NGu1e6tTP4Evn7d5gjFHLYNcfe7zvfe8bnbkOnbGQ8c1g+Atf+MKgl9dAWB8ozvk+BsnuMzhmzLPKz3msnC/tmTToR+W3AsLExhd/eaX7IwlfzJ1fJM5g0dceEwB5yMxoaUuTyYGzi8THsJZBpbypa57nRkZB6aEnq0mXyQDZUmfbqHwYEu/wXGWqB4NmJmj440MGbpnvslEwNPPgV351tALEtrGXvexlawPl6CIrE0040KHnhLkeESv8A79gqE6z3jVpZBS0PSHPdYWrWtGLwEGHQPpF73XebYYdH6QYBTk00lbB6aNSp/Rb5I5R0PZh6eYKaLMCzMSFLpPnqKOOGnrEajqr4dBaXUe3WC2u7xfH00+MZvSrFfe20NqGzLD34Q9/ePxDPb7+UVh+hjl/gJH89D1slUsu3h+K4UfnWZUvHV2MggyLVv4zuqGl95ypxxhHdjLjgyfdaAdA/mxDHvHOD1a/j3/840Ovk0c8fao+JpLKfPWrXz3k8DHQxx96Dk9bTJXNeBqDoPzf/e53x8pBdbWKEMYZD3gO6hJ9jX6zRkH1w/PII48czRDfGAX9Y7T6hnf4p73Cw0pB2DP4qSuZ0MUoqH62GaufD6qMoLYbWzlJToZW5VspaCWt8rngnLJWOcz2Ye1M/YIprNI+YJG6r3JdK3sR2GkIeDe9q3lHvaeurUx39rc5pPf4QDtzxqwW3K8rBVMRk09fcAIAxRUloBPjgFFfDNoGVqsN5ExB7zaXwfK42aE/+qz0W6roK7StSs64MSkQGtDzJgNW5VnRYPCayULOfbHKkjHReUH6RPFolo2CyjPxs02EQ6tfZWRjFOQYDp1pZHLikHU0BosmiwxuJkYUkDjbh6yWI5N8XOoUGT3Tua4bGQXR4aNf9/7awkQGA3KrA6VbvSCOvFZdoCWLCY7VADDAn8zkjDz4Ra71jIKhE5KbAnVGIuOsZ2ECaYKBD+cfEcnACIuv8qQJybMTHGx5Th3hoo5CE0wTLcZaWImvLwZtA6vVBtIvp89bNgp6t+kKz3W7OzKqjzDjCDIvGwWjj3JUBx32ta99bfTvVg/62JOV+mjpQMYyH8/gk8mX4zr0gfSRkK5wJp0/vDIR8xHPikNGQfnxteIuW2DJCl86Tzmu6VL6zgeX97znPWt1iVGQLjIWYMhSXsYG6kIuPLnoaCsF8ZMnW8jI7Z7cVtj7CIiejiVzjILGZPKmn9dG8DfBjF52XiJHfgbQy13uckMHMwri62xgcnkmaWMjw16cKbhsFCSD7cOMd/6QLNiJ11YztlGOOGMi8hrnOPKEHNyrXvWq8Vw8LwZA8Y5lUV9Hk8ALLvOZgjk3WX51in4cDFf4hwHaCsnZqAxXdeTUM89fXH0xaBvYHm1AH8d5HuYf3tWEjIL6eivZTw23ZSsFU5kYBVVehwWMeDQBJ/QNi0ARWA0Ecqag95qbBySpwU56vzPISkeubgZdJiUG/s4OtJ3HF2x/nuGPRRihrAiIgQy9/Jyv4Aa+BsB4iRc6NJuhzCBamSY1JiHpQ90bEDuwm0ES7gaGBojyOUQcrcG0rz4mOwbTyv6TP/mTsaXpxBNPHPfhGYOk8vEz2XHNcxsZBaVHbnSMgrAwmTJRkb5sFBSnjE984hNjAmMSY9IzY7PMdz2jIBr4pHwyU6iW3uNpsiAtLoefZ/WC/Moki+ud4NQjXt0MNHjX2qZJKYx2Sn13wjNrHYrAZhHw3nqf02fp3/TzPggx9njP0cz93mZ5nxp06buF6hQXo2DOFFQndYuuNXGhE/T/PrrRbz4wMXB99rOfHSvw3Ns+zNAlP2+lIP2UD1H6Qt7qaXqbZ6Cis2Jc8yGLbMqPXpz1jpWGePK2dKasGAXpeIYwZ+fib7Jnh4Wtrf5hl26XJxjQtcYNymcAVKbdVuLwMpZA6xxA+l25PvSIy4p8hkJ1Eoc3oyB+9LIVZox+DJ1WEDKwMmja8QAr5aUdyavu6NXZlmcyGHvESU85Qi66Nn80gp/xDFkf8pCHrGEUvsmvbZOLjjYxxkfetHljKsZa2H3zm98c8vowG3z8YZvdGuqiTtoDIyeM1Q0fddoJLisFjQfj1I2HJxzVt64IFIHthUDeU1LlOv0ofXRqGgWzUlC4X1cKqiglQhFQVFEyQHDNR4Fsr8dVaYpAEdgMAlkp6F3n0rnNedeLm9NX6Vp/pU/LAJXs7p3hZ8BtomIigE7/dsIJJ6x93bc9SXw8XBgFfeG2ncagNX2ibcDibIfx77kmEpmUGNgqU/773//+Y3uUfzY0kXHotDMKbRuSHqMg2awCEH/3u999rFSwoiH9MFp1SvlkVJ54ntvIKJi6onPtjB8DfxMY5eFpguXeJM3kJcrPZM4kDW6wYBjEgwu/lL+RUTC8IrPVIw4hJ0POTAwPW8Xucpe7DCMtw6nJDyzx2Ekuz0S94sWZjJos+lfouiJQBFYTAe+0Pk3fqt92TATDDiOReD796HavITkj79wPxyiYfx9OP+2sOH27MwXpBHnwUHd6jp5hpMsfjfgDFnow/aCPVujoovlDXXQqXmiPOeaYUY7Vfdk+DG9p9IbVaO5df+hDHxor4PCNURAfxirGKwZIfzSSZ8MQxrgm3h9l4BOHhnGXfIxvjHl4+Qho66yVdvpxcqhLdgLYBsyZa8HHuMIKR3TyxygInxiPo/+cb2hrr7ONrV5ET47kdZ8xz2a3D1uVTw7GPbzgS8eLc3xHsFCGNJ487oXGNox/+EiDETle8YpXDB5WBTKyJs0zyHN1BqNdAvIbW3gO8qsDv1Mco6CPAcZ+wS/1hC8cY3TdKXVuPYrATkFAf+Z99Z7O/SF94+OND0JoDrTTZ8YwuN+Ngiobo6DOnlNJ1+nkD3SFd2J5GlQamND9skujW453v0yfZyTNs0q60HOb49bjN8el3PBImnvlzPKGNjTrhRvRtE2th9bWxuWPRvJs13s268VtrVRby137NwBTL23Xta/SBrs6U4Yu/R46f55hK7Av1kIrGOTxT4PO/skXen3kC1/4wmHEcj6Os/Dyr3oG8fhweBrU4sH5Cm9icctb3nJ88fcvhrYeeRfQGCzi62s5o+AHP/jBMWnyFcq/HEdOtDze4lwL8+yEMQoaeFvhN/cDoZWPUdBqNEY3qxI/8IEPDEOkevDOerKCTx2F5HPGoXo4HB4PLvi6500ATQSV789b5j4otPljF1uLPA8TmOCpPP9c6M9GTBacNTWviki5o/AV/gkWnk+wE8fbWuXZ+xJZt3cIzFjOOYO3cD0X7JfTtN+8p9J2l385b+jnPK7JmLiEc15x83ubPGjmvOEvXJYR3RwX/njNZc7Xu6MJrgnXy5f8DU+OgOeg7825cM4UzHOA5yq46BtyR2Yh/Ucn5ExBelY8Y4++fTYKymsiZQWa4zuEjEkMY1aOzcbD4447buRnXLNyGk/5YckpxzuynlEQDS+dsSXXDFLKIpctnXiiiVFQn0vPieeU549Mrne9643tzWSKsUraslFQnLxW/jFSPvrRjx56zT8u24kVnujmFY6MgvI5d1Ae+pf+9GdfjGv0oZV3jI12GUhjrJQHL89GHV0npFM9F2chpz6hF8rD2T4MD8Y9+eERo2COSxHPSYN72oI4NORxxIp4tDy5xcOBUVCZvJ0Z6uijF6NjVjTaveE5cHle6HeCYxS0C8VKweAXLFM/2OWZJK7hyRFI2zp57Mnv0Gg3wrjEpT0Jl2lCm3DOL269+/DYiN9yue6X+aS8lJE82ge+s1svf+j3xHcjGWf+vV4fAdh5HnkmwVy/TY8Zry8/q/U57d9YBsH4/WoUjJjZPpyGB4BcJwxtw71HIA2JwsuARkMKtsuhEhK3fJ17zwgvznUGBPjOhgN8NnIpQygfHuEjjzi85/YgLh6t65lP4kKTEE1kRlN3YBCIUTCY51mldPc7zWlzaYdCdczqBR2pM3oyuEVr4OrfhxmiDGi1U0YZnb7VAAx2tsjc5ja3GQYrRitenEPBDz300GEUDJbCvDOMggbI2TKjfIeUS1d2DIgmWPe9732H0ZGBEm+HnXvHUx/PyeqH5JGmrHjGRisXDPSdTYeOV1ZwsKKRYe+a17zmeOzSTdDU3SA+9fTnU6mnUN3J7tD1tCVhPBkZUhldTUgYBZUb55o3IYMpzK51rWsNYymDKe/fEP2Do7IYBE2C1DeD5pQbnqsa5nkJOfWCH1ej4IBhr39gmfckuIZJ4oXL2KNJXunx4rxf6SdClzB8ci9cduEr5CJHnnfS5zJdz+WiSbsnS67Fe58SRs7QL9OGTn7X8evJLC3OtTy88oSRVzjTJk/DkyMAI0ZBf0JhtRzcuFXAjqwxrqVW5NYWGJ305f4pN+0DfXQtXUAnpP1I82+0jo6gb3hGMH09o0lwectb3jLS6MEYBVO2MDrN8Rr+6Isu8aHLn2VFDiE58bSFlVENHaMXvRqZjAV88GIwZBQUz8mrHH8IRkarvdQFP2mMguLVga6FhzRGQeMG8fQgGn+oxUn3XuYsREZP9JwdHejlRU8f0sH0IU8Hi9OGbNfm8Mp7jnfGCoy0nosdDOkjRoaTdI3niZ5RkHyMe/iol10M8GCw82dgeeel8fKJs1MCDVrbq2fHiBmjoNWT8gXv7IwIduqMh3/nXi5j5rmq14yCPix7/1M/Ydx8nbiG30cgmGl3eae/n/q9q2CIhs+91ORL3rTDmQZdykkYXnOYcsXlfc/7IW7mGZrQLaeH11x28niP5YsswuTPtfvluoQ+PNHMdDMPtHW7RyB4Bit4w5DTb9MnO/5MwYCw3CADyu4hbOpGCOTlndODdeLmF9Z1FH4a4fwMPJ8MBpLfvXhlRcEnbb0QP7znZy2vgdCe8sun48r5H5FRmHPVXOOTpfF4z3VYT6bG7X8EDkajoDatfXJpc4xUjGUGaAam2icv3aTBqgaHizMKare+ahu0M7JZLaetow0/vLX1nFVkZd5y28c/qxANgk2GDIL9SyH5Zl7O/zGQlm47kxV16oGHdycuRsHULe8vGv9UHKOgrUjiyJSzCJ1p6A88KDOrNMKDUVC5VkPmTz/IJj/+nH7hCU94wljNaCIlfXmyaNJkgG9C5BDxuX5kIAujoOcAW39iAodMUqQ7Y0ecbcq2WtvqbUAtbeY3hFrRH/WIVwU4e85cjYL776Gu117yPsF8Theftuj9z/NYlkYeedEIuZnPMn3Km+PlVRaHh3crenejctGimct0n7Ij01yO68ibPlG5eadDiyZ8ErdRGH7BapnXRvkO5niYraJRkNx5F9I+8vw9T9uH6bUjjjhirX/WHhgF6Ri61qr8vFvaa3StD1Bo6Dz9PP0aR48xCNJlWbk/vxeulaPNm5Sh44116C/x9IiQrrcCX1nOLrQyni7RftWFLrO9l/6js7jU1bUtxQx1aBi4ks8HOHW36s1K+4wPHPvgaAxby+STPuta8jlbUVq2DyuP7PQmXEw4U0e6MX0NOseQMBAyomZ7tHjYamPy5bnkTEE4pE5CNHg6M5Gc9L9zC0NnNR/97COds/7sZkDPwd2qTh/0fEhlNMUP35SRlYLSYZZnJb9t9PKqO8w9Zx9dPRflx4/CdsBPjYL79hDzHqRdzO1sd5zXo5vb6XI6/topGs77xGv3ab9p3yk3tOIjX9KEicdjOa/0yDPnma/Xyy+PPij90Ew/X5Mn72ziwy/12VP5yXewhvCKhwFM88xPbaNgVgkKu1JwBVtoXlAvqZd57nxUR8Ob09IQhRqhNB2UvK7FhWfyhmfohTOdfPKgX3ZzWspGG493+CdvZFvmOfMPrzku9V3OF74N9y8CB6NRUHs2mNbuvDfaLqOgQagv/t/61rdG2zaoNkj3XllB58weW1nldc+I54s7DPHAy+Dfddq2SYsJyYUvfOGxCkS7xi/tm6HMwesmP4xhaG3zDT+0eBnAGyCbRNja68t5JgRzi0i5+KcvkC4+KwWV9dGPfnTIkX5AupUdJizOEMp2HQN+ZyMq21Yp9Jyy1Tflweqe97znmAjc6173GvEmV+rBqwcDHqOgCZiJofyc9OBhS7R0WNgqnbz4K9u9epkY2mJs640/Q5E+TxwH4xX9CaZCDjbBvUbBzT3UZQznXNJgqr1ol8EWzZ7yJX3mN7dL16ERaq/auXK029mnXHTzM07+lJF74ezkDw/xMw/x3lFxG+UXj45MoXEvT5w073HeZfFo814KU668fHglDK+G6yMAp1U0CqYtJNQOtJe0H8YnusbKNO0i70D0nQ9tjG7itSM4yM8AZMWevPShIzUYpaTh4wzbpMUoKL90PCKPMEZBuv2www4bRjzx+NDt/jxEvPIYuOZ27b21DcyKRjrJWX3q5r1KOeSy3ZdRkEFLHjzoWjLSYz4IMkLmg5Z/0rWDQBqdOeta7xl+0hgV/UGKetkm7J6x0M6F1EFZeefgaDUjvegDXo5BwTN9gXxWEpJtNgoqQ91SL+Ftb3vbUW/jAWVw4h/1qEeN/MYEsLHtW16y0MUmouQ0ViKDNB/9wiNGQWcKGkeRLeWjM/6yulR9yekjKIzQ8KnzEGjFf2oU3PcHmDYbTtpb2orrvB/o3HtHvRNC93HSvUPi5U97lZ686cNmnsk/t0vpyliWDS3eyk2aEL04PHjXKSP80SWvEH8e3ezQ4THzn8sLrfSN4kPTcGME4BePKs/M9XYxCuqfaxTc+Blu25S8nF70KG9xs/Pix8/x6MSnQbpOQ3XNJT006QhmuuRb5o1m7uySnrwJ5UenDjO9dOUl3n0GTq7jwkeIF/o5PXQN9y8CB5tRUFvUPvMO5H3LlqZLXOISw3il7aU9Qxy9rbO2rBpMm+iYKFg9YGBrsGDQH97oxTHi+OrNmOdQ8Shx/BmytHMDfpMfdM4pNCiWjod03gTLxMZAmVEwKxrynijXgFrI5X3Eh1zqydhokG3FgVUAtg8x4KkP7wwmkxkTrTjnB8JEff3JR8pL/bzLnHJNcPC3jck9HxxhkZWC6gFvvOQnK69shlcGVKslTRjxQEN+LrSMguph8uSw+ZQ3iFb8B2bxqgJr9eZqFNz8ww2GaTO5F8JUm5Hmfj0XuvQRM53r+Lyn6/EKjzxDNK61aWGc+Lwv4kIjfnYpU5g2n3LliZc2y42eSz50yTeXEf4pU1p4hkf4SAuP5JtpwqPh7hGA2SoaBcmtD9c+8vzTJrQ9R17oo+kOLm3JBzh6woTFh6Lkl67dcnRtdBUDGh0W3v6lVr/PKKU/zHsjPeWIo3Pw96cV/jzEijzba338cibfXe9612HMc2/LsDwpg0zqRs/68ETv0vXi1S3tHD3Djg+E/gCLgUxajIJ0ulX5ePHJ5wMbnW8VHieevGR43eteN8YWymQU9McjVs/5ExEfzbQV/UfqLa9r3kpB+pUOtV1a3PyM5LPdGG/nGapL6owPn7pbCWhFIBnx8IHQhxTnG8KUcc9HUcZDz9oYwtEexkX+IMy4SHnqJb9y8LZVW90ZL20XFxdPXs6fqXnG6NQlK0ojK/qd4GoU3LenmDY7cxGXdrKcnrS0N/ezy3skv7Tl+/CVBw/p4bX8TopHnzDleB/EccpwLYxP2e7jQpc0eVJ28kXW8BXvvUu/It79LGfKTjnJqxz85OXrdkUguAs5WMKN2y5Gwa4UHI9jNX80rLyIaWy5T0NTM2kan5c7ijaNcq55+KFNY12+TqeC/1zmTBc+CeVJuXN5ruWbeSY99UhaOkU8ufAW5hqvuq1H4GAzCmqL2q+2yKVNfuQjHxn/QOzPLPJVO20RPUXqXCLbYXirHfw5ie0vafcG2GnbypHHoNdkgnf+EZqUnWtn8+CFhuEMDzTKj6zOGXRenz//ePGLX7y2cgJd3q95laK41DUroqx6sFWK/EJ14P3zsnt1IROfgYPzjcjmn47JE7zUObgwdLp3HhZexx577LhXj8ghH1xNFpRlpaI45ciP9sMf/vBIM2kgc55P8CBX+gX/ipx6WOGxkxyc49VLneHI1Si45ycNu7i0WW0VjsE17VIoPhjPefGQnnbsXnryLvNyj492nfc2NJEnPLT7tGv8kje8w0N88iQtPN3PcruXD99l3skT+YThjX94h+cs/xDgpJ/QJW/4zjSuxUe25bTenxwBWK2qUVB70ybUQZh77c8RD/p6H3ji0On76RS6lrFPHJf82p4PaGjoPCvO8v6i+cIXvjD44m27sTLTrvHBzz0ZvGdx0U903nOf+9zF0572tFGGIz7wRS/khMr0XJyBRxZy44unMpTrml715ylkpUM5fyxGF9LpjvpAJ698ymHow5NxTTnhR8cZD+Cnfj6MMQT6iOaPTaSjpx/zgVF54e38QvnoWSsXxasL/in7zW9+86DxYS11znNDg9698mBFRveelTKjrxnq1IGRV8iTU8iYSk75eC68GUnR2HpNRnQ8WdUPnXMjo98z3oEhedHxO8HVKLhvT1Fb5eO0ndlL07ZCI2124rXPtD/3oRGmrSVeXHgt58NDXNKVE/rwFIdn7tGmbxCfcmYZw2M533I5KT955YuMoXWf90hc4mdZE6+8ZZ7h3fB7zxbGeZZ5frCpUXDpRWuD2TsE8tKncaWhaWSUoBc5DS4vKuXp5ZYW+rzMCef8iUuYzmLuDKXJI413PztpylS26/ASznXINRrePSeMvOEb2vDIvXx1W4/AwWYUhKg2rx2nXWprafOuowhd89q7Qbh472PeO/dp065DmzbuPu+vgbT4xJFjufzcK49Hn/zyKReflCkUHznwdM/nfZIn72nS8BaX+oQ2dOJjSExZqVPwQ4Mez6xQDG2wVY701BWPYDBfZ7KRMiJn6ideWehSHzSuwzt5RsSK/6h3vKqom/pzNQru+eHCC36cUPvxHi3Hp83MbXHGfbmkpOU9Cf+8B0K8tEttX5nJI0y+mS7vd+iSRra45bwpN/LLg4ZLXYVc+Llfpk+ZoUs6WvKrh7jQ4eW9n+OSJzJEDmFohyD92RABWK2iUVCF0jaE2kKeufagDbmX5n6ZPnkTnzak3YUPfedDmTaZOPRorbRPu056eEYe7xeHZ941cnJ5R9OG8efD07Xy5zi00vHHD9/53jXZgoX7GPDQ4+U+eEjP2EB6aMWjxUdZnOvowNCJ44IdWtfyRzbXfOSK7OqfuLks6TzeaPi5nBzVgWZ+VuElDr378Mr1EPakH2lcngMZ8ZY3WLkWDyNpaPM8Zl6rel2j4L49Oe2Kj0t7S6j9aI9pf4lPqG1J512LD8/lPO7x45evU/4cn7iE4Z0wbVvZadPhjWZ27pe9slLeHC7TuU+6a2Uob37nlSUNBuLRJ0583a4IwCVeap6d6xoF22h2bTF7EeMlpAS9iHkxl1/KueMK67yswvlFn1/2dHTyzA04PBKGV+7XC5fzK5PcvOvljpUCz4BnOa97dUw9U174GPRsRqbka3jKX7hUngAAIABJREFUEDjYjIJ5x9L+5jYmTRsWpx16d4ScOO1ZHId2PrTcwd5JW34PMpCXnvLxyL13xNacpCnLO6U81wbDfPoI+WKIC11klBa+kRMPMuGhbwit+Hh58OJdx0knv7zJFxykJW6+Vg8+aanXiDjJKBsZI89cLl5zGe7DnyzS5Esfgb84ddwJLvVNnbXB4Fmj4O6fMMy0jWAnhB0M5zjX8cscE59Qumt88hySRzvW9rzD2jC6ZScPOnKhSR+DNv1M8qCdeYRmjkO7XG7qjG7moay8v2jiwhefOHHx4tBLj4xkTznSQ5v00Iqv2zwC8FpVo6C25vnPbU7NtRVxnFDbyL24uY24xoNPPH3jvZJHvDas7blHEzpx0sNzPV7i/PkFfYHeu8qFl/zkFdLpynIfnnO5iYsMcyi/943ceReU6RodPtHBKVuoLPpc/tCRMdczduKMNeY+BA/3KQcf+RMf3YiGPNK5lD1upj5OujQ+MpDbNSd9Litlo0+8OPVSZ3HuwxcfPrR4Ji7x4ZXnEkyl4+Pe9aq7GgX37QmmnYbL3I6W20fStJ94bRAPLvRpr9pu4tAkD1pp7qVLm+m09fQx4uPRa8/hj8b9Zt3MJ/WW37uJN4fGtTIiY8pVXuiE5FzuD+SZ31V0ybNZOQ8WujwPIQentKXtYBR07FO3D69oa0zjmsUX58Wm/Lz4c8eTNC8wmjTE8EEvbdnlhRcffkI85BHiMTsNPeWRhZ9dyhTnGj1efNLEpWxxynSfMsMPXcpDV7f1CBxsRkHtK20/71fafdqvtokm7VaorSZfnop7Lm06bVb+vLfSk89kg4+jzClgvIWcskwQKOvwE5JRGufetZDHP2VGoYdurlvoB5OTygofca7x4l3z+IVH8qmbegjxJH8mP67VK3nwEMfjywml4z3zEJf02eiprExK5A0/ZXN4qH/uR+QK/+Q5pT55LqpUo+DuHyzM0vZQuk+7c+9au0v7QsvPNKHTzrStuQ27jku+5eeFl7T0I3P6LE/eWeVwePvjAu3dNU/W8EEj/3K5qRN613Nd5rg5PmULOWnKZRRR55SVNOmph7jUbxCeJFdopaGt2xwCsFpVo2BqmPYg5NJe3Kfvz+RVm9Tu0va0NzRwSBtNW5NfPrRznPdiLke+8ETHzfyUmfwJfYjDx73yPQPl4SXkQxsZ8Uke6a5NtqOvQz+H5PduJV/Kw3OuFz76JeGcnzzxkUsof8YK0nMdXPBBl7zhqa7i3Uvj3JNFGDfLrN7Jk+eXvMLlvClrDvGdZZmv0eE7lxP6YJQzDUMbOVc5rFFw357e3O60C23be6Dtuo5LO3Sf9iOMc+19SpsOfdpj4kOvXGmcUHmhESbNO+9anPdHGN7S9Btc4sfN0g/6vJ+ulTX3iXNedOk/hOQMf9cwIQ8+kSvFpZz0U4lvuD4C8IpHMeO5HYyCDII1Cq7/7FYi1oudF5jAvmw68P9973vf+Ac1nQBn0P6lL31p8d73vnec8+WQff/MpTPgNFK8KNAvf/nL4x88HQxswKPR6igcQPyhD31o5HdWGF7O81KeM1rknfnh62wTZ6L5R1Ch80R0HnHK5fyzmnNNnL/iXBEdmD9OcE7KiSeeOPy73/3ucTizs0rEOTOFcnTvzwy+9rWvDSzCM2U03P8IHGxGQe8Gz2lfs4LU5vP+SEcnXTzvPnkMILg53rV4eZIv77S8rr1/GQigFyfkpaFzLb9r/JTJow1/9xncR1bp8kVG7yceGQjgqx+RzkXGcXNS35J3OnLg6To8I1vClI0X+ck3p8knf3jM/FIGPMTHy4NHyiQ/P8scnsk7l5n6rGqo3vGps/pyNQru+anCLs51sBOnHTnH6itf+crQe3QOfURfOdQ/elIebYs+i77yZwXRYe9617vGnxd4Hv4JXPuTh67zb6P0qrPKHLaf9zrPFK1zMP25AU/fKcvZY/KRiU5WXsqhI2c56Gp/omA8ID99jt65aUL63NjA4JShkWzBgRxkiMziyUNvy/uBD3xgyKKvSD8U2b3fyvWvruicnQZPvLiZt+u6PSMAp1U0CpJb++ByPd/TJdE92pg2kvaU9uh+jseHHhAmj3vvh/s5XlzKC62QE8bLv1wGmsiGh2vy4j/nHzeTroy8mZQrQ5wyvBtz+eI4IY9O+lwuuaQpN3KIc48u8gjlFfLJh0a5wZpBRJ+ARhyPb/IJI8NcXzQznWtypT7JL15cyp+xQk+WxKUstHHyhkfSxeUarTolzr3+Uzr+7pMWnqsc1ii4b08vbUGoP3CGNz1GT8OWPqM36amc163E5NOuvDPGA3Qv3f2Nb3xjtDl00rU5bY8edX4o/ewPhczRzYs/97nPjT/xUw69LaSH6WxymMPjTV/K5x0xxyYTWjqerO9///vHnxKZ35vTmzsrmwy898J4hG7njS3Ec+jy/sKBnMYExifGJOrIHkAG8sfDh4xCcvDkIJv6KbNufQTyXPIM0q+h3g5Gwa4UXP+5rUysTiodAKEdpP/CF75w/HObfwjVUXEMbccdd9zidre73fD+8dO/lTHScV5ijVOncvzxxy+OOOKIcWCw/Dq273znOwt/quCfx/xrGH/7299+/BObch7+8Icv/LmA8vHhNHqdhAOf73znO49/Gf3iF784+OWFQKcOJiIOcT7yyCNHZ5MJxAte8ILx72z++YzsQv9UlvJvfetbDzme+MQnjs5sxmII0Z8tQeBgMwqmI18GU9tNe09aaOcBhDj3UZbyhM61d8w9h047zrV49wbjcWji50F68ign/PB3j57Da5ZZfGhdkyV07tFm0C5eHB9n8J08czqefHikjORLKG/yb0Sz/F6jU+/wnuuDb8qNnMLwdp28rkMTeVY1VL94dYBJ6laj4O6fKtzSxnKdd1XokPuXvvSli0c84hFr+ugOd7jD+OfMhz70oePfv/NPl4x9/uCHnqKzoi+F4niH4NOFytT2P/axjy0e/ehHD3r/buraRMBAPTTarI9k/tnbnxH4EGbCYaD+gAc8YOSlk5VJL0ZnKtf9ne50p/HnBwb5jHn+6dQ/n6oHmdC79+/i/jnUv4R+6lOfWlvNABftSbsiE1yMKZStDPwf+9jHjjEFmrRFedBqg/4EwL/KPuYxj9nlH2TDW766PSMAp1U1CqZfUsu0k9TY+6B9JS3h3C7kT77EL7c58drdTOd61pfuZ1lmvvjxiYt88nDipS+7pCc+ZQjp0bk8cWRMnPvwdM1zQpjkfrns0C7TJT6yyMeHLjxhoq/hlC9+lgk9Jz662v16/EM7Mpz0kzKFy/VzH57hN9PN5YR36BKiT13Ehecy/SzTKl/XKLj7p+e5p82tR6l9aPOMZf5Ah771b+J0YfSm8H73u9+Yv+afwNPehHQo/Wdu6x+0GerwjEsbNof25zt0rD8K8hGPAc8fEd3ylrcc5dHbyrvVrW415rN0uDg69YEPfOD48yUf0RiNjEOkyYsnmc3nH/awhy2e9KQnDUOd+XPeCYY9RscHPehBY77+qle9aqQlXcgxOJr7m4Obi/uAZ0xjnJDxhXGEMul78rpOHBzUj4HVu1i3PgJzG0KhLeYZbAejYFcKrv/cVi42jcrkguHuNKc5zeJ0pzvdwmo/aTohA3Jx0k572tOOzgS9dIMVL7IVfzqds5zlLOMfxHwJ0dExKjL6nfe85x08Ln3pS4/OQMd0netcZ3Huc597cZWrXGV0JmjT0K1o0Mko85BDDhlfY/JSBGTlm+AwLl7kIhcZ5VuVaALkH9FudrObLW5wgxuMcs5//vOP8s9xjnMsrnnNa474m9/85qNTtxqx7sAgcLAZBQ8Mqi2lCJxyBNKvCrn0wa5rFNw9rjDL5Jw+ogvpRN6HLoY4X1DpOfrOgJinl6585Ssvrna1q40VgzD3tf3JT37y0HdnOMMZFpe73OUWN7rRjRY3vvGNFze96U0XN7nJTca/hPo3VGXRrwbe+NLLdOW5znWuoW8ZGE2YyUYWKxOVaSLgK71zwuRlyLvhDW+4uN71rjf08BnPeMbF6U9/+sVFL3rRwVfZdDXdTqd/9atfHf/kie7MZz7z4qpXveoY6BvgX//611+c85znXFzqUpdaPOEJTxj1JwNPXnUkixUUjIgwyZjiPOc5zxhroIVp6KFvNYFJD9qLXexi40Oj+JnGddrv7p9YU+G0ikbBPrkiUAT2DYEaBTfGb9Y7rmefXHSulfKvf/3rh86kJ80nY6S7xS1usbj2ta89dBs9+LjHPW7o94wR8PRxjRHuTGc609D1jHyctNkx9BgP0O0+mlkoY7UeXZwxAZ1LJ6Khk+ljet7c9z73uc/CP35bmGMXwT3ucY8xBza2MPdlmDOuuMIVrjD0NuOclX35h2464rWvfe3ispe97NC97AP0bHzkRc9gyCh097vffezus6LRv8AzOhq3kJNs7Ai8MRE5la8uymFoxRP/ul0RgE281Hmcvh2Mgl0puOszW8mYvIDrGQU1Oo3tGc94xuKsZz3rMPjpyK50pSuNyYkvhGmYX//61xdHH3306Oie9axnDas/3oyFViCaAJhEPOUpTxlxWVqsM2VINEE69thj11YXWGlw//vff3R26xkF0yExCprYXOhCFxqrKHyh0AlaTWHJs+XZJ5xwwjBEphydlXiGR8ZPhsS6A4NAjYIHBueWUgQ2i0AGGulT06fLX6PgnlGEG10X3EwAfOCyCt3EwIcoA+A3velNI55hzRf45z3veWNA7sMbYyKdJQ99xz/zmc8cX919ebfiwBZe+orBT5n07zve8Y5h1KPb6Fdl3e1udxsfxsiBTmhFvcE3o6DtO4xvdDbetj+ZDFjhR0/jZaUD46EPbNLpaysCjAee+tSnjkmEwf3LXvayIY86GUMwUMpvAmDyYhJlW1KMfa7VwwTCmIIR82xnO9so1/Yjxko4wkPImcjWKLjndrhZCm2iRsHNolW6IrBzEKhRcM/PUv/I0+nx7jn6yQpBH9LoOYYyq+QY62ybtbXX1l0Gt7Of/ezD+GVRja2x9Bk+MQoeeuihmzYKWpHIKGj1nhV1dKjxAp1pJR+jIH5WFn784x8fc1vHbpGJLrXwxYc44wof4HxYlGb+fNRRRy0ufvGLD6Pife9735FXXZVlV6CPk/ibZ3PBJyGj4Mtf/vKh0xkWbQem7/E37iAPo6S5n/LZEBhL7SAko7m4nYbGCmQ1XqnbFYHgLeQy3nR9ahsFYxDsmYK7PreVi9HpcRsZBb3UliGbcFjh4KH70mBlgRfa4NKLrAN45StfOV54nUzOH7AEmlHRSkEdC4NhBv06ARMREwgTBJMWnSeZTEYtPZZHR2JikpeCvK7R6RRNgi54wQsO4yOjIHmsSLA9UQfD6JdVkNe61rXG1mgTKuWjE9YdGARqFDwwOLeUIrBZBNKvrjfYqFFwcygaBGdQ6/wvg3AGMivn6E3n/eTMPPrJOVy+jBvci+cM8h/1qEcNfcfgZjVC9BN9FX2WyYV8BuNW2vtQR39aTUdXi6d75acD6WqGSR/hTGLIgF90oO3EdKyJDB50tq/98oZGHluTTVCMAdCZNJBH/Rn8DPBNiKw2tGpiblt4MUS++tWvHpMQH/2smEB32GGHjQ+GMCBznPyMk3h2pWBQ2bcQpjUK7huGzV0EVhGBGgXXf2rRU0l1n3lq9K0082HzUnrykpe85DCAmbPSf/QjPU1/OQbEaj262MrB7JwzZ7UN+DnPec6Y89Jpm1kpaDENw49y6P2MN6y693HRPNkHQYa2/Fs4Oeh4ZfoI6YOg8i5wgQsMw2J40LmO/TAHJ68jStSZUZCRcdkoOGMEJ0ZB4wAfQBkFnWmoTPo+4wf6hgzGNWQ175ePjDBTnjw8nnW7IpA2GnyCGcpT2yjILhTD4CG7ir7vMde97nVHIwsIXrZcJ9z3UsoBAl5Cbj2jIKxtgbJ0mXVfx8TCb7Jz4QtfeNyz8KNjeGPw0Vmic4i652bi45wBg34TBZ2hMk005MuAX2dha7FVftKtjDBp0IltZBSUXyfoC4YOWufqTATx8XiZ3KDBRwdNVhMYHRYZvVx1BwaBGgUPDM4tpQhsFoH0lUJuHmzUKLg5FGGXQTAd5Ow7OpKx7kUvetEYAKMxCKZz6CX0mUTAnMGNfqWn6D0rEvJspPPuhQb0eFldb/sSoxnd6nwjg/t8sUdL11rx50OeM32cYSRe+dHFBu10rlV7yn/2s589tvlG3shscmPlg4E9GW37IQt+vEkn46R0W4bkl64cXn4rG6xWMC5gLDVesMrBNiaymfSgTb6MEZTX7cOba4+7o9KGahTcHUJNKwI7E4EaBdd/rvSNfnF20b2JR8NIRo86rsrHMYth6Di6lJ5lhENvjmkM4OPZ4YcfPlYP5iMboyDdxwBH1+7OKOijGV1qXGB8QAZ6lqMnGdYY8ehGet982NyWDNHxrq3ec84guvOd73xjXi4dP/LQwY7YMkd//vOfP/IzCjrrj1FQPgtrgoXyXctvzu6IMPN3C3R8EJVmzCDkfQRlLKTnYxSkg+h46ZxreerWRyBYBq88P9SntlEwBkFhjYLrP7+VifVScxsZBbN6Qef2tKc9bawysJrBCghbfk0kdEIOT7VSUMfkMHON1Asu3qQoZwouGwV9UXGugEmCPymxYkFjt+LAFiadJr+8UjAAW5bs3AJfKXSuOt44Lw9etls5d1CHF6NgvraofzBIvoZbh0CNgluHbTkXgVOCwO4GGzUK7hlR+iO6xsTAVlpnBRr0O/jbdl0OnckDnZR7EwqGQbrSmYK2DxuAGzzbmmvAbnWdyQedGv2IXlkG7VbaMwpaWWgVoHOOTESsIGCgxJ8+NZlhLDRoJwse5Bbia5tPVvTHKKiMDD7R2upsAmFgz1shIL96WKVvQqHul7nMZcYqQPWN8ZEc9LVJhvqRV93wSJ3f8IY3DFlMEIwryFmj4Ggu++3Hc6xRcL/BWUZFYGUQqFFw/UdFz/D6Rn527ulA+otxzkq7K17xiou3vOUtQ0dJowP5GLnEWW1PR9Kpr3nNa4YhDo1ddNLowNkoOJfpmr6PUdAflZmLz47O1Y8zCirHwh3bgcnJRW7Xjgeh++lZ8thFEL1uOzP+5uB2HfgYCQvHhcxnCvrgKH52yrBa0dzbwhxGQbv3uNCiocvJYA5OBkeLMCaSIc41j75uVwTgEi81z8/1qW0U7ErBXZ/Xysbkxd3IKOiMBEuLGQUdHm759Bvf+MbF5S9/+XEGgfMCHbzqDCUdg4kQw5+OT6NlFNRp5VBxkx6TB0uurSJ0rzNhYDTBYazTcTICbsYo6NxAB6haQeDfirNy0QPxAumklXPve997dMK2D+frjnT1V17dgUGgRsEDg3NLKQKbRSADDSE3DzZqFNwzivCiQ4RWCjinz1YeA2Cr4ujQ4Iom+NI9BvAMb65noyA9aoBt8mBVAd3qLD/bgOk09CYFDvimO20L9oHNGb7+YdBZfc4QsnJAGc7PtXLPagGDc/l5snjuVgX4MxITHqv2HfMxD9rVLzL68xSTEHQmE/7F2NmGtgRZiagcqyS0HXnkVQa9a+uwullBafJANjIyFBpjMEY6M0kdjQXIZ/WgLdgmE10puOf2uCcKz6JGwT2h1PQisPMQqFFw/WeqT1z2oaTD6Fr60L8F01N2M9Kp2Z6LZjk/3U1nWZlnTkw3o/HRkC6nB6VbTLOeY+gxP6ZrH/nIR45de/Rh9L8yyfSCF7xgjDUYGX38o1MjS/haKXjHO95xTR7HlvhgaH7uo5s/A5HfeIXeVo5tyFkpyHhpnp3xQvgqhwzGJwxDd73rXcdHxzmdnMYXPkbiY1xkrs6YKL/64DtjmPwNv49AnqmQC2auT22joBWC8V0p+P1ntpJXXkRuPaOgNAeSWiadFYC2/2T1oEmBrUImGb48HHPMMaOjs1rACgCOQc49oyB6kxJGRf8o6GsB46JVh/61yEGq6SDy78M6EX6jlYI5U9AfjTBQ5hB2ZafDIYPVhDpzRkEGTKsXkm5SVndgEKhR8MDg3FKKwGYR2N1go0bBzaFoIE6n+CJOl9KXBtlW1floxsHZ5IKPnov+lW57EINbdJ4v97Yg26pETwrf9ra3rQ36TUgM2m0fZgi0FVecLU4MhbbzPP3pTx8GIJMAZwr6w453vvOdax/CyMxoF6OgCYxJiD85yaA9cqOj/+0EQMM7LsTKA0ZQ91YrZGKhbuoqv2s63ZEg6uFDockRHEyWGAONEaysdFB72iTdrF7iaxTcXFvcExVsaxTcE0pNLwI7D4EaBff8TOkqXj/JufaByoIThjVGLbvbzFfpfTqMbmSkiaFGXkZBtOamjILmoeKttvevwnQnnbmeURCdI7hiFLRi0D19yFiX+asFNngba9C9PrDZqhtZUtvoUHNwR3n5OOefiYXmxvLT4+59vFM+Po4n8cHOmIRBNB/4wldIlxiHWNyTY0uSjo88diLQ6/g4osSZx/nzFWMP4wQy122MACzjUaWtuT61jYJdKbjxc1u5FB0et55RUEfIAGiCoDPx9d9qBp2Sf/TVkZj8OHOQYdA2IB1T/n1Yo/XV30qHTDZ0hM4u0DH49yah8/50ZlklqOGbjPqDE+WuZxREw1ndoFNjpbZSYXn7sA5JZ45GB8woyHC43JkPZv3ZcgRqFNxyiFtAEdgrBDLQSJ86DzZqFNwclDH0xShItzFiPfjBDx46FLYZUOeaDqJL4c2bZJgs0Hny0qsMeFbhGdTzPrbFkGdQTQ8749eh5ujwyWpBKxF8tDMYt1rxRje60TAK+iAXRybewNwqAx/olE2HMwoqK5Mecs9GQR/ZnDPEkOnfGOVVnu1H9DBZTCwyqTr66KPH+ICx08oFKwwYMU1sHELOAIqHSQ5s5LOFyUqGGgXzxPY99BxrFNx3HMuhCKwaAjUKbu6J0V36SY4eYoyjr6y+p5+tFHTcBv0VupmzPObNjILmvhasMAri4+OflYLmynTtZoyCjIMxCtLVcXS0+bW5rfm47cPm0cvOESZ0aD7c+QDnQ55xCs9w6bgRHzDJrv54v+lNbxpn/ZqDWymYMczM37mG5nXm4MsrBUNHpqwUNC6xw4GhEHZ4KnM9HJO/4fc+KsMoOHlGcONObaNgVgkKu1JwxVtrGtV6RkEv6+c///m1lYI6Jh2aSYKvHb7661x8+be8mfVfB+MLibOQ8DaJMciPUdCXFucrWPKsY7DlSRk6iHz9AKltyg996EPHFmUd5/JKQby9FFYK+oJhQqHjNcHw0kjnXVsmzfCIj84czWyARKezzsu24o90W4tfo+C2fjwV7iBEQL8Xr/rzYKNGwT03CHjxMKQbra73sczkwTk8Plxx9Iz0hLMOovsY7pxZRE8ZhDu820SEZ8ShI/NFHR/5s1LQmYIMhOSgy+hYH8AM/K0QpGfpPvo3K/EiC7kZ4ZwPnNULJhoG+9GLqZs/HmO4POMZzzgmGFb7m0g4xuPII49cmxjY8iuPMQSZfYgzLsiHRGMJKxUYOoUmJIyFMGNIdfyIvLyJ7K1vfeuBS7cP77k97onCc6lRcE8oNb0I7DwEahRc/5nqE/m4zB3newZAhjGGtatf/epDd9GbdBS9G4cPw50z+GMUdDafPx9BZ1cdvbk3RkELcnw0JJfyOCHDHd1pzICfsYZxAUcONEKLdnKmoIU4Vvubi9n2KzSPZrTM+EI+H/SMG5xZrB4+ACp/dnj7OGnuTTc78sRYQLyxQ3DEy4c/ctLxbAV0UNIjr3x83a4IBJvgoy3leWwXo6AVgzUK7vrsViJGw0qj0rB0JgxnOjwvrokNJ3RukMmCgbyVgui90P5N6OIXv/igN/EwKfAVwJYpW4OUYcKgc7RkWWeAh3MMxJsomPDoiCIPmXRIGrl/OTT5II+vDDEaojWh4S139q+FDlc/7rjjBj/y8eiEVi3EKGhVhZWDypTGhZ+wbmsRqFFwa/Et9yKwtwjo9+LljV5wXaPg7tGEW3QJ3OgkK/UYsZzrZ9uvP9oyeUAbGnnExRlA+ziWg8UZBed/Hw4dnZXnI4/+1PZhZ+4xCkrnTSB8tKNzfbjz52C2Ezvzz8o7LrIIl42CPuQxCtLFceh8FKTfTRLoZVuVlUePM/DZQuRcQnqefpeH3jaOeNjDHjb0ubxwufnNbz7ktsqRAZPBUL3VxcoGZZtckZfc0kw8TEJST6EyYFu3OQRgVaPg5rAqVRHYSQjUKLj+09Qnzjpkvk4OusZxHHSQFVE+nNF79BQfPWQMwPBnoYzV9FbhMYjpc/FlHKQ3zZVjIJNHmjKEPEOdPwejZx2v4UOZ9OhkefBkkEPDKGilIJ0ZPnSvcYL5syO66F7jgU996lNDDnNx8mQOrq7y8uIsFvLnnPIxiDI4pp5oyZmdCVb5P+ABD1g4qkR8MMHLjggfCskJE0ZBBk28OHWZ+Y7I/pwMgbQLIQcv2HLbxSjYlYLjcazmj8bkpdXANC7/CshwppMy+HaguXiDeWcK6sBMWDQ+eXQ2XmpfD6wCtFLPPzKhszTaSkL5rRScjYI6tzRu5aczgGL46sR0Vv59UWdEHpMfnVfo5GXc8ycoJhP+7TDnKagbj5+QnLYP65B0cFYKKnd2aOu2HoEaBbce45ZQBPYGgfTH6QPnwUaNgrtHEmb0FX0Ub6Bu0OurKf1lyxEjnYFxaAzcnd1jAG2gTR/RtYxpdLABvn83RE+HccLkF1q5YKXgNa5xjfHvw9kW7PllFSGdbGWAfwRmpGRw88cg0Y/Rv3h51j7+0ZOMgtneEwTUlf5nFCQj7x+E8ZKfse4Od7jDWJ3I0KectCX/KuzDodWADjW3zciqAv6II44YZw3beuxcI4bFo446akxuMpnI9mEfIU1CbNNWJmOmVQjwUFbacGRuuCsCMKpRcFdcGlMEdjoCNQru2xPOByq69Ba3uMWYJ9NFdI/YGlCAAAAgAElEQVQ5Me9jGn3n3EGGMqH5cAxv9KSjPhjnGMjMqy2SiQ6jT/EwhpBu/suIaN6aMYBaoKcffXSks+1OsKPO2CK6kH5XrpWCjIL4WaDjXP09OXXxEZDeNo7xodOHS+MdcihDWQyReBqzGBvk/wTwR4PWMSA+9OFjvu6orxhU0WUMRTehr9sVAdjESw22rmsUrAFn1xazlzF5+byAPIMaA59Ow2DflwSdiYmKLU1WEBqo+/vyNEydkqXCOr287LYP+4KikXrRdT7+aIThEN8YBTVoA3ohhyd+OjE+HauOE28dmpUQViDGv/Wtbx1nKZnIWHVg4oWn+uSFwVfH6d+Hda5WCjISKiP1SPl7CWHJTwECNQqeAtCapQhsIQLpB4Vc+k7XNQpuDvgMalEzVtGfzvDzkcyffjCy+VpPR9FfjIH0l+3FBtEwN+C2oo+uZRyzxcg5Qs7xk8e1D2MG4sowGWGUs73H9mEr9eZnSVfnT0Hodd4WIqsW6L8MvoV0ve3LMQrS2Yxt4aderslgEoOXwX2MgtLwsR3pKle5yuLwww8fdcGXrPe6171GvchqBYR6+KiX0KTIOYP+udgEx5jCESTGBCZiJiRwwde9yQ+M4006PIOMJzb31A5OKs+qRsGD89m31gc3AjUK7tvzd0Y+wxejIF1pPksX0dEMf3Q4/WbxCf3og53FLbMupauswLMFmSHPRzI73uzCo+etCPSBz3ycoe2CF7zgMOrhMTu60Yc7KwXpRnNlsvggqI/nouOzfRidlYsW3ezJGSPQwcYM6usPR+zeI6e6Ci0mcnaielhB6Ugw8+s45fPGLMY/xkNkQGdennk4vU1moXrV7YoAfOKlwirPt0bBGgV3bTF7GePF03nwGhajoLP5GOAY8Hwh4Lz8jIFeZEun3cvrZTYI5+93v/uNfGh8GZmXOjunwL1OhVEOj3QEvkSkUeNpkpPOTKjTMUmyHUnnqEPR+eRwVJ2ujtmqBKsqMiHAn48z+dDBks+kI2cKZiKnrORNnoZbg0CNgluDa7kWgVOKQAYa6XvnwUaNgntGFW70KH0SB0OTAfqGTqSzrHLLtdV7zvtjXPv0pz89dGpW4dGTDGN0Jt1nsC8/3WfVvvN26Tf68+1vf/va9mFnBYqnS6WRxxEfysLPURzOFGQ8nB2jndULJhRojQGcU5SjPfChp3mTH5MAupScBvf0tnLh4FzCO93pTqNuJjvGEfR4/rXRvx+b3MCHwdBkAXZkpqetIISJbVNwUY8YBZWnXLjBwniAv+xlLzs+QuJXt2cEPKcaBfeMUymKwE5DoEbBfXuidCADG31GF9GpdBC9SbfT2e6l+QCWP++g7/S78rumW63wY2gzjzW/NZel5+n78HOshrOFnYsfHSwML/248/npRnzIxlCojNkZB1jFb2GOcYhdCptx9PLb3va2xe1vf/tRN/UlW+bh6uqaQdDiIR8WycbHGRswADIKkpNXJ3qffleGMYiwbmMEgmuw9Yy1Ba5GwanBbQxhUzZCQGPyogp5jSwrBW3vsVzYFwsvqQE9o6DOgEHPpAC9xmiyYCAeg6KXXafmy0WWEOt8LINmaLSC4I1vfONaQ07jxkvnYJWfONfk02lo7Do95xnozNKpmOT4GsNoSNHl6wSZMkHBl3w6VCsFTXYctm71Ijp1V0d0kWUjzBq/fxCoUXD/4FguRWB/IaDvi8dTv6hP5GoU3BzKwUwY45Sv8QxaVtbRqQbt9JYJw6UudanFAx/4wLUBP/ydQ/SSl7xk0DGM0VdCPnpPHqvj6C360UHg9KDttfkDEbzoQHLgyXBnwqJsX/1NHOhY3nPmGfY8a5Ma5fqQR6dKU1bqR/8bB6iDVRC2BOGjLLQMfnYKOL/QhMe/FzJc2hpsZYR/WqR7yYgvOYXhYXWkcYIzB+kKMjjKxEpDYxDymdjAQ31427TJFdw398QOXirY1yh48D7/1vzgRaBGwX1/9oxun/nMZ8Y810eu85///ENnRrcLna9P71lEQy/Rn9F1+l/6zhzbfNjc1Ictxja6jW51hIZ4uwmciZ+8dCU9G+djnvkx45zxBR2uPGWgi161O8ARWnSlXXUWxmzW0cE+JD7+8Y8fqxozNqGPrTp03u/RRx89dhX6yJcxAxk4slsdaVchvU1Of4QmDg0Pn4RkrtsVgWAl5DImc12jYI2Cu7aYvYjx0qZBsdC7N4ExWXB2gYmMjk+8Lxq+/hus63Dce2nlE3rhdTCWEXvR/cuSDhOdMkw2/GPhscceOzo4jRffdHKu0xno8Dj5YtxThuXUOhTnJ9nWZNLB8EjB2d6sY4xDj09eIOUwNvpKYYn28ccfPyYu4kJHhlyHT8OtQaBGwa3BtVyLwClFIH3leoONGgU3j2r0CJ1Dh/H0oC3DdCpDG6OfFYTOHPrkJz85ts9GBzOo0Wc+oukn44855pihWxn3fICz5RZv5dCNJg62GzEA0mP4mRhIp39tAaI76T+D+2xXxiP6Eq2VevQ3PU6Hy0sPqxef+kgjmzrZ9qss5aLhrBbwJym8utsqbYLkjEHyRnZh2p78vLECWsZEfBg+YWh8QX4YkI8ng9AfjBmvqEPa8Oaf2sFHCaMaBQ++594aF4EaBfetDWTOS8fSq/Qp3Uqvm5vy9BQdyZiHjl7T59J30ZFCupUu95GPrpTXKnxzW/ef+MQnxvm5kVgevOg5vHj60Yp6x3bQ3cpMeSnTPZ1vtaBxh4+H5r+bceHFMGhrNB3+4he/eMzBrXRkLzAmgQWeZCQXGee6GiMYn9DXPgziJQ6tMoTkTf7NyHaw0cAnXt1hFoxrFKxRcJ/eBw0pPi9yOpA0NOl5WcWZICTOy5zOTpx7Hr17HUImG2nE4nVg6JIn9GjipLnHQ6epbM4XCEuQDf6dN+g6+dGEh2t5+cRLc536uCdH0pMnPCJLw/2PgImcVSMw52A+4z5f7//Sy7EIFIFlBPIO5t3zbuqHuRoFl9Ha9R5WPNx4OAqjb6TRRz5e0aP0IE+HRlfNukxaeArn55JnFf7u6bIY7+hd+YWhkZZ0ccrEl3Ot7PDNvXTxeHPS3Sc9eaTz0sNT2eqmTC51TR50+JDFNS+/e3lTn8iUUBr9n7KSL3zll1a3ewRgVKPg7jFqahHYiQjUKLhvT5VOo7v0ocLoPx/0fLxiPJv1mmt5Zr1Eb9FZcdLoSwY9C2zouOhv/KMXwzc62L28aOlYzn18+EfHkkM5m3X4kDOyKI+9wAo/u+/Mw8kXh55sfGQVx811JsPMUxmhj04Pz4bfRyDPNZgGMxQ1Cnbg9/2WcgquNKYMpNPQvIzic+/FzsubIqTJx3Pu00GlwwnfpKdDmu+VI5/8swu/NHa88OV0PjqS5AlffNLBJE3cTJ+ORnp4h1Za6jPL0uutQaBGwa3BtVyLwClFQF8Yj0f6SNc1Cu4eVbjRN3z0jJCjl+ivWb+4Dp0888c299FLy3zxE5e8npEBeuilS4uOFI8GT6F46by4yJQ49OElTp7c4x25xRsXKNs1Ly35E9K/Jg+RG72Ji7Ijo3KCkevkFaeM8BdKV07i0aTcpM/yjoL7sy4CcKpRcF1oGlkEdjQCNQru2+ONjqKPoq/F0UF0PT0XXRX9RReiiY4TP8clnmTo6LXoNGl0XXTnRtKH/8wrtOQUHzdfJ253oTqpm3zkUlbGEK55Tlzm3eG3LE/KTn504RG8QhMeDb+HQHAK3mkjUreDUdCW90tc4hKLQ7bigTn37XWve91aY8ngbxmUrSj7YOHpxcuLmcYlFCeENZr5BfUcMhgXr6MwSDf413HII38aLSzx0qElDZ2OY3YpK88ZfQb/oUOjbN51aKXnnjyu45JHeeQILR7u1UGYtORruHUI1Ci4ddiWcxE4JQjoJ+PlT9/oukbB3SMKt1nnwW5Zv80cGAHpHw5t/nRj1rV40m/0Gd5xrjNARzPrLfmlRz+6Jgd6ZaLnpM/yKZ++XY7HG4/IRR7XnJB+jnyJD/9ZLnHJSw4rKZQ/y4MXF5mFcdHzkU9Z+CSeDOoQfsnXcGMEYFWj4Mb4NKUI7FQEahTctydLdy3PM+m76Dh9a3TTckl0mLTZ4ZU4edEkpBdnXSh+2YcXGejB5Xlz0hPSn7P+Tfxmw8hGLrLz0ff4pi7hpzx5ONfGI6EXJw0vcTNt8jf8PgLzsxcbzFyf2kbBGARrFPz+81qpK41Lg0rnJcwLKfSS5kUOrZdfhyWfOHkscxamccqbDifxyZ8y0KQsHZh4Tpwy0IcG38Shcc+HPp2sPPHhjUZcZP5/9u4EXL9rvhd4OlFutS7qmqooMVQpJahZxFBDqKCmVG/dVtFW1VU1a6+52npEIsYSIlHzGFQrPOahuOah6laEiMyJ4N5n3+ez+Z7uvDn/k3PO//zPed/3fNfz7HfvvfYav2vv9fut7/qt9aaM8U/4nMdE+7PPESgpuM8hbgZFYEMIpA905qZ9ZUnBC4YSXrAjeyL3IkPJHwfnubDxS9jILPcJKz1h0xYJkzSSp3DyEi95ygtxRgFPeOeESbrCxS/ln6bLb3qkDuJIz5Hnrjn30lCWHHnmzM+ZXE/9nd3zd0gjYeInzTwTXpjkN40/evZnTQRgV1JwTYj6sAgsJQIlBfeuWcmgyM+pPJrKzcg4coms5Kbyy70+mHwWxjNxMtaNTI7s80x4zxMmcYRJelM//tJO3GmYxBkjrvEjT2k4O6SvbM4pm7NnXPzFwQNwnk3DuJ5aPXo+m4cy150fAVjl8DR4u95pUhAZGGKwloLnb7uF8Jm+XNOPVuHdT10+XC+h64QJAZiwniWMNKbpzOYhrI8/YRI3aTnzS4eRe35x048iftPnrqfpT58lfM/bi0BJwe3Fu7ntbgT0kfrp2X5QX5i+2nUOaE371ZKCF/z+RK4EQ+fIO1g6uITzbIrxrH9ynKaXMEln2p7JI37CUN7Jzjjxk2fS9SzlTLhpGvGbnpPO1M/1auVLfrNh3edZyjIta9KLX8IknWleCSu9Wf+E7/m8CMCppOB5MeldEZhXBNKvOeufZ/voPF9P+UsKrgeltcPAO4eQq8nQtBW5lDDTVD0PYedauIR1ThvnmTN5OJWJwvGfOvc5pJE0hYn/NPwFXU/rlvRm80wa8Rcu5VwtX/Welkv4OGlM7+Pf83+2X3Cevic7TQqGEHQuKdi3tQgUgXUjUFJw3VA1YBHYKwQoDxSwkIKULX45olTm3pmbKhslBfeqCRq5CMwdAr7zkoJz1ywtUBFYFYHIZWcyPKRJrvN81cgzniUFZwDpbRFYEAR85zkUeaqn7zQpWEvBBXmJWswiMG8IlBSctxZpeZYVAUrDdMY2M7QUC8/iomg4c1Nlo6RgUOq5CCwHAr7zkoLL0ZatxfIjMJXPrkMGxnJsKq8vCI2SgheEUJ8XgflEYNoPKOH0u99pUpCFYI5aCs7n+9NSFYG5RKCk4Fw2Swu1hAgYPEzJv/yhhKWlZ5xxxorFwVrKRknBJXwxWqVdjYDvvaTgrn4FWvkFQcC3ajIPAUiWx/I/e8upRvzWU6WSgutBqWGKwPwhsJaevtOkYC0F5+99aYmKwEIgUFJwIZqphVwCBAwiQgrGuiCKhXvOc9fxn/q5Lik4wtSfIrA0CPjWSwouTXO2IkuOQGRzzuT1dAVAyML1wFBScD0oNUwRmD8E8v07c9HdXe80KRgrwe4pOH/vTUtUBOYagZKCc908LdwSITBVIgwiDCbsL+iImy4pXk3ZKCkYpHouAsuBgO+8pOBytGVrsTsQQABEPqsxWc5aMPLb/XpcScH1oNQwRWD+EJjq80o3T6RgLQXn731piYrAQiBQUnAhmqmFXBIEDBamAweE4DnnnDMOMDwLWRiFQ7WnykZJwSV5EVqNIvBjBEoK9lUoAouBgG+VPI5MzrXS2waEbF8vIShOScHFaPeWsgjMIhAd3ZlLn+C6loI/BmUWtN4XgSIw3wiUFJzv9mnplgsBpN/ZZ589VsoAIiQghSL/SryWslFScLneh9amCPjeaynY96AIzD8CvlVy2xn5hwhkIRjHr6Rg0Oi5CCwvAmvp6TtNCtZScHnfu9asCOxTBEoK7lN4m3gROA8CIQUpFCeccMJw6qmnjoMIAwl/NoIcXEvZKCl4Hjh7UwQWHgHfe0nBhW/GVmAXIOBbnZJ+5HVIQtdnnnnmaPm/XihqKbhepBquCMwXAmvp6TtNCnZPwfl6V1qaIrAwCJQUXJimakGXAAGKBOsChOAf/uEfDk984hOHj3zkIysWg6q4lrJRUnAJXoJWoQhMEPC9lxScANLLIjCnCCAEWQaa3EMCundtcu/1r3/98IpXvGL413/913WXvqTguqFqwCIwVwispafPCynIYnC/fYHaAQccMBxxxBErgxWd4BQQ13XnR4DAiOVHngY39649j3Bxb8A49Uu4xJ/eJ235mK0irKTh3uE6bTWN7zplSzhpJW3xcj1eDMOYjjxWc8JP6+BaPZLONA6/hE/5nXOkPM5TJ4665HmerZZHnu32czDTbvCddZ6HFMxsJz/XljIGW3Fn22M2rd4XgSJwwQjk+/r6178+3PzmNx+ufvWrD4cccsjw9Kc/fXjb2942nHbaaWMiwuX78z2m73v/+98/XPjCFx4+85nPXHBmCxRC/xIZMFtsOORZMBHGNWzIvfRR5M7UJW784OiI8zyHNOKm+aVvTBmdpSGe82w8/pxz4roXLnlLwyGMs3InLL8c/KITxE99xZmW0XXSS5qpS+J5nnInzyleCZd40oxf4ibvhOEfv4TNs5wT133COEuf89x9nqcuU3/PUp4x4BL8aNu0xymnnDL8yq/8yvDqV796pW3Vv64IFIH5QSD9lr7It+sbdZx++unDk5/85OEOd7jD8Nu//dvDM57xjOHDH/7wuFVI+rzp9yyuNHzvvnuTAgmXvlCtp9fzg8J8lQRGaY/VSjYrN4SPzBJeu+iLuaTFz3XaybUj/rmPX9JxL7+kx9+9eA75CsNJ2z1HDnvOz3XCjA8n5Yp/0svznJO/e9c5Ej7Plalu7xAIts5c2tn1vJCC/ffhvWvjLY+92geYF0lmrvOxpoOIougFc/DnlxdPPHH4eZ70Ej8v5jTdbGY/7ag8n4ZNR5R4Sde962k5XPObhtW5JT3nlHm2nEk36TkLnyP5uU9dkw8/14krbfd150cAzvDSrsEp2Acz9yEFhXUPW+9LhJd7hziJ3/N/CttiUSw28g74jnxb//Ef/zHc4AY3GH7iJ35iuNjFLjZc4xrXGO5+97sPf/u3fzv8y7/8y/DNb35z/N582fkGfaNIwf/yX/7L8OlPf3rl+fm//sXzgaH6OeL4cdNn6Yfir2+DZw73aQ9hhNcHTvs399N+MWklbWGlA3dpOfObxsmz+AknfvJJmgmXsuS5eK4TR345Ekaaq/mJm3J5njRSfs+kkYkd9w7PlQdWSdc5bpoOv5RvGlfewUN4RzBImuJNXfLlJy3xhU09PecflzSFS9zkOQ2X8It4Vi8YpI4nn3zyYFb/2GOPHevsuaOuCBSB+UFA/zPbd+vHkIKPeMQjhite8YrDRS5ykXGy7/d+7/eGv//7vx/e/e53j/Let86lDxTP915ScO/aF56wdMRN5USeRT7NtqF2IRP5Jy19r2vP0kenz84zZ8+SrzRcJ5zraXr8vTuJ59rBpWzS4CeecCl7roXzLOl6rgwJn/KkzAkrviPxXNftHQLB1plL27suKThR6PYO5uWL7YXJRzutXV6k+PnYzzrrrPF2+vGG0EsHI4BrQigf/moffNKQj30umLfb4H7q75mDXzqrpJVw6WRSXv7SUYYcnunMEjf+yqr86uYZ/zhx+E87Y89SnuQnTuqZuMrqHzulPU0zz3s+P3EME20w257Pfe5zR4ulCKIIJeHTrjBOu6SNe/6RkC0OxWG970C+IX3X//k//2e44Q1vOPzUT/3UymEw8d/+238b7nGPewxHHnnk8IlPfGJcZjztm5GCSMRPfvKT4/e8bH0djIJTrp3jgnXC8Oen3yIPch+Z4Rn8yJr0Y67JROGTnnPiCp/4yVsc4dNPJq30p+ILk/Cee8bFzzlH2jThkj9/B//4pVzuE9914so3YZKXZ/aoFC5HntEzEodfnjsrs2fi5+AvXO6FSTk948SBz1R+JN3kMQb8sVVE5H7SdE75hPONBNtpXtMwSW8Rz+oW7JxPOumk4WpXu9pwzDHHjDinns49ikHfgfl4B/RT6Zu0iW9X32d89ed//ufDL//yLw/77bffONn3kz/5k8OlLnWpcSXAC1/4wlFmn3jiiecZK5UU3LreO9+INsm1M6e/zZjRvXbUbg7PnNOeiSsMl/Tck0XuxYmsc8+Rf9JJ+IRNegknHXGFnbqUL+HFTzhxHcKkXM6RuamDOClbypG4wift+E3z7/XGEAiWzhx84cqVFJwo7SMi/VlBwEviI82L44Hr6Yetc/AxO1z78F0L4x4Jp3OQTtIzsxx/4Q1ycu+c68STp/jCOqSbF3haJn7COpK3jicdCj9L3PglvrBJg59nwkzrpBzyTfrCK49y8k9Y1wYtuRdG3g5xHSlL8hwz7895ENAmsJo6WGqHaXsdfvjhwy1vecvhG9/4xso7po1zBPue/3OQXCyKxWbeAd+Ufk2f96UvfWm48Y1vPFr9XfSiFx1+9md/drjEJS4x/PRP//Q4qPi5n/u50ZLw7/7u7wZLjfWpvt9l31NQnwWj9Ps5T/sx1/qw1Y48Q4jBLC79obO20w/GCUfueDZ1yiJ/Ttu5jvzRhtKJS5opk+dZCu5Z8k0aycu9vJUhcZWNDEyZggl/abl3LW7iK0f8Uqac4Sn9aXnzTFqeieuaE0756RTS55zdx0941yn3GOjH7ZJ0hJE37BIudRTetWfSmRKVnvGfLS+/pJ38FvWc9lcf2Fo++Ou//usjKajd1VUYGPQoBn0H5uMdSP/jnG9YH0Te/Omf/unwS7/0S6P8RgwiBcl1lv3Iwrve9a7D85///OHf//3fx/5V33j00UfXUnALO3H9pv4030vk17StXJNvZNLs88hQ6ZBJUyde2l97k+/6ai7pR+bFT/rp4z1LuKTlHD/5KVPiRtYmrDp5Lj2H90cYz/krs0PZ5MvfWTh5S39aFn51m0cAvjmkon3gy80DKcgCucuHN9+++yymlyYvSjLh5wXizBy9853vHF784hcPL33pS4eXv/zlA+utt7zlLeOeFPalMAvl485Hn/jS9aF/7GMfG172speNCuULXvCCwfEP//APY5rPfvazh/e85z2j0kkYSVc+b3jDG0YrlHSeKZt8+CnXG9/4xrE8H/3oR8eZbERk8jLDZWC7Wuf5rW99a3jXu941mB077LDDhqOOOmp461vfOnzwgx8cySdllodO1aa86v6qV71qLPfznve80UpGXDjAxqb86syJ59ohbxaTs/imLrv9HJxglndH+3Iw055/9Vd/NVznOtcZlyx+6lOfGo4//vjhHe94x3hmqaS9WSchI7Rfj2LQd2Bz78CHPvSh8Xty1ide+9rXHn7mZ35mtCqwjBgh6HzhC194HEwYUFz2spcdbnGLW4z7FemHl3FPQX1S+ndnfVPuPaPUTh0//ZkwIa9mw5AxUXqlJ9x0IJB8pCuu8A7pTvNPOZyn1+IIN3V5nrz0u6kbpT1x5CGM+6k8kxaF3kBjWgbhk4483E/jJd9petP4njv4CeM6uE7TlX/CTc+5Ft8hb0eulUeYqUtY/okvjvzVDx7JO2E9n9Yt4ZKu9hRm0R088q55D+h3jqte9arjHmPquAz1XPR2avmLwCwCvl39VowePNd/IfX/7M/+bCT4ItOnFoP8TPRd/vKXH25961sPxjlf/vKXu6fgLMAbvNdPwj/OdWSOZ2RG+tvoA2nDhCWTtCf/pJfrabraPf2yuInPT/89jZt40uGSHpkWv8jChE2aCU8W8pu6xOUnv+gV5EjksDieqW9krHhJS76OaVrTPHq9PgTglyPtEYzngRTMPxD3j0bW157bGiofXzoNmfPzAvnnyT/5kz8Zrn/96w/Xu971xrNrm9AfdNBB48a1973vfUfhYR8qaTjikDaPfvSjx3iWo133utcdD/tVuXd+znOeM/zbv/3bKIRcS/9GN7rRuLG9mQadSZzOQgdjHwz5/8Zv/MY4m4WY++pXvzoSdze72c2G3/zN3xxJSJ2Ojo6j6PoHLv+qeatb3Wqc+TbwlZ/wBx988FgWpKH6f+1rXxtYqslDOR2uHbBwqBsSImVMJyc/+LVzS8ud/wzjvC+wcuRdNPj83Oc+NzzykY8clzjc9ra3Hdvb+Ta3uc14HHjggcPtbne7YeqXZz3/CKPiUBw28g5MvymWgZYPsyjIAAIRiBREEHqGJGRpgDD47//9vw9PeMITxufLtKegPir9krN+iqNof/zjHx8np9785jePE0smiRCj+q5vf/vbY/9PNjik40zW/fM///Nw3HHHDW9/+9uH173udeMkGFkrngkv+VCo0y+SK+KmjxRGeJNor33ta0e55vp973vfKAcTTrypkk0WRhknR7/whS+slIFsNOFiIsyz9M2uWYMqrzCpq4k7ZXf/gQ98YMXCRN8tLnmrrsrkXyxNvNmP0tJy2MQpo0EP+f3e9753rI+6wNK9NNRdue1laTLIpJ60yGp5eUYHkJd8TB6JBwfp51AXcl25td13vvOdlXr6Mw1YSYu/tlAvmGgnf7TjMAGlrNkiJe+EcuQ9Sd0W9QwvupfDe2j5sD0F6X2/8zu/M9zrXvca7n3ve/coBn0H5vAduOc97znc5z73GQ/js9/93d8d9wVG/EWeR6aT40hBB7lu+w9WwfYQpg90T8HN9+KR30khclm/+vnPf36U+29605tWdIh/+qd/Gidmv/jFL459LlkkDrkUWeZMjn3lK18ZZRN5J/b0Z9YAACAASURBVA3yODKZvCWnrLAiWxlUkGPkJmMZsmp2bJp0yUWynsEPOcifbCVT5WVMz0Xu5axMZK58ohdIhxyXDhlOlpCbZK0xPDkvTeHpMf7YhkGPZ8pet3kEtEsOqWhzbcnNAylYS8HNt+0+izl9YWSik6AMcp55iVjjId8Ikl/4hV8YhQylkEL4W7/1W6MVl4Eicob1HGU5gxfpUKYJF/HtSXWnO91pIKTud7/7jQdh9YpXvGLc6JaCb68qQorAMltl8KAcccqng5GXwaiw9rnR8elkDUoJPsLN0jYfgfKomw6KoLQvlr00lOVBD3rQ8D/+x/8YFV31vMlNbjJ2mvIzsLUPR8rjWRRi6bhmaegDUy6Y6cQd8px+hCl/z/+JQN4x51lnQOldQrpa2vAXf/EX4/GYxzxmeOxjHzv85V/+5dg2COv/+T//5xguYXr+EVbFoThs9B141KMeNX5Xf/zHfzwuNUIAGixkAHGhC11oJP34ZXDBusAki2/yKU95ytKRgtP+ybW+3oHc8q/Mll2RJXe5y11GWffABz5wePjDHz48/vGPHyj5FGDhyQSkHIWX1YaB293udrcxrvh/8Ad/MMD9r//6r0fFmvI8K/uQM9J82tOeNg70xCN7kz+ZpI9EOgobWSRvzr2+1SDhRS960TjhZzKMjM75j/7oj0breEq5/GOVT+YL41BX8v/2t7/9+G+W5K48Kf3qKC65rn8mK4VXV3Umc21wb2BEPrNiMTCAyf3vf/8xTeGFfcADHjD278hAZfev1v58SnkRU0hAdaMTGBDRJ8SlY8gj+oN6OOQFP2HoB2S3+MqhPNoKGchS9sEPfvCooyi3NlZv/9ypjOplsCM99Y38n5Vji3qf98QZNnBECvrODz300BEDZziHfOj5RyRMcSgOO/UOZGylH/RHIsZZ+m3fKgOIn//5n1+R2yb0jMlCBhozRaZf7nKXG/tI/WRJwc334vSFqf5ABpEVrDCNYcmUyG5YH3LIIcPv//7vDw996EPHcQ5yzwo6Tj+cA0ln9Zr9ncUjn6KHkMl3vOMdhyc+8YnjpBaZZgLN++BdkC/dIkSjMknXWVh6nHSt4iPHyQBkojIpLx2PzEzdkIGIRoSeP7MRRhnufOc7j+mQl8bJn/3sZ8e0rAAzcUrfSdlh4J+x6TLiSQd3ULd5BNI+ef/SzlKcB1KQpaC+pZaCm2/jLY+ZlyYJ+/h1WJxnXiKK/U1vetPRIsRG06wILC9zUOR1PPvvv/9g3yl7v1kWbNAhrjQQcRRpAgepSHE3IDHbz9LBrENm3Q0ozDIQSASVzomCHpeX2yzK4x73uHHw6V8xzeZ7JqxBMLKQcPNPmZzOTx4sWQxgLXkzoFA2HS4LR+Wwn4Y66LA5MyYGSBkQP+lJTxo7M/l5ZibFzAjLCJ2qMsAw1hg6TjjUnR8BWEXA5Wn83HtmkGbQzfJTG3oOT++oMz+DMph71qMY9B3Yu3fAd+W705ey1tavIwb1gSZHDCQQgyZeLnOZywwHHHDA8LCHPWxUCCmGCBfhKR3L4mbfKf2Pvof8Q07Bg7yCF4tzk0fkEuwo4UhAyjZ5QFYgnFinw4ksYo3BAkv8yCdKebbm0CYOxBeLALLLAO/qV7/6aG1v+TayhuW69C596UuPYYRF5ih/+lRlR2YiLH/1V391LOO1rnWtccmYcij7r/3ar43ps9LTD7NIMBC4+MUvPtbVJE2s/FnP65+RmWS3vJQVNiy4vSfKacCijPCxWsAgQH3gSJdAFBqwXvOa1xzDwEN4ugf9wvuonxc2MjkTgnBl/fe//tf/GnUM76o2Ed/7aNASDOBBp6EjGJQYnIgfx7qCzGFdq/2UBybB2Nl2Ft79pz71qaNe4XuBqwNei+5gpU7BRZ20FVIQkYqYdWgTulyPYtB3YL7eAfLX92m8ZiWTyROkkL7bWIwcN0ZiFeje4Zr8IUf0xyzATRyVFNx8j64vzSEVslG/qk2QbHQAbUHGkal0AHs52/uR7LSU27g0E3TS0h8zgCHDxScHrdQgp6ThcM2ghQync9iiSxgGPMbBsaJXHjKY7CJf6XDks3APechDRkt843nvAb2AnoP0M1ZXDvGVxVZayqo8yB71ICvVha7jncINCE8Xkp7yeAfpK8JHp6BPKCNjn7rNI5D3zpmDffSTeSAFaym4+bbdtpg6BZ0DlxcppKCPV2chTJ4LwxrBLMCVrnSlUbCYmfLPlXGUcrMfFHVKNkGlU9Sp6IzipOuesmlm4ZKXvORoiWBgk7I4O5gcm2GgmD/zmc8c8/PCe9FZurAC1DlRYIU3M/GSl7xkFG46NQM1naL8HOIaOLBUZBURZRhxabCj0xbvla985UpHmHKLjwR0rts4AmlbMbVDsE9K3i3CJs77CetpOB1dOruE67kIFIGNIeD7yzeoL0T46fdz6L+RLQgVSqyBg8kUfWdc9hQ0SJx+23m+iGd9i34HNlOH+DKrTbb94i/+4jgAM6HEgoxCDi9El+0qDAI4S45NVlGIYEkWwdrElEEYSw9pWbpNMTaoIxsp5tJgCfhf/+t/HSevzOSbWEN0Ie7IRW3iuUGetAwG9ZfawpksNJgwwSeMQSBlHQEpDfk961nPGq54xSuO9RCP0s8aO1YmSGDkGdnu7BCP9YJ+mRWCCT3vCJ1BOfmx9oOPpUKs+KStXkg45JsB6zOe8YxxSbNBEBnN+pDVpeXLBhPukXkwd0iLM7knHcQlWa1uSCyW5vSRyAtY299YXch29fZMWegkNuPXNiYwDWTsJ0xnEQ/OBk2WN1ldYH9ldRaXE3/2HRkfLOiPeuXdz/Jh1iC+hehvngvXoxj0HZifdyBjkujF+lnWV/p1JJI+MpN8rk0mmYDRJ+rXySnO915ScPMdePrPWblA7kSOGV+SuYxNTHrBn/5AfiIGbVdlWy2r4ZIOmcQAhg5Bz9C2ZCMSUBomIo1f9dveBeNqsphcROoJE6c/d2hzOs0VrnCFUT6y/qcz6Ovt828yjMy1QiDlUCZja5N93ie6hwlE+h/ZSGeh71iOTg9QFoYcVgEiBZVferblUGa6EwtBWIhft3kEpv2xVLRZ+oOdJgVDCPaPRjbfvvssphcnLwrlOC9OlGhCgfWcjotlgY9aB5LOziwEZV+HIwyzYR+3dDkDHQMnHYbBjs4ieUgnAxbpGvwg5SwhRuxR8J/85CePA4cAII7lVTpLFoXyMovN3/5IlpYyiVcWhCF/A64MtlggUPQJSXkqizCpu3uHcimrwY2OUPmRgsKGGFUmOIjrSJ35pY4pd8/nRwBeU9yE4Adj+HmG2DVzxM+R927aBsJ5VlcEisDeIeD70i8iUsze6vdCCupXKYZIJUQQhZPCmO/St4sUNMtMCV0mB5f076mXCSvLdOBDkUZc6Yvghyw1005OIaAoxBwl2kQHhV88pGD6L+QqazuTYqw2EFOUd/mydCfPzKpT7JFdCDb9oL5SXNZdLAKQiQZ6FC6DiUzSkWm2A7FER7nIbHsEIgql47myu8+Agh+y0HJlcaTrWjiH9pev6/TZ9AFyVlj6gHdFmORBZ0CwKbMDkWlwwLoSySf/4Gig4j7vGBI0loIhBYX1vlk2bXBLX/GeGixRPukgCEVpwAIpiICUr7LBV5nkjQj3/lrKZECjvWDgUH4H3UH5EYXS5cet9o6MDxbwByZpL9fq6X0KKQgP/nVFoAjMHwK+zemhz7I/t37P2CgH4wl9nr7TWCokkr7MwVqrpODeta92gOXUIb3Iae1A9pHLkYdkKfnin59Z72sjstryW884W1shcOkCnttSg4w1+abfFk4fTeY5+BkbWxVgPGUJMXnNpZ83sWYFnolCk4+WDCs32chaEbEnP1b+ZK56+XM5S9VNFLNuRB7Sg9SFbiBtMtTYXJ3kSW7Sh+hA0mNIFB1CuRM35RsL2Z8NIzD9/kWGZ97DnSYF6RIhBrt8eMNNu+8ipLNynr408ednVpwZsI+XGbAP3MuVMOl0zJxHITfQSBgdi6VQBkBmEWwmyqqAEh/z9nRizjoEsygIP3mysshyXmkiAFkOGHBYlmTAIp5nOk0WDSEFdTyeGaCZITNIQA4Sfjo1cdJxunakXq4NjFgO6Ljlh4w0KOEvXx0zZVlaOsB8cNKAC/+6tREIZtNQ8Es7GNQSYtpD2PgnXu6d64pAEdg8Ar6x9OeIGEs/9H0maCinZo5Zo+mPKXG+Ocf024yl4LKRgqlr0HWPFDTLDSOyz+QTB0NKsH9OR+55bvZcHPKTgk128UcKwo8y70zJtpcd2ee5wQMZxeLP/nr8tQWii6yUV/J0TeE26SUccstgT1k4CreBAfKNpaA9/Cjq4qV+OZObkZEISUtzKf4GMH/zN3+zEl4/nH5ZHupARlsKROazPjG4YR3gnZGm8M6RvfZgRPBRFGETi0NpOeKUE1FHJ4CNA5EnDAs+dWNhScYbMFk+DH940jXkCx8DXROUdBb48jcZicSldyDD/cGYgbQySl8YR/BxVp7UQRn5LZNLvdWLnkOJpw9O/Zepvq1LEVh0BNIvpS/SR+nLyReWZfpY/bKVWCaH9Jlkuv4zExy+b/EdtRTc+zciWE5TIsfsHRiDExZ65AvsI3tZy8ea0KSjsTM5Kj2kDutAY10Tt0hBbS2NqUt6xqfa2aor+hy9gzwWPuSdcTe9wOQfvcEKAc+9Oy94wQtGy3l6BZ0ncpwBD3lpstI+mrbx8EwZlcc1l/eQvKQfKC95ouyWteedm5a913uHQN47Zw7GeT92mhQMIehcUnDv2nlLY3tB8pJIOPd5idzbzBQp6OM1U2DWwMuVI3FYP1huYyBpWQ1/6Rg4sRTUmRhUZCNVCrkOj/KOYMsAR+dhNt/yYAq+PZuYU0c5R8iZWTAIM9NCkCWvkIJZ5sRs2UCI9YTZFHUwoLAfoHw4Z0fqkw/JvU5SeGV3GGTIk4WBgYbODOmp09T5SUd+4iqTMutwg+eWNt4uSYzwCCmoymmfVL/YBomei8DeIZA+S39mttdkjn3hTLRQSO3lqp9Of5tvL/2d3Fle6Wt3AymImKMgU+wpxcgz2MDDhJE/o0BKmRG3h45nLN9MdFC+xfNnGmQGAgoZhnQh80yg+eMr+//BHJGFzCOHKOwhuSK7pO0gc8gkss6B6CLHDDRYgWhPFviIRQM+ZY2Cn7Jr18hbz2OBT64iGmOl6B1hXYAkjhwWT33sl8QqxWCGLEcok+OsCJO2/NSNnDbh6A/AWBZ63ywhMiiSlvKJ42wwRW8IKei9VF7Ys3JgXUlG2/YEKWsyD/70ENgHY+0CGySsdOkO9kekoxgwWYqlfPCFnQEUQlca6horWXkL58j3sHdf4fzFVi+DUcu9vJ/qyi1rfeevBVqiIrA+BHyT+mz9ZmSDvlPfpV81lkMGIggZbyB+9MGc71rYfN/OtRRcH+5rhdIm077SNTlmHEkHIMsQdtpNm2mDyD0rpWzNRTYaY5NzntOvWH6SY0hesg4hZ8sNB5kcAx7hHcbZdAvhTdohgpMXuUZG0hnI+COOOGJFppN9JutY34vLUlA5cQFksQk2qwiFmeqH3h/h8m65JmtNRKZe5LPxvAlVZfY+Kn8sVtfCtc/WRiDvXd4971e+7Z0mBWspuHbb7djTvDQpgBcmL45nPmJCARmmM/DhxyIuH3jOlHD7CuhsYposDf+eZCmOj99gEbHIekBYB8LQACrkmfRYqRg42WdIeIMGnY2ymbEwM0GBNyCgsKceBi8GTAZUystS0GCLZaC8+RkIWBaccqcjdk468PDcYEp4Zddx22jVTIvypw5IU4OE4KWj1NG6l6b8XddtDoGSgpvDrbGKwGYQoLQhACifNo9GHFHSokx4PttXus/z3UoKUoxZpLNEQ3xZDkRGUNpZ+JmYghFFnUJshpRMsczW4MyeOvbZsRTHci5/dPGa17xmJLEo5Z4JTxZR2CnRkVdk1fSwrxDyUNhDDz10lH/SoHQbYEgH4cuqUxrklTZ0aF9HBiXSRUDaRgPhRo4i7gxC7IPkYAWp3cnwDDCRauptMEPusmgwicYCT/ko/dJGQJukyx+WGSQptz8nowNYTo0cJEeFt5x6PaQgvFlfsMiEhUGwfAycLB9G/iFtrVpQV5aYLCiERWjSEeDAGTwZtNl70fIoeyjRcRI3sn5Z5bx6lRTcTG/aOEVg+xHwvWYckjGd/hOpxOLbuIn8iBxPGOdpH+a58Q1ZFQs1z6dhptfbX9PFyHE1zGZJQfIf3mScdiCvyZ9sv0W/sH0IWUxemcSyfz6rPvKVvCSL/fmVQzsbv0pDug7vBNnGShTBx8qe/CX/6XjGWlYCGOfmT8OUnUynf/BHGiIFxTHBRhcgM43lyXw6QOowbR3h409HMqa356/8GH24p1P4M0/7CpO3iMq6zSOQ9y7fqHfAu8XtNCmoT8lRS8HNt/E+iZkXRuIRDnl5fMRmhlkX+Hizp6CwnulwxEHM6YQ8NxBiKZgZAx2FmXcdlwEFc2MkHSXc0h0z9SEa03lJTzz/oCRfHR4/gu1ud7vb6KczItjkrw7OLFnsd0XhN/CxzElHyELB7IeDhaLOUl46ROmmvs7BwzUrDR2vsktPZ6vM/t4dkWmQEUIw8ZQDLvCp23sESgruPYZNoQisFwH9WPoyyzwyqRG/KHbTcOk/5bFbSUHWd8gm8hJphwBDbrGU86calG44kTmsBkNWUepZGZJZZB0Zxdre5BfsyRMyDJFIBjkQU4gycibtIqyBhHMmwYS1lJa8Io8RXaz3KPZkaohK7SYfh/ZNm0eRRxBT2JXRAMDZxBtLfmdLbpWPEh9ZLk0DHXsTIdvEIf/lbZLRgET45Hf88cePE3DCShcWDpOMBrEmCslq8nc9pCCZz5rCxCCMWWYi8lg20kGUx/JpMh5uNjjPUiy6DNISZvDVXshbpCiSF66sJmOdsd5va1HDwaCk4KK2Xsu92xCITFBvfTgSSd9Onutz9aOccA73IXOCVdJg1FFSMKhs7hycE9v9aqRgnkdP0G70KcuMyUXjT6voxI/1Ph2DPCLjkH1kp4NMNgFH39D20vIukGUMW+gftsYygem5CUITkrbYkg+Zz8mLfGQF6A9P5GfsTScx/rZSgs5CPtI75BF9UNykQafwnvEjS5Qj+yqLT49QfhZk9iY0YSffus0jAOscUkm7uN5pUrCWgptv122NqXOYfsjuCQVKvI7H8iV771DkHQSJQxxm6ZR4HY7ZjXQAxx133GiyzAKA0m35L2VbJ6WjMGsgrSmR5uU1C8HMXZy73vWuo1kxBV5Z5IMc1OGlvNIwe8LiQCcjjNkHeehYdTgGNJZrWV7Fpb6ph3x1ds7SZQmg44z1gsFeBj7qoNNS7gjeNJaySKNu7xEoKbj3GDaFIrAeBPRZ034r/aM+Tl+nX9MvTg/piiMst1tJQWQXZTyKubOZcFZ0FHgYwsjAjAVcFGLKuT/OoGhTjG0Ebu9aS2zIGHHIHOQWmeZAPpLDkT1wn7aJCTflIbPt10dZp4izeKOM8UcWmpDjLw9pkdkppzYl17Q5C8NMtiH2xLVPIAtHBKXyIOCkI553xZlcNbhg8YjIs6+vQYWBB32BLqBukZ/qhMC0DJiuoZzqa+Nz+yTSCUzorYcUNMiBH8tC7YLEgzOy8A1veMN4b7BlcCYc60W6BllvIlC5lZ+TBkIRCWhSkR5hojDLqNXVASsYLJvzbpUUXLZWbX2WEQH9j35Lf+S71Z+nH/PMwd9Zfx8Shx/nrB8TTxolBff+LYFp8A3GeyIFYR4SV5yMn1kKmqwiw7VNtsoy1jVRZSmy1Xrai3wjk4WRnraOTCZzbYklnu0gGLdYvUC/oLOw7CevTcJx4mYik3UhmYwIlC7ZTW/hhxSMZaJyK6P3Szgu5eBnGTOrR6sWTM5ZSehPPC1fNlmoHnSYxB0T6M+GEch7l3cvbSChnSYFYyXoXEvBDTftvo/gw8+RF8iZcGA+bikTZd6AReeSl81LhkTTwVnqq3OwZ4GOJukZOFginMEA8+dpfKSdsPFzlq7Ow4wFk2UWgzoM+wxZOszc2BIe5RM2ce1HYEChw5Mf6wWdk0GZfY0MulhK2FxXhyZv8R1JK2dp6kCZW4cUZAGZ/AhTR+rJPy5+0pBe3eYRKCm4eewaswhsBAH9lb5Ln0lR1He5d3Z4zjnncK/vE47braQgxdzSF9bp5JalPIiz7JcbbJGCZt2RgeQKBZvy7g+syBp761GwpUMGklFkrll/RJRD2pbBpm20l/QjkyjUZLH07dmbiTiW9AYCCEP/mmzybirDpLfaYSASUlD+9gdkSWfgkOXS5KnBZwYD0kmZhKOEsn60kgCpRhk86qijRksF75Z46snyHgnJOtASZ3VARMpfOdZLCrIoVDfkHotAZCjZ75+dYWkw8rCHPWy09pc3ghQpSHdAOmY1gXcbQSsd+oVyaWsYIg+VKXWdfhPjx7AkP+pVUnBJGrPVWGoEfKv6LH1a+vLIZ/3rlDDMc3GmLmnol7un4BSZzV3Dc4qx61lS0HJZbUZmaS+O/DepiKhzWMLLUtBz8jR/uEmePv3pTx/lFP2CbCaX6Q7JO/qb509+8pNH+UWO0RXINtuDSMcYmTGMvL0r0jBpRnZf+9rXHuWx5cPeHTKBHkEnoLfYaiZ5eq6cOZSDn3KY/GOwgxSUpz0FlZnsJ2s9p3/W7R0CaXtnTltoA25eSEF6WUnBsUnm5ycf6/TjVTr+OgYMPus8H6/lwfx0XDoMH65ZdMuDzcZTug0YfNxePmkg81j6Ieko4jocnUwGI9ITNodyRKDZEwiZx1JAHjouy4AszUI8cuLlZae020yXJQKlHSmoDDocVn7isjzQqekMdUDpiHWWPhTEo3qJZzBl4GCApeMzg6FTi2BNvsJO3dTfdd3mESgpuHnsGrMIbBQBfZk+i3Knb9Xfpa/2bPaQfvo717uVFLS8hyy0TJiS7U84yEH4wRFuzggysoilIBnlH/vIQBjC7uCDDx5JJzIXWUgWkVH2KDRTjyTzRxoGFZGT4kpfXuSYiTxyjsxldYhA1IYGCtInqynkNioni8mzpJX2TZsqM5IO4Ul+y5/FQuJoc3EiRxOPv/LwTxjK/tOe9rSxHvJnnWAZtLLBwJH3DcloDz9LlkIKwoMF4HotBaXFygFW+SdtE5uIUuQfy0H7QKaOJh8NihC1loHDxjPly4EsRB7SB+gaiFb1T32FXzanfiUFl61VW59lRiAyQX+kH3ROn+0+/TR/1/pph2vON++ZfrDLh/fuTYFlZESwnSUFjXWzei5hbXURqz7kCYLWWFY7GUeHFKRH2C8y8bSbMGn3+JOv8qAfXPe61x3lKgt8Kwnsnc8a0XYfJjIjk4V3IAWnloKRrcpguS/S0h7CrPmTr3LI2zllkq5xt/KqEzlqPO855xxZu3eoNzbsc0Aj37zreSEFayk4h+9pPlovTF4afq51IoTCLW95y3EwYPmP2QCHjsWSGstrfdgGRT5uHYwPW3zpINks9dVxUcRZQLAQ0MExFXZk8BNhFeHE3wDAAEdcfzpCaf/zP//zsWMBpzx0IuIKzyrADEgsBT0nDBGGLA+YSBuQ2bNA+ZlKq4+Bmpl/Zc3G+khB4dTPIW3hlZ0FJMKThYHBljqnY5vFcQ6bfWGKVFJwYZqqBV1wBPSV00N19Kvpj9OvOyecMOnvXO9WUtC+gJRpMjOyD07uIxdghlwxS255LLILKYh8gjM5xSKOcp69CBFpntm/lgJugopCb08eyvU0L+lYfksOI64Qb2Qtgk0bSt9EmRl/k3w2B0eyKZNyJgwyM8uKlJ01nMk+pCA5iBSUF7mbd0QZ1U94qwcMXqRrQMGfkz4Lf5b+llbba9HARx0z2BFWWaTNesIWIuS5PMl3k3nrJQWVRXrKQI6bXNROCEL1j0WgMMhaFpjKZfKQXoMAVM9grEzeb7oIHJCCsInzXNhlc/ApKbhsrdr6LCMCvlV9UPo+1/pdTh/tcO/sWZ7rcx38E1ecLh/e+7dEmzjiXM+SgvbfhT9rTjKHPETY2Y7L2PrAAw8cJx3JVnLG2NR4lJwny/wpnLZMPtO25M9Jlw5ArpkQM0ZGApo4tMKPXmDy0T6D4uf9ID/pG/QOcs+kmfdEORgNKZu0yFd784ovjvjeJfqEyTOEIX/yPqQgXoC+kndUOeUtnDzqNo9A3ru8E2kPKZYUnHyQm4d4OWN6YSIEnB1enggHMxgUc4ORLEnSESHqDGpYHdjU9JBDDhkJQBYm4kpD2v7FyKbmLAwc4unEkharPgMOS3xTjrzEOkB7BOYflnQg8mNSrfPk5JMO0NLk/E27cJYJScuhTJb/2gMBMWiAoww6OfVwb7N4sx72R9JJGYghIHV4KbewyqwuBgeWI9mjUBl0kim7sqkP/6nfcr5F+65WJQX3HbZNuQhMEdBfpe9O/52+K31o5IL7PBNWXG63koJmym28zcEFJuRBlOP4I1cs9THrTn6wgA+WZI5JJ0o3+cVa0D66rAVZH1LA7Y1HFpmVNynFig+xhpBE8JnxJ6+Es3G4SSttloGgAQFrQQMNS4ntq2fpMmtCaRhsSNegwR+TaFdylRwkI8k/xCVLSPk6e67u6kreuVcPfxamfAY4iEn+6isNFnsmBA0WTBxaymziDj7qa2LOJJ26WoHgHwkRcOv9oxHh0g7qz7LCMqWpHoMonOKjPgcddNAo35GDsDR4gwt8KNL2aoIdHcY/Gqtf2hZW+SZGzyX5UaeSgkvSmK3GUiOgD0o/HFmtwr5hpJAxVcYkkdmzgIgX+V9ScBadjd/DfioXXM+SgqziyVKyhjy29cj1rne9UUdA1sU6n06hfUzamST051fGxcbJ4pKb0nFYNRD9I22t7YUzIUcW0hXkY/uvAw44YJSxySPvgPfGZB6dxXjZ6r2kR67GLF6zvQAAIABJREFUypDOwbJR2fkrA5mNaKQz4ALoISbgTIySscrAWEeZok+IR59Q/rrNI5D3Lu/eVE8vKVhScNU3y8syfVEE8rHzc3Bm5n20lPMQexRinYN9BGwYijjMLEAEkY5FGgYClutM44Zg44dg1KEZHIir0xBXOZTP4MJMRIhBG6rqUPPCm/mQj3sdkLSkqaNj0ZfOy3NhLfGyYTgricz465h0imb+1cUARnidlCVOOl1h1HtKaPLLvzumPMHQPZfzeNOfDSNQUnDDkDVCEdgSBPTH6c/1Y/rP9MvT/k7/m352N5OClNnglL113EfJ1igIL0txWAqSoWbqYRecKWsIOMQZOWawwBIdxogp+w6ahDMxhZxiUcj6zTUresSdexNxBhcUa+2mHJGvLBDs7WdAYCLMJJk0L3OZy4xkJD/pIOrEIVdt3ZEBCFksvxziHXrooaOVgEEIiz7pIzZZ5SH3WCMgAg0cWDCyDiBfEYFkqLC2J0HU2ZPRH5EkH9b7JuoMaJCa67EURArSJeANXxiy/oMr3B0PfvCDR1IQNsLAOPpG8Fcu+ARrAxlx6S4wMZgRL9/Glnx4c5YIfEoKzlmjtDhFYA8I+F4dXPo11/wyOZSo+i5HwvPX50celRQMUps/T9tDKu5nSUFy0QoBsttB1pLPxqWMZjLppq20KT3BeFUYsoicYqkXmexsm5H3vOc9Y/vaRiPtjOQzzs1Y1tmYnFUi+a3tU2Zn4Y888sjRktBY2PZbyGXl8D7ZZ9efhdAZ6CXKMi2Ha7IcESmOFQ5WDJqUJEs9Y4wjHF1C/e1VaNKwbvMITNtQKnl3XM8DKaj9u3x48+27z2J6cWZdXib+CDLWCqzhMP0OJsIOBJuNT4VJh5P0fPyudSisAKdxpSU+P/8GSLEWTnjxHHGsDFjsWZYsjkGEDi4u+biXhrSkr9M1EEh5El5nZnbfMisDAEuHdWqsGgx+1EWnyFH0DfRSVudcpz5mbJhHT91sntNnvd4YAiUFN4ZXQxeBrUJAP5ZDmumX45d+bqpsLCMpmPrO4srC7V73utdIzLGmJ2+CE0zipjKK/PGPvUjB/OkVsotyLR/yx0z7DW94w5EU9A+3FDjPyDd74Jllly+lyqAAeUi5ppTbF8+kF/JMXmSYtJUhFiL28WMNaFCBvBOfsi8tAwuWhKwZyVL5kvEUemShMPJyZKLQoIL1gDTlgxC1FNdyIwq/bUfsH4S0tHRY+chn5UFasoA0CEDEyV9YAwPxH/GIRwzHH3/8uDIAuUrnQIwKy7LBM3kqq30PDaxYOar/tM7i0gtYCyq38iNfWUNqK2URXnnoJDZjt6pAeupn4CVP5Kk/O/MvxP7l0VIo8RywWkanXiUFl7FlW6dlR8C3O+2XLugeHgnjXFJw794QGJI95MsUW5NcJpXIIsYl5IuDXCJnGeIwcGFlZ5UAOU5ORdcyQchgJbJfPHIqskpadAQyj/xH9pFRHD3CpJnnyEhyzd69ZHYIwcgzZ6vyGNgwAjIJSSYLJ13lslzYeJrMZGxz2ctedjS4oVOYULPyQV3IZHFM1Blz2w5MedVfWGV27ZCOLcrqNo/A9DuWSt4d1/NACiIESwpuvn0bc4sQ8KHo0HRmBi8OHabOyrO6+UKgpOB8tUdLUwTWUjaWkRSctri6R1ZYqmPQhKSjvJMjF+QMEChkrAXtaYscI48o3w5pGwRQwi2ZPe6440al2zPh5CFfk1j+xdjAAnFoKaslRuKZOJOPsiZd1+LHD/mIEKN4I+ke+9jHjhYJz3nOc8aJL4MOpKI4BgWWFbPg80chzvJynXt7D5tsSz4mApF9BgPIN8uHxDMJx5IwgxTlRFLaU8lzxN7jHve4cYsQ232YEDSIUQ9hWUyYkBMWeSquPE3MWdVgYIOsNVBJXYMvwg+JaHUD6wvkH79g68zRCaxcQHJKT9jHPOYxYx20iT8cQ07GekM+nHOuR48l+VGnkoJL0pitRhHYAAIlBTcA1ipB9Z3kT3QGMoyc0Z+y4iPvIkedTcaZgGMEQwaRwcgc41VpIRelx98EofhkoXhkE9kmHVts2feeHJ+SifKWlpV95J+8xCNLreqLLEw+8hReWaxaYDFIznLSVS9nMpre4X2RJplJN1EWcpQ+gAxMHOWi/0zrnmurCixXVp66zSOg7XKkvaLjzAMpWEvBzbdtY24RAtMPJNfTs2zc180PAiUF56ctWpIiAIHZPpOiF2VjGUnBKLKp51RhRm6xXF+v3BAuJBUso4Tzd5083Gcg4TplCM78KOv256HgW5JjoCBO0kxa7hMv1+I7DFKU3yAFUYgQUz7P1DODGPGQg9J08JcXJzw/LmkmfXGUTx6uhU24xJG2a+kZOCD4ElY6njmSj/DqnrIJkzQMThJOnJRHWPecsMojXOImvjIkvrNypEzKJZ68hU/ZEj75jZks0Y96lhRcogZtVYrAOhEoKbhOoPYQLHIl8oK+QF64j/x2PT0ipyKbhBeWi+7hWjiyKek5Ozhnz5MuP9f8pzJOmMh5154ro0O4lMEz1w7Xs2nwk77nZDB5YZUfmRnZm/RTBvkm3ZRTfOE941e3eQTSXs5c2sj1PJCCtRTcfNs25hYhMO14ZpPMB5ROavZ573cGgZKCO4N7cy0Ce0IgfeVqysYykoIUVIQbRZkjRyjpZAUHh/UqsMKGuHJNQXaf+M5J17Uw7inhjsgn/jkSzr1r4aSp3InnnLSkIVzc1J9CjggTJvkqIzfNRxwueU6frVbGafwx4o/Tc61sygpTpJuyS4NzhrtypczJW7z4OU/rKK0MpDxzLQ1xE1/6nqmfQxh1l7+04oSZjedeHOVWPnHdT9NO/EU/q1NJwUVvxZa/CGwcgZKCG8dsGoMcIXciz9znIDPoFZFdwnkW+UmeTO+Fm8qiyBpnccktB8dPOvwdCTubpmeRX5FlmZBLPeTpmbiunaMP8Xco52pOvg7P1Vf5TDyS88FEmp4rS+oev9XSrN/6EAj2aXvYwpWbB1KwloLra8eG2ocITD8SH8fskef7sAhNeoMIlBTcIGANXgT2MQLpJ1dTNpaRFAQnxZfSGhfl1T0comzl+Vpn4SnHSW+1+NIThgIenJMmBTrlSb7CRTkXfjaOcFOlO2k5R9l3LZz0p/Gn6SUdecFAXOFdz7qUSb7T9GbD5T755CzN1NVZ3vxWy4ufwY24wjmmLvmn/MLHbzbc1N+1QUxIv9l0xZ2Gn6a1LNfqV1JwWVqz9SgC60egpOD6sVotJBnoWE1G8HPkee6dycyprHFNDmXSijyK/iC+54mvHPFbrUz8hI9cTjznxHOdcGS9e0SgMszmtVoewpCx0/Sm+ST9hEkakbO573nzCEzxlgqstQu306RgCMHuKbj59m3MLUZg+sGkg9riLJrcFiBQUnALQGwSRWALEZj2nZKdKhvLSgpmlpuCHEXXmWId5XwjEE8xSzx5ULrlEVxhLR9+nocco9xFOU9Y4aQbN43Db9puiS+8NNVB+AwUPJ8+k3bSSNxpeq75S8OR+iWdlCn1UReHdJOOsKvlwV8YaSZd95y8lN994idPaatPcJmN7z51F841v6Q9ZvDj93s23zxLucRNvfNsWc7qWFJwWVqz9SgC60egpOD6sVotpL4zBznkICciyz3LBGHkFD/yKHIv8cmYhPEs8k7YyC1+kUOJNyvnhM8hzaQVGSYe5xy555y8k26ei+eYxpNm4k79pSFv9fc8aQW7aVmEqds8AsE2+Kc9pLjTpCAyMMTgfpuv4p5j+he6I444YuUF8+JNAQkoe06hT4rAjxDouzJfb0JJwflqj5amCExlKzSmysYykoIU1Si+dAv3MIg/JXcjbqoMT7GTdkiuaXrTfBLX85Qh55Qrz6Sn3OJwnrvOkfDuhXW4ll7C5Fn8p+kJl/uUIelIO+nnWfJPucSdDSNsjtQj8ZxzHatAaUgvLnVIWPe5Tp2kz3mW8LkWNvknXtJe7SyscNL2HrheNqeOJQWXrVVbnyJwwQiUFLxgjNYKQT5FRkaekDXx07dGhpEhwvAj3yJXhOcXGeyaX/QOYSN7xPFsmlbS4edZnrtPOaZhpJ88POfEiX/iuRdPGIf7aXoJH3zcpwzCJc2k4VniJI/E7XnjCARLZw6msOZ2mhQMIehcUnBskv7sBAI+iHwgq+XvWT6a1Z7Xb/sRKCm4/Zg3xyKwFgJrKRvLSApSXiM7oqxGwXJ2bMQJHwxdU5BjOZBn0pvKqsgm5cghbBTr5D8NF7+kJZ44jqQx6zctl4GG9BPfs/gln1glTNMVfnovD+nEz1l8Lv65FzbXnruXJ4xcc+JPSUHPk2YGJdJwJO/pffynaeb5mMHESmIW3+lzcaZutuzTZ4t8rZ4lBRe5BVv2IrA5BEoKbg63xCKbHJFd/CN/Ig8jR6b+5FueRwZHvggXnUF6mUj0PPlM5arw7mdlmbDySLzZa3k4OM+SRvxT7qQjzFQWjxEn9RU+h2fSSTnFS/lSnsTveXMIBOu0U9pXajtNCtZScHNt2lhbjEA+inwk0+T5pXNb7fk0bK+3D4GSgtuHdXMqAutBQP+YQ/j0q66XkRRUP/V1poBnjzlKLZnBbVRmBD9nyjDSxZ49UcKT3zRd155ToKcK9ViAGSJLuYTPkXImbMosHYRkBhapq3j2L8oSnqSTeEk/4Z1TLmGkFyXfOdeeiZt4lk4Jm/LJJ2m7Fi5pxV8aceIrpzCzZRRX/YRJfgnD3zHNV5p57uzZNF7ydF6tLIk7DbcM1+pVUnAZWrJ1KAIbQ6Ck4MbwWi105ELOkUtkFvkaWeIcWRmZmDjOcfFLvDxznsqrhOOHZAzRKB1xyb/ETZkiF5VDmIR1rUwOz7ikn3zJ/6Q3Bvjxj7jT9BJXWuIkn/gHg9XSmqbb67URmLaPkNo4WO80KchCMEctBdduxz7dJgTSkeVDaQe0TcBvMJuSghsErMGLwD5GYC1lYxlJQXBSpqJQBV6ywwGPKMp5dkFn4SnEiRf54ywf6XLJN8/5TWUW/5RhNs8o19JIus45ZsMnbQOVhEk8Cvw0H/7Snx3UBCODi9RB2AxA+LlOvZ0TR7i1XAYs0pjFxT08U0bXITRTrykee8pHmJRvWp7kt6d4y+wPh5KCy9zCrVsRWB2BkoKr47IRXzKJPIr8irxz5qd/dUSuTdPmF3nEfyqTXJNxnkvLvXNkYPKV99QlXPzEcazmpGFSLRNrCSON5MsvaQqfsvBbzfEnZ6fPXYsbfUAarus2jwBMc0glbeN6p0nBWgpuvl0bcx8iMP1g9mE2TXovECgpuBfgNWoR2AcIpN905qbKxrKSgqvBGBw8CxarhVvNL3H3FG9P/qvltaewyWO1/PfkJ87sACF+s/nsyT9lnIbPtXOOhNtTWWb9Ey9pzT7PYCTpTutxQXGT1p7CxT/hdtNZ3UsK7qYWb12LwI8QKCm4929CZEfO0xT5xU2vp36rxcvzqcyLX9JJvNznufNqftPnuRZOHmvlk7BJdz1prxaG39R/ej3No9frQyB4Bsepnr7TpGCsBLun4PrasqGKQBH4MQIlBfsqFIH5QmAtZWM3kYLz1SotTRHYNwj43ksK7htsm2oRmGcESgrOc+u0bEVgzwispafPCynIYrDLh/fchn1SBIrADAIlBWcA6W0R2GEE1lI2SgrucOM0+yKwxQiUFNxiQJtcEVgQBEoKLkhDtZhFYAaBtfT0eSEFayk402i9LQJFYG0ESgqujU+fFoHtRmAtZaOk4Ha3RvMrAvsWgZKC+xbfpl4E5hWBkoLz2jItVxFYG4G19PSSgpN1+2vD2KdFoAjMEwIlBeepNVqWIvCj/WiicMBjuldJScG+IUVguRAoKbhc7dnaFIH1IlBScL1INVwRmC8EoqM7c1M9vaRgScH5eltbmiKwTgRKCq4TqAYrAtuEwFrKRknBbWqEZlMEtgmBkoLbBHSzKQJzhkBJwTlrkBanCKwTgbX09JKCJQXX+Ro1WBGYLwRKCs5Xe7Q0RWAtZaOkYN+PIrBcCJQUXK72bG2KwHoRKCm4XqQargjMFwJr6eklBUsKztfb2tIUgXUiUFJwnUA1WBHYJgTWUjZKCm5TIzSbIrBNCJQU3Cagm00RmDMESgrOWYO0OEVgnQispaeXFCwpuM7XqMGKwHwhUFJwvtqjpSkCaykbJQX7fhSB5UKgpOBytWdrUwTWi0BJwfUi1XBFYL4QWEtPLylYUnC+3taWpgisE4GSgusEqsGKwDYhsJayUVJwmxphndnMttVq0dYKM33mek9uGm4aZjX/qd96rqfp9Xr7EdBG3/3ud4erXvWqw7HHHjv8v//3/8ZC8K8rAkVgeREoKbi8bduaLTcCU91KTeftj0audrWrjTrFfvuiGQ444IDhiCOOGALCD3/4w5Xr+O2LfJtmESgC+xaBkoL7Ft+mXgQ2ikBkqjM3VTZKCm4Uza0Nj7DRHtrma1/72vD6179+OProo4cPf/jDo3/aSxiOrvS5z31uDPO2t71tOOGEE1b8TzrppOEDH/jA8IpXvGJ46UtfOvzrv/7rcNppp62QQgLK58wzzxze9773jXmZgVYG6X7rW98a48v/TW9603DqqacO//Zv/za8/e1vH9N7+ctfPrzoRS8aXvayl435y8d98nvjG984fPGLXxzTO/vss8c0x8L1Z1sR0MYlBbcV8mZWBOYCgZKCc9EMLUQR2DAC5HYOkad6+k5bCoYQNNFYUnDDTdsIRWD3IlBScPe2fWs+nwhE0XDmpspGScHtbTNtEMstObvXHueee+6A5Dv00EOHm9/85sMjH/nI8VnaSxgHoo711/3vf//hYQ972EjY/eAHPxjOOeec4eMf//jwl3/5l4NJV8d97nOf4Z3vfOcYJ3nJB6n4+Mc/fnjgAx84GESKjxT82Mc+NjzhCU8YbnKTmwy3v/3thy984QsjefioRz1quMUtbjHc+MY3HtO90Y1utHL9G7/xG6OfZ3/4h384vOMd7xjLLU3lzTu3vSjv7txgXlJwd78Drf3uRKCk4O5s99Z68REgt3OoDf0puuJOk4LIwBCDJQUX/11rDYrAtiFQUnDboG5GRWBdCETRcOamykZJwXVBuGWBtEFWRiRRit/3vve90QIPmfczP/Mzw0EHHbRCqGmvHKeccspw2GGHjUTc7W53u4H1HgLu+9///vDWt751OPjgg4cLXehCw0/+5E8OF7vYxUby77Of/eyKsokU/OhHPzoShvI68sgjx/jKgEC8173uNfz0T//0cNGLXnQM95GPfGR4ylOeMtzjHvcY00YWXuEKVxh+6qd+arjEJS4xHHjggcPd73738fljH/vY4fjjjx/zkl6IwdSz5+1BwDtWUnB7sG4uRWCeECgpOE+t0bIUgfUjsJaevtOkYAhB55KC62/ThiwCux6BkoK7/hUoAHOGwFrKRknB7W+szP7KWduEQEPw3fCGNxx+4id+Yrj1rW89EoHCIBGRghyLwOc973nDda5znZE4fPWrXz2m4fmrXvWq4Y53vONwyUtecvjFX/zFkRhE2rEsPOOMM84z6/w7v/M7Ayu/l7zkJSN5J23LhA855JCRVNxvv/0GhKAlyZ/85CeH97znPcP73//+4S1vecuYL+Lw2te+9vC6171utDAU9lOf+tRw4oknjvkoMwISMVi3vQiUFNxevJtbEZgXBEoKzktLtBxFYGMIrKWn7zQpWEvBjbVlQxeBIvBjBEoK9lUoAvOFwFrKRknBnWurkIGs/JB9SEHLcFkKIvNiUTglBe3V99znPne41rWuNS7xtY+f9uVvH8Hb3OY2w/777z9aAv7cz/3c8PM///PDH/zBHwwf/OAHR2tEtbV8+H73u9+4TBhhKK6yvPvd7x7ue9/7Dj/7sz87IAXta5h3RzzXyvmABzxgfI5U/PrXv75iaSgNYep2FgFtUEvBnW2D5l4EdgKBkoI7gXrzLAJ7j0B0rehQJnrpVNxOk4IsBHPUUnDv27opFIFdg0BJwV3T1K3ogiCwlrJRUnBnG1HbUP6QbS9+8YuH61//+iuWglEOnRGDrO7OOuus4TnPec5wzWtec7jtbW87vPa1rx0rQHlktWdJMSvCZz7zmcMjHvGI4UpXutJofYhIZLnHsfizzJhV4lFHHTWmiZgMKchSESn4oQ99aIXkk768v/nNbw73vve9xyXGN73pTcd7/so/axUoTeWu214EvC8lBbcX8+ZWBOYBgZKC89AKLUMR2DgC5HYOseeJFKyl4MbbszGKQBEYhqGkYF+DIjBfCETRcOamykZJwe1tK20wxV/u/BBoLP1Y39kP0PJhJNu0zdwj3174wheOxJ+lwohAln7CIQgRhb/2a782HH744eOSX5aHlhOz7vvqV786zjyzGrQPYJYPyxvpZ4mwcJYGhxSMlaL05S8Nf2DCmtCehP/xH/8xWiAKJw3h1I9z76jbXgS0QUnB7cW8uRWBeUCgpOA8tELLUAQ2jgC5nUPsqZ5YS8EuQdn4G9UYRWAOECgpOAeN0CIUgQkCUTScuamyUVJwAtQ2XGoD+KctZOmaFZ/9/aaWgki4kGrO4iEFhbvuda873OEOdxhJQX7SeP3rX79iKcjqEGH38Ic/fLjKVa4yEoD8TjvttPEPRPyhCFLwBS94wYo137/8y7+My4otX2YtaPlwLBRT5i9+8YuD/Qj9EYl/If7GN76xEl8ZlVmcaf22AdZmMUEA9iUFJ4D0sgjsEgRKCu6Shm41lw4BcjuHyk319J0mBWspuHSvWytUBLYHgZKC24NzcykC60UgioYzN1U2SgquF8WtDTdtE9f+ffhFL3rRcL3rXW8k5OwNyD8Em2ukG6tARJ4/+cjyYc+4N7zhDSNRKI2Xvexlw3e+853huOOOG+5617sOl770pcclw/YT/MAHPjASeze4wQ1Gq8Pk8a53vWv892H/LMxa0J+HeFc8T5ivfe1rY5gLX/jCw2/+5m+Oy4c942LJGCJTuVK2MUB/tgUBmJcU3Baom0kRmCsESgrOVXO0MEVg3QhEX4rONNXTd5oUzH6C/ffhdTdnAxaBIgCBkoJ9D4rAfCGwlrJRUnBn2ipkWwg0xJr9/ezzh5RD+HEsCIWNYxV45JFHjqQgS0FEYJ4fffTRYzzWhkccccRoVXjyyScPf/qnfzr+ecnlLne54Zhjjhne/OY3D3e7291GS0F/bhJSDyno34ctX7Y8mKVgyucdko/9A/NHI/KxnNjyYw4piNyMEz5li1/P+x4BbVVScN/j3ByKwLwhUFJw3lqk5SkC60NgLT19p0nBWgqurw0bqggUgRkESgrOANLbIrDDCKylbJQU3LnGQcY5tA9iDVl3y1vecrTSs6cgh5QTJuTamWeeOTzxiU8cScE73elOw2te85oxvucIv4MOOmjcb1A/jEDk/9a3vnW0ErQs+MpXvvLwt3/7tyt/NPKKV7xizFsZLB+2XyBS0PLgkIIpgzD5oxHLi5GCLAeRgZw6IA05fvIWp257EYB5ScHtxby5FYF5QKCk4Dy0QstQBDaOALmdQ2z6UyZld5oUrKXgxtuzMYpAEailYN+BIjB3CETRcOamykZJwe1tLm2APJu2iWskGku9W93qVqOVnn8R/ta3vjUSghRDcVjhnXLKKcOd73zn4VKXutT4ZyHvfOc7V8IgCG9/+9sPv/7rvz7+0cgZZ5wx5vPv//7vw1/91V+Ny5JZIfqTEWH8UQjrxJCOb3vb24bf/u3fHi0VLR/Ovw/LX/kcypR/H/YnJl/60pcGRKV3yiEtTnnd553bXpR3d24wLym4u9+B1n53IlBScHe2e2u9+AhMdUK1merp80IKshjcb19ATRm1vCUgZLY89851RaAILB4CtRRcvDZriZcbgVm5OlU2Sgpub9trC+TabJvQgT7xiU+MewLarw/h9u53v3vcQ1AJPUf0vO997xvM2grzoAc9aPjsZz87koXS80/EIQXtT4isE4/1nr0FDzzwwNEC8IpXvOJwiUtcYvyjkFe96lXjc+He8Y53DPe85z1HS0H/PsxSMOUM4YdovP/97z8Sh/5o5Mtf/vIYH3EobAjE2WXP24vy7s5NO5QU3N3vQGu/OxEoKbg72721XnwEoms5c1M9fV5Iwe4puPjvWWtQBLYVgZKC2wp3MysCF4jAWspGScELhG/LA2gP5FmUPveIwm9/+9vDQx7ykPFPQRB39gJE9LEGdCDw/uRP/mS4+MUvPvzyL//y8KxnPWs49dRTx30HpcFS0F6E17nOdYaXvvSlI1nIulDaJ5544vAP//APwyUveclxebLlvyZnX/nKV47/SKws//zP/zwuH/YMKegPSZSTC9mHaLSnoCXG9j/8+te/vkJyCoNclCdLQdeJv+UgNsE9IuBdKCm4R3j6oAgsLQIlBZe2aVuxJUeA3M6hqtEPXZcUrKXgkr/+rd6yIlBScFlbtvVaVASiaDhzU2WjpODOtCpLOqSZNkGc2f/P+Y1vfOP4777+LfhCF7rQuOQXSYeEs6T3Yhe72Ejs/fEf//FI2iH8xJPOq1/96tEa8LrXve7w4he/eExTuvISjlXh5S9/+eEiF7nImBby8LDDDhvLAQWWgve4xz3GvFgislRE8ElbWRGQlguzJvT8Zje72coSZ8+9V1MnX+Rg3fYioL1KCm4v5s2tCMwDAiUF56EVWoYisHEEyO0cYk/19JKCJQU3/kY1RhGYAwRKCs5BI7QIRWCCQBQNZ26qbJQUnAC1DZfaIPinXdyHfLPUl4WePQAtBfaHH/YBRBBe9rKXHfcT1Md+/vOfX7EQlI74r33ta8f9Am9yk5uM/wJvqW/IR6TdSSedNLzpTW8a/6TEn47c/OY3Hwwik7d34dBDDx1+4Rd+YdxbEAHo2dlnnz2SisjHkILi+6MRRKM84pQFAekcsjLPet4eBGBfUnDnUxWeAAAgAElEQVR7sG4uRWCeECgpOE+t0bIUgfUjQG7nECt6out5IAX333//ceua7im4/jZtyCKw6xEoKbjrX4ECMGcIRNFw5qbKRknB7W0sRFmsAl0j62Jlh1zTNsi8r371q8MHP/jB4eUvf/m47NcyX6TfP/3TP41Ldqd/7hHi74QTThje+973jvsHfuUrXzlP2vJiteePSvzLsLQsSRZOntzJJ588fOQjHxmXLEtHOTxTPvE5pOX73//+kUxUltNPP318Jm1kIJew401/th0B33lJwW2HvRkWgR1HoKTgjjdBC1AENoXAWnr6PJCC+QfikoKbat5GKgK7E4GSgruz3Vvr+UVgLWWjpOD2thvCDImnTRBprvm5R7iFGOTnsGQX8eZwHas9BFzI3VjmqYlr1n3iug5hKH1+0om/tBI270jixV+aiesaQajcniM33XsuTdcJHyLRs7rtRQDmJQW3F/PmVgTmAYGSgvPQCi1DEdg4AuR2DrGj37meB1KwloIbb9PGKAK7HoGSgrv+FSgAc4ZAFA1nbqpslBTc/sZCvDkQayEIkWhIOvcINm2kvRBwroVFGvJzHTJO6dOuSde9a2mFFHQvLUuI+bl28M/7kHjuk278QviJ67kyhsQUJuFShpSbf932IgDzkoLbi3lzKwLzgEBJwXlohZahCGwcgehR0Zmil0lpHkhBloKIwVoKbrxtG6MI7FoEkII3velNVwatsx1d7nctQK14EdhmBHxzyJqcY8WlGJaC+tOIz3zmM9tcqt2dXUg5ip8jy4GDirbi76y9QgK6RwrmWdpUvKSprTnPckbiiRc//sKF7Es60mABOHXyEj9xkob4wruXjuuES5hpOr3eHgRgb5n4Va961eHYY48d21nObZPtwb+5FIGdQgAp6Ls3KeB7z5HyzN7Hv+ciUAR2FoF8m84cvSt6+zyQgttiKRil1OzzLCDT+17/Z+deLIrFPL8Dz3nOcwYb3Rvk+r7TuRks6uQ4A8hcjx79KQJFYJ8h4NtD2PjmLB91nW8zpOCnP/3pFQVknvuXZSkb/B2pz/Q6fns6z4b14vCjR01JOSQg/zjpxemDQwjyEy999Gz6eyoH/2nY6fVacfps63UY2Dt84w5Lza9ylauM/0idNu+5CBSB5UbgNa95zWjNY1Jgtp9Vc32+foKbfd77re+Xi2kxXe87kJ5JeC46me/VpL3Je39CtxMuhCBrwS21FFQ5iuoNbnCD4YgjjljplPhn0KLTotzWFYEisHgIPO95zxtufetbj8qHTs237fBdG6zo8HK9eLVriYvA4iGQbzDfXuSt79OfWVz84hcf/0U2ysji1bAlTtumb9XG6W+d+U/98k4Eudz3HQgii3XWbjm0pT+Nuda1rjX+aYzvnN5dVwSKwHIjwFLQwJ2l4LRP1zeQA9HJlxuF1q4ILB4Cvk08mG81fJhv2H1Iwfe85z2jLrfdtcvS4S0nBVPZAw44YHj+858/1osfhZXSotMCAnDqikARWDwEDjvssOFWt7rVWPAoIL7xKCTO+c4Xr3YtcRFYTAR8g2RrnCWiDjOPF7vYxYZPfepT53mecD0vDgJp4yiSKbn79LnTd2C2Xw6hmHg9LxYC2tOhHb/5zW+OFkP+ZZoc7kT7YrVlS1sENoPAdPmwvj5H+oXIAfd1RaAIzA8Cvk2y27eJD8v4WQmRghe5yEWG9773vTuip8dScJ/tKXjjG994OPLII8fW0GlhRXMElPlpqpakCBSB9SLw3Oc+d7jlLW85BvdN53v2nevkdHxVSNaLZsMVga1BIIMC36NvkNKBKMgfjXziE58Y/bcmt6aynQhoW32tPpZzn/ae9rf8hMnz9MneA++F/tm5bvEQSFtqP8cJJ5wwXPnKVx6XD3sW/8WrWUtcBIrAehEIKZjlw1OiIbKgfcF60Wy4IrB9CNDLfKN0ObqYc77Zz372s8NFL3rRcWXP9pXoP3PaZ5aCsqCg3OhGNxotBV2rtIOzD9kZZ5wxKjBRXHv+z2UhxaJYzPs7cPjhhw+3ve1tx4EnS6QMOH3rdUWgCGw/AukzyFn/cOu7jLJhT0EzkPYUTLieF0vOGOSddtppKzPL2pYffQr5G6vQkH6e6Y+1s7B5F/Jmtv0Xq/21lwFE2ls7TvcU9Fyb+/Zd1xWBIrCcCLAMvsY1rrHyRyP6fDr4tJ93Ty60n1+8fr5ttrxt5hslo0Pohx9zjqUgfX0nZDgLwRxbvqcgxeUWt7jFaCmow5o6z84666yx0pSYHsWg78BivQN///d/P9zsZjdbGXTqwLShQQs3OwCdfv+9LgJFYOsRMAhwcL5H32C+yeOPP3645CUvOS4jRh61v12s/lZbciH5tF/0Km3t2tJwyiT9Kv1xwkfx5D99N/oeLNZ7kPZz5pCCv/IrvzK88pWvPM/7MD7sTxEoAkuJwOte97qRFPzc5z53Hpmvn0c4TPv99vGL1ce3vZa7vXyb9HSyO3JcJ0XH++QnPzlc6lKXGuwpGP1uOzuwfWYpqKIqdNBBBw3Xv/71h9vd7najVRHLIoc/KHC4FqZHMeg7sFjvgO/6zne+82i5opPjCDOdXciIaYe3nR1b8yoCuxEB3yFSftY6wHdp+fAlLnGJ8R/DK3cXq68lG+9whzsMd7vb3UZdSfvd/va3H+54xzuu3OuLb37zm49/7nab29xmOPjgg4c73elOYxhh6WAHHnjgeJZe34HFewfSbtouh7a+3OUuNxx77LHjt0/m+t4re3ejBGiddwsCLAVN8t3lLncZZUH6A2dja319/Dq2Wsy+vu22nO3muyS3bb81+50ypLv0pS89Lh/OuHo7+7RYCe6TPQUpJS9/+cuHZzzjGec5nvrUpw5Pf/rTR79nPvOZQ49i0Hdg8d6BZz/72cMxxxwzLlkLGYiMMBmgM8vRwcl2dunNa7cjgJCPtSAsXPsuv/GNbwx/93d/N/zN3/xNZe4C6h3aTfuRlXSqpz3taQNdKveeIQEpc/e73/3GMM961rNWdC/X4lTWLp6snbbZU57ylLEdo1drU1b7n//851es88ngyt3dLgla/2VGwPduHG1vb7JBfxBZQC5knD3tO3q92H1/22952i/y23ea6+mZvr4TLqTglv/7sMogBSwRNiBBGoQkcE1pyXIYykuPYtB3YLHeAd9wliH6ln3nCAjfedoy1zvRuTXPIrAbEfDt+e58k66zz9zUL99nz4vT52q/aX+qr9W20/ZGGJmFfulLXzqcfvrpo56ln47l2JQsatsvTtunrbR/NiV3HV06fgkX3Xo39n+tcxHYDQjM6tzpD/QJOYSJzEjf0PPi9ftts+Vrs3yv4cLc+17pdf5vY6qrbWd/FlJwyy0FvcTTSqmwe8qLZyruuq4IFIHFRcB3nYFpauH71rk5XNcVgSKwvQj4LpH0zly+ydxvb2ma21YioA3Trzo76FYOVmOWjrEazL6CCeMccnAry9O0th+BtDk9mkvbkrlcv/MRhv4UgaVGwHdv/0DfvfE0Ixz6eBx/fX5dESgC84WA7zJjZ9f0t8hvJeW3E3J8n5GC8wV/S1MEikARKAJFoAgUgcVGwECQozBOlUhKpeVk9qqxtcOUMEqcxJsSi4uNRktfBIpAEdi9CEz79un17kWkNS8Ci4HAPH6vJQUX491pKYtAESgCRaAIFIFdjkAUScTedCbZNTLQ5uQsBlcjBcXNscthbPWLQBEoAkWgCBSBIlAEfowAUvDqV7/6uDf1fkWlCBSBIlAEikARKAJFYD4RCCk4S+65t+m8fxp+0pOeNC4rS5jEqYXgfLZpS1UEikARKAJFoAgUgZ1EoJaCO4l+8y4CRaAIFIEiUASKwDoRCMEneK5zPuKII4bf+q3fGh7zmMesuqeg5cZT68J1ZtlgRaAIFIEiUASKQBEoAkuMQC0Fl7hxW7UiUASKQBEoAkVgeRAIAZgauUf2OR955JHDne50p+FRj3rUCikonGeOndq8OmXtuQgUgSJQBIpAESgCRWD+EKil4Py1SUtUBIpAESgCRaAIFIHzITBdAozoc++fJ52npKB/pfR86kIeTv16XQSKQBEoAkWgCBSBIrC7Eail4O5u/9a+CBSBIlAEikARWBAEpsQe0s99SMHnP//54/Lhv/iLvxi+973vna9GIRRnycLzBaxHESgCRaAIFIEiUASKwK5BIH8yghzsH43smmZvRYtAESgCRaAIFIFFQ2B2CTCC7wc/+MFoKZg9BR/96EevkIKeTw/1zf2i1b3lLQJFoAgUgSJQBIpAEdh6BGopuPWYNsUiUASKQBEoAkWgCGwpAiEAp9aCMsj91FLwnHPOGfNmHZjnW1qYJlYEikARKAJFoAgUgSKwFAjEUtC5loJL0aStRBEoAkWgCBSBIrBsCIQUZC3omovVn3NIQX80kj0FEYLT8MuGSetTBIpAESgCRaAIFIEisHcI1FJw7/Br7CJQBIpAESgCRaAIbAsCIQFl5hrpx5177rnD4YcfPv778CMf+chx+fDsUmPhsq/gGKk/RaAIFIEiUASKQBEoArseARaCOWopuOtfhwJQBIpAESgCRaAIzCsCiMC4KSloX0H/PnyXu9xlePjDHz6SgghDJODUlRScotHrIlAEikARKAJFoAgUgVoK9h0oAkWgCBSBIlAEisCCIYDgQwZyrAJf8pKXDAcffPDwkIc8ZLCn4JQUjIVhScEFa+QWtwgUgSJQBIpAESgC+xiBWAl2T8F9DHSTLwJFoAgUgSJQBIrAViEwJQVdH3XUUcPd73734UEPetC4p2AIQISg6xxTa8OtKkvTKQJFoAgUgSJQBIpAEVhMBEIKshjs8uHFbMOWuggUgSJQBIpAEdgFCEwJPSRfLAX5v+pVrxrucY97DIceeuhw1llnnefPSISN5eA0jV0AWatYBIpAESgCRaAIFIEisAYCIQVrKbgGSH1UBIpAESgCRaAIFIGdRmBK6E1JQeV69atfPRxyyCHDfe973+HMM888DylYQnCnW675F4EiUASKQBEoAkVgPhEoKTif7dJSFYEiUASKQBEoAkXgPAggAkMMzpKC//iP/zjc8573HO5zn/sMZ5xxxko44ZGCce6TRvx6LgJFoAgUgSJQBIpAEdidCJQU3J3t3loXgSJQBIpAESgCC4bA1OJvluxjKYgUjKVgCMTZcCUFF6zRW9wiUASKQBEoAkWgCOxDBEoK7kNwm3QRKAJFoAgUgSJQBLYKAf8yjBgMsYf4izv22GNHUvB+97vfuKfgWqTgNF7i91wEikARKAJFoAgUgSKw+xAoKbj72rw1LgJFoAgUgSJQBBYQAYTgLDGoGki+Y445ZtxT8AEPeMDKvw+HGJySgCEUF7D6LXIRKAJFoAgUgSJQBIrAFiNQUnCLAW1yRaAIFIEiUASKQBHYVwggBf3r8HSfQPdHH330aCno34fPPvvskTwMgbivytJ0i0ARKAJFoAgUgSJQBBYbgZKCi91+LX0RKAJFoAgUgSKwixCYWgum2sg/y4fvfe97D/e///1HUpBFIAvBWAsKGytB57oiUASKQBEoAkWgCBSBIoAUvMY1rjE471c4ikARKAJFoAgUgSJQBOYPgRB5U7IvpUT8ve51rxv/ZORe97rXSAp6NksChiBMWonfcxEoAkWgCBSBIlAEisDuRCCEYEnB3dn+rXURKAJFoAgUgSKwAAhMibyQfSm2+ze/+c2jleBd7nKX4YwzzhgJQc89QwbmeppO4vdcBIpAESgCRaAIFIEisDsRqKXg7mz31roIFIEiUASKQBFYEASmxF6KzG9K8B133HGDPxk56KCDhlNPPXXl2Wpxk0bPRaAIFIEiUASKQBEoArsbgVgKOnf58O5+F1r7IlAEikARKAJFYA4RWI3Ym/V75zvfOfiTkVvd6lbDd7/73fNYB07/lGQOq9ciFYEiUASKQBEoAkWgCOwQArUU3CHgm20RKAJFoAgUgSJQBNaDwCwBmDj84971rncND3zgA4db3/rWw2mnnXYeS8GQgsLnSLyei0ARKAJFoAgUgSJQBHYvAiwEc9RScPe+B615ESgCRaAIFIEiMMcIhADcE6kXUvA2t7nNcPrpp69KCqqe/QWzx+AcV7dFKwJFoAgUgSJQBIpAEdgGBGopuA0gN4siUASKQBEoAkWgCOwNAiEF8w/Cs2lZPvy7v/u7a1oKirMnUnE2vd4XgSJQBIpAESgCRaAILD8CsRLsnoLL39atYREoAkWgCBSBIrCgCExJwVli0LOQgvYUtHw4YTyrZeCCNnqLXQSKQBEoAkWgCBSBfYxALQX3McBNvggUgSJQBIpAESgCW4kAki/7BEr3hz/84WD58O///u+PfzRy1llnjX78QwiGVHTO9VaWqWkVgSJQBIpAESgCRaAILB4CtRRcvDZriYtAESgCRaAIFIFdhsCUyHMdsg8M3//+94d3vOMdw+/93u+tkIKeO6bxhHU/67fLoGx1i0ARKAJFoAgUgSJQBH6MQC0F+yoUgSJQBIpAESgCRWCOEZglAWeLeu655w7HHXfc+O/Dt7jFLQaWgnsi//bkP5tm74tAESgCRaAIFIEiUASWH4FaCi5/G7eGRaAIFIEiUASKwIIjsJZ1H0tBy4dZCt7kJjcZzjzzzAWvbYtfBIpAESgCRaAIFIEisB0IhBRkMbjfdmTYPIpAESgCRaAIFIEiUAQ2hsBapKC9A48//vjhQQ960HD9619//KORtcJvLOeGLgJFoAgUgSJQBIpAEVhWBEIKOpcUXNZWbr2KQBEoAkWgCBSBpUFgtSXAH/rQh4YHP/jBw6/+6q8OJ5988nn2HFyairciRaAIFIEiUASKQBEoAluKQEnBLYWziRWBIlAEikARKAJFYN8igBSc/SORj33sY8NDH/rQYf/99x9OOumk85CCtRrct+3R1ItAESgCRaAIFIEisKgIlBRc1JZruYtAESgCRaAIFIFdhcCU3JslBj/+8Y+PpODVrna181kKCpu40+tdBV4rWwSKQBEoAkWgCBSBInA+BJCC17zmNYcuHz4fNPUoAkWgCBSBIlAEisB8ILAamcda0H6CziwFH/KQh4yWgqeccsoKCaj007ixMJyPWrUURaAIFIEiUASKQBEoAjuJQC0FdxL95l0EikARKAJFoAgUgXUgMCX2cu38f//v/x1JwY9+9KPDH/3RH42k4GmnnXae5cUJ51xScB1gN0gRKAJFoAgUgSJQBHYJAiUFd0lDt5pFoAgUgSJQBIrA4iMQgg8ZOHUsBZGClg+fccYZww9+8IPxEE6c73//+ysWg+7rikARKAJFoAgUgSJQBIpAScG+A0WgCBSBIlAEikARmHMEpkTerLWf+w9/+MPjvw+HFEQGhhAUF0nonGPOq9viFYEiUASKQBEoAkWgCGwDAle/+tXH/QSd99uG/JpFESgCRaAIFIEiUASKwAYQQOQh/uKmxJ5r5N+HPvShkRT078MsBWfD2Hswfs51RaAIFIEiUASKQBEoAkWgloJ9B4pAESgCRaAIFIEiMOcITIm8kHuK7BphaPnwQx/60JU/GuGXOM5Tq8H4z3mVW7wiUASKQBEoAkWgCBSBfYxALQX3McBNvggUgSJQBIpAESgCe4vAlMhznfuQf5/+9KeHP/uzPxuuetWrDieeeOLKcmH5Cptwe1uOxi8CRaAIFIEiUASKQBFYHgRYCoYY7PLh5WnX1qQIFIEiUASKQBFYUgQQfA4uZN8XvvCF4dGPfvRwlatcZfja1742fO9731t5ljBLCkerVQSKQBEoAkWgCBSBIrBJBEIIdk/BTQLYaEWgCBSBIlAEikAR2C4EYvUXUjDLgr/85S8Pj3/844crX/nKw+c///nh7LPPXiEFhakrAkWgCBSBIlAEikARKAKzCMRSsKTgLDK9LwJFoAgUgSJQBIrAHCKQ5cPO+Vfhr3zlKyMpeKUrXWn4zGc+M5KCIRCFqSsCRaAIFIEiUASKQBEoArMI1FJwFpHeF4EiUASKQBEoAkVgzhBA8M06fueee+5oEchS8HGPe9y4fPh//+//PZxzzjljcBaFJQVnket9ESgCRaAIFIEiUASKAASQgjm6p2DfiSJQBIpAESgCRaAIzCECeyIFEX6WB3/pS18aLQXtKfi5z31uZU9BzxxZbjyHVWuRikARKAJFoAgUgSJQBHYIgVoK7hDwzbYIFIEiUASKQBEoAnuDQIhCpB9LwSc84QnjnoKuWRAiDH/4wx+O/z6csziJtzd5N24RKAJFoAgUgSJQBIrA4iMQK0HnWgoufnu2BkWgCBSBIlAEisCSIYDEi6XfaqSeZ1/96leHJz3pSSMp+MUvfnEkBRGBDg5xmLglBZfsBWl1ikARKAJFoAgUgSKwSQRKCm4SuEYrAkWgCBSBIlAEisB2IRBCb7WlwPz80UhIQcuHs9fglExU1qSzXeVuPkWgCBSBIlAEikARKALzi0BJwfltm5asCBSBIlAEikARKALnQWA1UpA1oCXDT3ziE0dLwU9/+tPjH42UADwPdL0pAkWgCBSBIlAEikARmEEgpOD+++/f5cMz2PS2CBSBIlAEikARKAJzhQDLv9nlv/YOZCn45Cc/eSQFP/axjw1nn332XJW7hSkCRaAIFIEiUASKQBGYPwRCCjp3T8H5a5+WqAgUgSJQBIpAESgCKwggBbMkOJ6sB7/+9a8PT33qU4crXelKw/vf//7hzDPPzOPzkYgrD3pRBIpAESgCRaAIFIEisKsRYCGIEKyl4K5+DVr5IlAEikARKAJFYN4RQAZOlw9PLQa//e1vD89+9rOHK17xisO73/3u4fTTTx+rI4w4dUWgCBSBIlAEikARKAJFYBaBWgrOItL7IlAEikARKAJFoAjMGQLZHzDLh91PLQa/+93vDs997nOHK1zhCsPb3/724dRTTx1rIEz+gXjOqtTiFIEiUASKQBEoAkWgCOwwArUU3OEGaPZFoAgUgSJQBIpAEVgvArEOdEb2sQJ0jQR83vOeN1z+8pcf3vSmNw2nnHLKmCRS0J6DdUWgCBSBIlAEikARKAJFYBaBWgrOItL7IlAEikARKAJFoAjMGQIhA1OskH1ZTjwlBd/ylreMJGGsBEMczqaRtHouAkWgCBSBIlAEikAR2J0I1FJwd7Z7a10EikARKAJFoAgsCALIPATf1IXw44f0s3yYpaDlw8cdd9xw2mmnjRaC3//+98doSaPE4BTFXheBIlAEikARKAJFYHcjkD8Zce6/D+/ud6G1LwJFoAgUgSJQBOYQgRB6KVrukYGcZcQnn3zycNhhh51nT0H+WTqcOCUFg2LPRaAIFIEiUASKQBEoArUU7DtQBIpAESgCRaAIFIEFQCCEnnNIPsVG/n3nO99ZIQXf9ra3jcuHkYYhDlkWJv4CVLVFLAJFoAgUgSJQBIpAEdgGBJCCOWopuA2AN4siUASKQBEoAkWgCGwGgSmxF2JQOlNS8Jd+6ZeG7Ck4DYMcnN5vJv/GKQJFoAgUgSJQBIpAEVguBGopuFzt2doUgSJQBIpAESgCS4pAiL1UL5Z/SEF7Ch5++OEDUvANb3jDyr8PCytc4pYYDHo9F4EiUASKQBEoAkWgCMRK0LmWgn0fikARKAJFoAgUgSIwpwiE2EvxQgqyIDz99NOHI488ctxT8B//8R/HPQan4RCHIQQTL897LgJFoAgUgSJQBIpAEdidCNRScHe2e2tdBIpAESgCRaAILBgCU1IQsYcM5Fyfc845w0te8pLhcpe73HD00UcPJ5100uif5/6FOHESb8Gq3+IWgSJQBIpAESgCRaAIbDECtRTcYkCbXBEoAkWgCBSBIlAE9gUCs6Sg+zj/MnzUUUcNl73sZYeXvexlw4knnnge0vDcc88d7xGCJQWDWs9FoAgUgSJQBIpAEdjdCJQU3N3t39oXgSJQBIpAESgCC4LAWqQgoo+F4GUuc5nRYvCEE05YIf88Kym4II3cYhaBIlAEikARKAJFYBsRKCm4jWA3qyJQBIpAESgCRaAIbBaB6V6AWQo8TeuYY44ZLQVf+ML/396dwOsx33sct6cS+5LIQpWgltjq0tLKtQRVpXpdS6suyk1bVC21lKreKrW2vSViKYqLJGIJkcVSQsQWtNlQkgi1VWSViET/9/X5t7/TyZGc85zkyTnP8pnXazrPM/Of//znPc/J9fre38xcl6ZMmZLfSsx22sbtw3wu9lPc388KKKCAAgoooIAC9SWw2WabJYJBlr5opL6uvWergAIKKKCAAjUk0K9fvxwK8sKRyZMnLxQKxotGauh0PRUFFFBAAQUUUECBpRSwUnApAd1dAQUUUEABBRSoBAEqBbl9mErBN954IxWfOVi89bgSxuoYFFBAAQUUUEABBdpewErBtr8GjkABBRRQQAEFFFhqgQgFeQsxLxohCCy+VMRgcKmJ7UABBRRQQAEFFKgpgbh1mKW3D9fUpfVkFFBAAQUUUKCeBCIUvPHGG9O7776bQ8FitSBvKC5+rycbz1UBBRRQQAEFFFDg0wJWCn7axDUKKKCAAgoooEDVCUQoeP3116d33nnHULDqrqADVkABBRRQQAEFWlcgKgV90Ujruns0BRRQQAEFFFCgrALxopE+ffrk24e5dZg53jZspWBZue1MAQUUUEABBRSoegErBav+EnoCCiiggAIKKKBASgMGDEgbbrhhuvzyy9Obb76ZSQgFefMwE8viMwY1U0ABBRRQQAEFFKhvAULBmH2mYH3/Fjx7BRRQQAEFFKhigbvvvjt17949XXDBBWny5Mm5QpBnCM6bNy+fFRWDUTVYxafp0BVQQAEFFFBAAQXKJGClYJkg7UYBBRRQQAEFFGhLgXvvvTdttdVW6bzzzkuvvfZargokFJw7d25bDstjK6CAAgoooIACClSoQFQJsrRSsEIvksNSQAEFFFBAAQWaE7j//vvTdq3sAaQAACAASURBVNttl84+++z06quv5lCQ24V5lqBVgs3puV0BBRRQQAEFFKg/AUPB+rvmnrECCiiggAIK1KDA4MGD0w477JDOOOOMHApGEEi1YHyuwdP2lBRQQAEFFFBAAQWWUMBQcAnh3E0BBRRQQAEFFKgkgagUPOuss9LEiRPz0IovGqmksToWBRRQQAEFFFBAgbYXiFCQ51J7+3DbXw9HoIACCiiggAIKLJHAfffdl3r06JFvH540aVLuI24fjg6tGAwJlwoooIACCiiggAIRCrI0FPT3oIACCiiggAIKVKnAoEGD0jbbbJN+8pOfpGIoGG8f5rQICZmdFFBAAQUUUEABBRSgQpBA0EpBfwsKKKCAAgoooEAVC1Ap2DgU5HmCxVCQSkFDwSq+yA5dAQUUUEABBRQoo4CVgmXEtCsFFFBAAQUUUKCtBHim4LbbbpsaP1OQtw/H5O3DIeFSAQUUUEABBRRQwEpBfwMKKKCAAgoooEANCPD24R133HGRbx+ugdPzFBRQQAEFFFBAAQXKLGClYJlB7U4BBRRQQAEFFGgLgSFDhqRddtklnX766WnChAlp/vz5eRhRHchtw3x2UkABBRRQQAEFFFAAASsF/R0ooIACCiiggAI1IDBs2LC02267pdNOOy2NGTOm4VmC8RxBni9oKFgDF9pTUEABBRRQQAEFyiQQLxlh6duHy4RqNwoooIACCiigQGsLPPTQQ2mPPfZIvXv3TmPHjk0RAkaFYFQMGgy29pXxeAoooIACCiigQGUKWClYmdfFUSmggAIKKKCAAi0SeOSRR1KvXr3SUUcdlcaPH5+rAgkACQdjimAwvrtUQAEFFFBAAQUUqF8BQsGYrRSs39+BZ66AAgoooIACVS5gKFjlF9DhK6CAAgoooIACrSxgpWArg3s4BRRQQAEFFFBgWQgYCi4LVftUQAEFFFBAAQVqVyCqBFlaKVi719kzU0ABBRRQQIEaFzAUrPEL7OkpoIACCiiggAJlFrBSsMygdqeAAgoooIACCrSFgKFgW6h7TAUUUEABBRRQoHoFrBSs3mvnyBVQQAEFFFBAgQYBQ8EGCj8ooIACCiiggAIKlCBgKFgCkk0UUEABBRRQQIFKFzAUrPQr5PgUUEABBRRQQIHKEjAUrKzr4WgUUEABBRRQQIElEjAUXCI2d1JAAQUUUEABBepWYNNNN00Egyx90Ujd/gw8cQUUUEABBRSodgFDwWq/go5fAQUUUEABBRRoXQErBVvX26MpoIACCiiggAItFvj73/+ePv744/TJJ5+kBQsWpPnz5+c+WM93lk888UQ6+OCD0ze/+c00ZsyY3IZ27MO+0Zb2TgoooIACCiiggAIKWCnob0ABBRRQQAEFFKhggQjzIhQk6IvPbJs3b16eR44cmQ4//PDUq1ev9OKLLzaEgrQxFKzgC+zQFFBAAQUUUECBNhKwUrCN4D2sAgoooIACCihQikCEelT4FSsFo+Jv7ty5ac6cOblS8Igjjkg9e/ZMo0ePzm3ZN+bYn+9OCiiggAIKKKCAAgpYKehvQAEFFFBAAQUUqHABgrzZs2c33DpMdWCEfbF85pln0jHHHJMrBZ9++ulcPUiFIKEh1YWzZs3K6yr8VB2eAgoooIACCiigQCsJxEtGWPqikVZC9zAKKKCAAgoooEBLBAj+CPUI92bMmJFefvnl9Nhjj6X7778/jRo1KlcG3nTTTWnfffdNu+++e7rlllvS888/n8aOHZu3/fGPf0xvvPFGDgjpy0kBBRRQQAEFFFBAASsF/Q0ooIACCiiggAIVLkCQR9UfoeDbb7+d7rjjjvS1r30t7bnnnmn//fdPBxxwQNp1111T165dU6dOndJuu+2Wtx944IF5uc8++6QHH3wwTZs2Ld9WXOGn6/AUUEABBRRQQAEFWkGAUDBmKwVbAdxDKKCAAgoooIACLREgEORZggSCzFOnTk233XZb4jaPVVZZJa244ooN8worrJDXLb/88mm55ZZLfG/fvn3q0qVLGjJkSK42tFKwJfq2VUABBRRQQAEFalfASsHavbaemQIKKKCAAgrUgAAhHmHghx9+mJcEhC+88EI6+uij0+qrr54IAFdaaaW08sor5xCwQ4cOOSQkFCQ07NatWzrooIPS+PHjG14+UgMsnoICCiiggAIKKKDAUgpElSBLKwWXEtPdFVBAAQUUUECBZSFAEDhz5swcCtL/9OnT09ChQ9Pmm2+e2rVrl4NBwkFmKgepEOTzqquumnbYYYfE8wbfe++9vD8Bo5MCCiiggAIKKKCAAlYK+htQQAEFFFBAAQUqWIBA8KOPPspvHua5ggsWLMgzLw7p3bt32njjjRuqBKkMJAwkKKR6kEpCnif47rvv5n2oOvT24Qq+2A5NAQUUUEABBRRoRQErBVsR20MpoIACCijQWgJz587NVWHFEGjevHkLBUOxzeU/grJKdiAIZHwRCvKZysHhw4enL33pSzkUpEKQUJDbhgkEmXv06JGuuOKKhgrD+P1V8rk6tkX/HgmH+RvmNxATVZ/xm4h1LhVQQAEFFFBAgVIFDAVLlbKdAgoooIACFS5AcBSBQVSWFdcZCi46bKn0ECp+dowzqgQJiLjWvE34xBNPzM8NpEKQIDBePEKV4GGHHZbGjRvXsB/7s2+ln7PjW/RvlWvOTBg4Z86chs9cUycFFFBAAQUUUKClAoaCLRWzvQIKKKCAAhUqEEFBBAQEKwQIBIRMhkGLDlqqIYCKnxxjjeqwWDdw4MDUq1evHAYWg8Gtt946XXrppTkAjHA4Ks2q4Zwd48K/V64hJvwdUwnMcyUb/03Hb8KlAgoooIACCihQisAmm2ySCAZZ+qKRUsRso4ACCiigQIUKRGBEYEBYEFVFMVzCQdZFtZnLfzybr9IdIvhhycz15U3EfGZ6/fXX08knn5zWWGONfOswwSAvGjn++OPT6NGj8/WmXfw+/A1Ux3Vv/LucPXv2px4JECFh47/1+Jt3qYACCiiggAIKNCVgpWBTOm5TQAEFFFCgSgQiMGLJbYXMVJRFaMAy5io5JYfZSICQKK4hSyaWBEIDBgxIe++9d37JSPv27fNbia+//vocHlIdyESoRDAc++aV/k/VCPC3zbXjGs6aNSt/Zsn1Z73XtWoupQNVQAEFFFCgYgSsFKyYS+FAFFBAAQUUWHKBYihI+FMMCtjGRKhUbOfnf1TeVboD143rSdDLZyYCIMYdwe/LL7+czjvvvEQgyHMFjz322DRq1KiGdtEH+8S+lX7ejm/h32dca64ln5n4XfAdKycFFFBAAQUUUKClAnHrMEtvH26pnu0VUEABBRSoEAGCAWYCn3ihCLeZFivDIjwwbFk4bKkGD0IgriVjjVCveM25nXjQoEFp1113TWuttVa69tpr01tvvZV/ExEosi+f+X1Uwzk7xoV/p1w7TJi49oT/fOf3wO+j+LzICvlnyWEooIACCiigQIULWClY4RfI4SmggAIKKFCKACEBwUCEBHyfOXNmDg5mzJiRRowYkR566KE0fPhw5yo1iOs3dOjQNGTIkMRy2LBhDXPfvn3TQQcdlDp16pQuu+yyNHjw4NyOtgSGtL/vvvvy7O+guv4OuM7Fa/7AAw8kXjDz6KOPpnfffbehkrT4/wQo5d8N2yiggAIKKKBAfQtEpaAvGqnv34Fnr4ACCihQ5QJRLUR1IIFghIOc1rPPPps23HDDPG+wwQZp/fXXd64yg44dO6Zu3brlwG+99dZLzFzHddddN3+OdbHkP/Bo37lz5/S5z30uf6YPrr+/ger9/cf1JfjlP965tvfcc0/D7cT8O+CkgAIKKKCAAgqUKmClYKlStlNAAQUUUKDCBQgEIhSIJQEh1UQ8a+7BBx9MkydPdq5Cg0mTJqUpU6Y0XDveOMy1HD9+fJo4cWJ+AzHf4zPL1157LbEfbfnMOtrEvv4WqutvoXj9uIbjxo3LwSAvmeHvnf9HgJWCFf6PtMNTQAEFFFCgwgQIBWP2mYIVdnEcjgIKKKCAAi0RKIaCUSnIuscffzy1a9cujR07tiXd2baCBCLkLQ6JddwyXtwWn7n+xd9AfC7u7+fqEohry6j5/MEHH6Tu3bunfv365e+s4/8J4KSAAgoooIACCpQqYKVgqVK2U0ABBRRQoIIFCARiZphxCzGfn3jiCUPBCr52Dk2Blgrwtz516tSGUJDQl4n1TgoooIACCiigQKkCUSXI0krBUtVsp4ACCiigQIUJRCAYoYChYIVdIIejQBkFDAXLiGlXCiiggAIK1LGAoWAdX3xPXQEFFFCgdgQMBWvnWnomCjQnYCjYnJDbFVBAAQUUUKAUAUPBUpRso4ACCiigQIULGApW+AVyeAqUUcBQsIyYdqWAAgoooEAdC0Qo+LnPfc7bh+v4d+CpK6CAAgpUuYChYJVfQIevQAsEDAVbgGVTBRRQQAEFFFisQISCLH2m4GKZ3KCAAgoooEBlCxgKVvb1cXQKlFPAULCcmvalgAIKKKBA/QpQIUggaKVg/f4GPHMFFFBAgRoQMBSsgYvoKShQooChYIlQNlNAAQUUUECBJgWsFGySx40KKKCAAgpUh4ChYHVcJ0epQDkEDAXLoWgfCiiggAIKKGCloL8BBRRQQAEFakDAULAGLqKnoECJAoaCJULZTAEFFFBAAQWaFLBSsEkeNyqggAIKKFAdAoaCS3+d5s2bl+bPn587wpPPzJ988kkK3zhKbIvvLNmfOabYl+/sTz8LFizIbdgW66N94+9xzFh+9NFHuY+PP/54oeOwvfHEcZhjX8bF/qwrTqxb1Fhiv2gb32PJ+nCJ82IZ62Nb9M16jl38Tl+sK55PcTy5M/9nkQLYTZ06NXXv3j3169cvXwsast5JAQUUUEABBRQoVcBKwVKlbKeAAgoooEAFC0RYE6EAYUuENE888URq165dGjt2bAWfQdsODTeCMwKqsGPJHKZ4RjDHZ7YxhTP7Mkd7Psc22rGe7wRjsZ519BltWR+foz3HYR0z6/ge4RrfY1uxX/phZjsz26Jdcdyso10cg7YxVtZF2+iDfopt+Mwcx2Jf2rAf62NZPDbroj1L2keYyjKOmQfi/yxSAFtDwUXSuFIBBRRQQAEFWiAQLxlh6duHWwBnUwUUUEABBSpJIMIZlkwRvPDZULD5KxUBFgFVzLEXwVXMc+bMadgegVcEXPQR7VjST3EbwdjcuXMXCr3Yh3WEYbEvn9mXbcx8JjiMz3Fcxsc22sfMMWKiv+LvIPaPcXEutGGiHX3Qhokl62gbE2OINqyPfuI40a54zOiL/SKAjGXxWPTFfsyxPvpz+WkBjAwFP+3iGgUUUEABBRRomYCVgi3zsrUCCiiggAIVKUBIEDMDLAYzhoLNX7KwY4ldMVyLAIxe2M42ArUI6lhHMMaSic8RnkXQxXLWrFnpvffeyyFg9BWhXOPvcf3ok5kxMH344Yf52HE8AsX4TJsYE23pI8K4vHPhf9g2bdq0hhAuxh5N2E5/xfXRF9sYx+zZs3MbPOK4xfZ8Ls6Ms9hvtGXJ+jiXGIPLxQtgZii4eB+3KKCAAgoooEBpAoSCMVspWJqZrRRQQAEFFKg4gWL4wuAIWSJwMhRs+nJhR+BFCEbAFeFX472iXYRwfI8wi33Cm2UEaiyZmeIaRb+snzlzZt6PfggaCdtiYjvrixPfGSPb6I/2fCaUI1RrfIzYN9azf4w/+mDs7B/jj32i3/heXNIf+xTHF+ui/xgr44pjFcfBusbHLB7Dz4sXwNFQcPE+blFAAQUUUECB0gSsFCzNyVYKKKCAAgpUtECELSyZIvzhs6Fg85eOcKo4Fx0JryIsjHALX2basR8BGXMEiqynko7vtGM/lkxR7UebWBefaRcT2wjUCAuZaBMz26Jv1sXY+RyhIW3oL8K72Le4pN9ox/o4Tizpl4k2cY58ZoowMUxY0j764TPraM+6aM96qib5HmMp9sk+Tk0L4GYo2LSRWxVQQAEFFFCgeYGoEmRppWDzXrZQQAEFFFCgIgUiXGHJRMgSgY6hYNOXDLMItGhJCPf666+nZ599Nj366KPpj3/8YxoxYkR65pln8nrCsbfeeis999xzDdsffvjh9NBDD6XHHnssPfnkk+mRRx5JDz74YBo2bFh66qmn0ptvvtkQkLE/YR9Vgn/5y1/SyJEj8zE4Fsdhfumll/L2CCO5lsyMlX1fffXVdP/99+djcVyOw3V++eWX8xgJHmMfzo2ZffldMDOGSZMm5f057tNPP52/hxRtY2YM7EMffCbQY198Hn/88XzO9MHxeZkN26ZPn573jzHPmDEjjRkzJrtwfowXM/ZjOXz48DR58uQcpLKPU9MCXBtDwaaN3KqAAgoooIACzQtYKdi8kS0UUEABBRSoeIEIcFgyGQqWfskwo2qNMOqDDz7I4dZll12WTjjhhHT00Uen73znO3l54oknpksuuSQHeaNGjUqXX355Xn/EEUcs1O74449PrDvmmGPS4Ycfns4555wcnnFNCNUI9V555ZXUv3//dO655+Z23/rWt9K3v/3tfKyjjjoqnX322enee+9NEydOzCFlhJaMlUDy9ttvT9/85jfTsccem9j3P//zP/MYzjrrrPSLX/wi3XPPPTlYJMBjinAuAsL3338/XXvttal3797pyCOPTN///vfTlVde2RDKxe+J/SJgJCydMmVKDjvPP//89IMf/CB997vfTYyXPjjfU045JV1wwQVpyJAhObSKq0AgeMUVVzRYYoQr54wVfQwYMCC9/fbbeayxn8tFC3B9DAUXbeNaBRRQQAEFFChdwErB0q1sqYACCiigQMUKRIjDkslQsGWXCi/sqOo7+eST00YbbZS6deuWttpqq7Tlllum7t2753mTTTbJgdcDDzyQfvjDH6YePXrkhzPTZp111knLL798WmWVVdKGG26Y991ss81yYEfAR/9U6BH0/fa3v01f/OIX07rrrpvb0j9t6b9z586pQ4cOac8990xXX311bk+YGNf2hRdeSD/60Y/SyiuvnFZYYYW8z9Zbb53379KlS1pppZXSjjvumC666KI0bty4hUI2Qj76Gj9+fNpjjz3S6quvnpZbbrnUrl279OUvfzlXGRKQxkR7boNmSfXi9ddfn8NIjs04Ge/mm2+e50033TS78R+XBKijR49uGPOgQYPSfvvtl31WXXXVtNNOO2XPz372s4n9+M54CUsZn1PTAvwWDAWbNnKrAgoooIACCjQvYCjYvJEtFFBAAQUUqHgBQoKYGayh4JJdsn79+qWePXvmgI9gi1tiCcP+/Oc/5wo5Ktu4RZfbfrlFmNtguR32pptuSnvttVcO1wi57rjjjlwJOHTo0HybLbfGEgi+++67OegjgFtvvfXSQQcdlG699db0/PPPpwkTJuS+qKjr1KlTDvd69eqV7rzzznwyBHNcY25LpjLwM5/5TGrfvn266qqr8m273M5M2Lj++uvnwPCrX/1q4nwI9ZgiEKRKkJCO/QkVCTKZt99++3ybM5WMcSz245hM9E2bFVdcMe9LpSS3SnMrMzO3IFPthxuVhFRTcs7sTyi677775nPiPz45Z8bGLdDcns1t19x6HGPNB/R/FiuAqaHgYnncoIACCiiggAIlChgKlghlMwUUUEABBSpZgJAgZsZpKFj61cKNW2MJpM4777y09tpr5ypBqgG5XZZn/7Gd5+IRBvKZ4Izn5hHM/O1vf8sVbtwOS9C2zTbb5BDxnXfeSe+9916+JZn27Ef49Y1vfCOtscYa6Qtf+EIOxGjHLbq04XZfAkRuwaVycM0110yHHnpofk5fPBeQEPK//uu/cqBHVeLdd9+d96MPqhAvvfTSXL241lprpZNOOik/CzCCPsI+npfIrcKEe4yZ237/7d/+LR/vf//3f/OY4/mBtGcmHD3wwAPTaqutlisgb7zxxjwmxkvwx4wTtzYTEDIOXNiXibCQ0JQqRioLCUDZPm3atOzIbdv4RPvSr159tjQUrM/r7lkroIACCihQboGNN944/3cjS180Um5d+1NAAQUUUKCVBCIQZMlkKFg6PGbcskrox63D3BrLfxj16dMnB1yEVdxSG88dpG2EVywJ0AgPebYfodcOO+yQvxOUsY1rwUz/F198cQ4NuW2WwI510Qf90p4Aj6o5bu+lgo+qQl5ywvEZK8Eiz+AjECTYoxqRPthGf/fdd19DRd9hhx2WA0P6ZTszFX0EgVFl+Ic//CE/148Qcffdd09/+tOfckAX58l5EDRyqzRVkNy6TMVjjAfp6JvjsB/7cB58Zttdd92VqHqM250JQos2+ETb0q9c/bbE1ErB+r3+nrkCCiiggALlErBSsFyS9qOAAgoooEAbCkQow5LJULDlF4NKO14kQoUet/bus88+6cILL2x4M24xFMS3OFHdxy29hF5U3VExF9V5XBMCL6oGDz744NSxY8f8vEBuMY5wMcI0jkHFIksq86I/br8lnGTijb1Rlch2bmHmGARxVDIS4H3+85/PweaZZ56ZQ0H2i755SQnbCQUHDx6cXnzxxXTGGWfkQJNKQNZRwRdhJZ85N25pJqjktl8mxsw5Ui1IGBkVlVQAUkXJOUfQx4tPuH2YkJNnNfKsQ97I/MYbb6S//vWv2Sa8cuf+T5MCXG9DwSaJ3KiAAgoooIACJQhYKVgCkk0UUEABBRSodAFCgpgZq6Fgy65YBGA8B48XiBDcUfXHCz++/vWv5xdsUL3Hba4RdLFPhIO8NZe36FK5t/POO+dQkBAvrgOBHAEYLy6hEpG3EvMcQYI1rltMfCdco29uMyb04yUiPDcwgrrHH388v2mYfnhJCNt4qQcVhFQ37rbbbvkFILyZmOf1xUS/r732Wvr5z3+en33YtWvXvB/rr7nmmrTBBhvk4/FyEwI7xsW4CTy5JZpzI9Sk0pAJB25F5tZinlHI8wEfeuihNHDgwMTzDSPkox9ucSZk5Xyw5TZlXlrC/Pvf/z4/f5EwlPN2al4AU0PB5p1soYACCiiggAJNC1ApGMGgtw83beVWBRRQQAEFKlaAkCBmBhlhFJ8JbXi7LKGW06cFcKNKMAI+nE455ZT8PD9CLG7TxY9bfqmSIzAjECMwI1BjYnn00Ufn0Gu77bbLYRltYqYtz9njLcMEeYSCxetBGNY4ECMUpC1VfbzkgzfzErTxhuTjjjsub2M7b/NlfFThEWTyvEICQcJDQsbixPMIuXWYcfz6179O3MbL9Oyzz+Y+Od9TTz0130LMeAg2qSTktmH6/+53v5sDz+iTqkJC0whQ2Z8KxO9973u5GpDxMgZelrL33nvnPmhDX8WZtxgzFry4Hk5NC2BkKNi0kVsVUEABBRRQoHmBCARZGgo272ULBRRQQAEFKlIgAsEIVAwFW3aZCMCwI7yjIo+XZXCb7emnn56fz0dVHmHXjjvumG6++eZ8yyvG3LLLkjf6HnnkkTmoIxSkuo6+CMSYCbtYF6Egt+NSTce2uHYRDMY4/uM//iOHfTyj8JZbbsm35FJN9/DDD+cAklCNQHD//fdPhxxySOK4jJFbfG+77bY8RsbHrbwch4DuJz/5Sb41mnEMGTIkbyP4443KvHxk9dVXT126dEk33HBDw8tPxo8fn8eNAYEityhHgEnwyFuICRJPOOGEHEgS+vEiFN7YHK48UzAqBbk1m2rE6667rmFJdSG3HTNOp+YF+I0YCjbvZAsFFFBAAQUUaFogKgUNBZt2cqsCCiiggAIVLRDBEksmQ8GWXy7sCKUI8wjQCKl46Qbh1QEHHJCr4Xi78Lnnnpur4CLEY8mLN3jRCJV722+/fa4UpA+uQ/TLLcZxGy7VdTwbMCrj4vrRPqoLuVWXW3Z5SzGhGdWIjI39eNEIoSAh4BVXXJGDQoI2nttHVR+3QFNRSF8Eg4yRZ/8df/zxeYxUPRJ6cssvMxWQ55xzTq6KJPzjFmNud2Z/nvnHuFnPcw4feeSRhjCT6r6XXnopB4AEhBtttFF+AzOhYISeXAnGHy8aoQ1BY/GZgvgRTjJOp+YF+L0YCjbvZAsFFFBAAQUUaFrASsGmfdyqgAIKKKBAVQhEqMSSyVCw9MuGGeEXgRRuBIPxPQI/Kue23XbbHAxyazHPA6RtTBEKEtRRTcjbiIshF/1QsUcYuPbaa+c3CvPWX47F8dkeMyEeLyoh4KPqjmcEcgs4VYJs4zmBhIJs49ZmQj3CwkmTJuWqPaoHt9xyy/ysQV5uwjEYKwEnFYWMkTHwDES+M3OrMsehT24FJtQj5GNMhJGEgbydmDY33XRTriIMI8ZP/xgQSBKc8iIUnj3IsZkIBeP2Yf4/0oSJ7BPnTLuwCFOXixfA3FBw8T5uUUABBRRQQIHSBAgFY/b24dLMbKWAAgoooEDFCRASxMzgInDhs88UbPpy4cYzBQnxCFp4mQjrCKkIrbAcOXJkOuyww/LtvNxSTChIKMZEmwgFCdUIBblVOCoF2c5EoHfRRRflF4fwH18nnXRSPh6BHn1xHGbGwO3C3A685ppr5vCOKkPGwzip1OM2Xo7F/OCDD+b9CO+41oRuPFeQNjxDkHFwDG7z5VbkddZZJz+nkP4ZKzPrCT0333zzHOrxnZeWcEzG9pvf/CZXC7L9xz/+cRozZky+ZZp+GTPnRuUfFYiMiWcmxgtJsOT2YSoFqaSkUpAqTNbHxGf6CqtY73LRAngZCi7axrUKKKCAAgooULqAlYKlW9lSAQUUUECBihUgJIiZQRLURMBiKFjaZSPIGz58eL49N4I0loQvvC2XsIsquzPOOKPhJSEYEyZyqy1BGNsJ23jLLyEX2+gjrgm39O633365Go+3ChOWRVUh4Rth2dChQ1Pnzp1zX7vsskt+MzDXlu0cj5eCfP/738/bqQrkjb8RKFIZeNpppyXeLMwtv9xaHL+LqATk+NyCzJuDY2YM5fU+ZgAAIABJREFUEyZMSLfeemuu9uNceXEK/bE/4+I5iKznmYMnn3xyeuaZZ7INgSDnyHMYqRSMUJBxMhEsFl80wn98UinI+uLMOXAsp+YFcDIUbN7JFgoooIACCijQtEBUCbK0UrBpK7cqoIACCihQsQIR/ESoYihY+qXCjMCNUOyss87KzwQkQPvVr36VLr300nTooYembt265Zdw7LXXXjm042Uk7BfOhGpUEvIMwJ133rnheXyEeFFtR/sZM2ak66+/Pn3lK1/JLwnhhR9bbbVV6tGjR67UI8hjHWEfbx3+5S9/mYM79iV4oz+qFqkCJICkHS8eYRtVhDw38J577snBZIcOHXKVIW895hl+VP+xD7cNU9lIaMl5E1yyH+dEmEmoyXlwSzHPBeTYtOE2ZdbxbEFeFrLZZpvl4JFKQ557yC3LvKiE2485Rtw+zP6En4SR7Mstz5wz4+H5i+zPS0ioRqTa0Kl5AUwNBZt3soUCCiiggAIKNC1gKNi0j1sVUEABBRSoCgFCgpgZcIRVfLZSsPlLSNhGKHbjjTfmt/dy+y3BFdV8BIJbbLFFfo4fL+fgxRuEaVHlRu9UCvIcPl78QUDGMwGpoKNf2ka1IN95MQfPKKQ9YSDhHc/hIzDj9lqCPqoOaUOYF7c20x9BHteTSkGeC0gwx/cIHtnOsY877rhcbcibiAcNGpSfA0jYSAB31VVX5THxe4lgkN8LfXAsQtCOHTumnj17pjvuuCPjsZ0gcfDgwfmNzDwbcbXVVsvjpTKQIJBxE/LxUpa+ffsmbnnmfJkZI6EpbQkmOVeCx/jMLc+83ITKRafmBQwFmzeyhQIKKKCAAgo0L2Ao2LyRLRRQQAEFFKh4gQgEWTIZCpZ+ySIcI7x65ZVX8vP8uAW3d+/eOVzj2X88j49n+cWLO2iLMTMTgSLPAeQlJBdffHGuCCQMjHZ8ZuJYVN1REUdQRkB36qmnpu9973u5+o9bdnlmH7cEE6oR2hHWEQhyLPqh8q9///7pzDPPTJdddll+fmEElLQh2CO8u+CCC/Ltw1QWDhs2LP3sZz/Lb1ImaIyx0C/7sh/HYrzc6nv++efnc+ZlI3EebON5izxPkKpBqirDiLca88bj3/3ud+nee+/NjvTLPvRLJeXNN9+cn6NIO86ZW5D5jBmBILdNc5sy+zg1LcDvyErBpo3cqoACCiiggALNC0QoyHOhvX24eS9bKKCAAgooUJEChAQxM0BCnghXCJ/atWvX8By8ijyBNhwUbrzZlxArDPHjVl+CF5ZR9ccwow1LJtoyE/bRLqZoV/zONYk5tnPrLgEgbw+mCjEmXhxCwFec4royVvaLPgjeIjgkuCPIY1uMjT44brSP30YEfuyPAe2ZYj/acV5hQ3u+Rz+MkSDv/fffz28pjuOyH32wH+OK47BfbGM7n6Mv2sQ5FM/Zz58WwMxQ8NMurlFAAQUUUECBlglEKMjSULBldrZWQAEFFFCgYgQiWGHJFIELnw0FS7tMBFjMBFXMEVBhiifBGZ8Jr5jDmDCNmXUx0Y6+aBPXhG3RT+zPd45DW9bxOY5PIMj34sRxuBWZ/ZiZGBf7N54iKIz19BfHLR4nzo91tOH4BH8R/rE/x2J9nAuf6Z+xMBePTxvWMdZoH2PgO2Ogb7bHOGK7y9IEcDQULM3KVgoooIACCiiweAEqBAkErRRcvJFbFFBAAQUUqHgBQoKYGWyEOHw2FCzt8hX9+EzQ1TgIixCr2JY20Q53wrK4BgRg9EN7ptiv+J0gLtrQngrA6JPvBGwR/NF/9BFtiuEa7Yp9x2eOHWOM/VnHcaN/1tMm2kawF+2mT5+egzy+0zZCRo6JS0zRT/TFevoiCOR84vgxHpaNnaIvl4sWwNBQcNE2rlVAAQUUUECB0gWsFCzdypYKKKCAAgpUrEAELSyZDAWX7FIRUBGUFcMrvjNjSrgVYRfLCOkIxtin6M61oE3M0bbxyCKYIzSjf/phju/sx0zwxvoYT3xmGX3H2DgG7YoVeXyPMfOZiTHyOfanL26X5nxYx/cYP+uY4xjsx3gZV/Qdx2Vf2rE/x+B7tGE9/cT3cIp9+O7UtABGhoJNG7lVAQUUUEABBZoXsFKweSNbKKCAAgooUPEChAQxM9gIWPhspWDTlw+3CK/4HAEWe/G9GIZFpSBt2Cf2YxmhXYRhEZ5FP4Rg9Bff2U4/TBwjAkG+s74YuMWY6CM+x/EXdxzaMiaCQfpnv9g3xhJjYMnYWE+lYpwX66MN25n5zsQyzjn2jbHHsTiHYnvW853++cx+MUXfxXWxzeXCAhgZCi5s4jcFFFBAAQUUaLmAlYItN3MPBRRQQAEFKk6AkCBmBhfhC58NBZu+XLgVw6ti6wiwIkRjGesiaGN/Jr4TkmFPfxF6xXWJdrTlM301Dt8at6UNfdE32zg2c3yO8RTXxRhoE8da1Oc4jwjooo/Yh++cA1O0yV8KYSltmOi/eL6sYxvjjjZsZ7wxsU/MxXXx2eXiBXAzFFy8j1sUUEABBRRQoDQBKwVLc7KVAgoooIACFS0Q4QpLJgKYCGMMBZu/dGEVLcMxvheXtGUOc4IuPhOAMRenYtvG6yNwow3BX4R5fI8+2YfvEQrSjoCuOEXYFv2xLcbGkr4ifCzux7Y4Jm3om2MxsYzPfGf/+M5+HItnGbIfUxyP9bSL73njP/+HddEHq2jbOGyM/Yv7+fnTAlgaCn7axTUKKKCAAgoo0DKBeMkIS98+3DI7WyuggAIKKFAxAhHCsGQqhiuGgsv2MoV5XIMlOVrjfaPP6Cu+N27XeHt8Ly4Xtw9tmus3+ol28Z1lhH/FdS39vKh+W9pHPbbHzVCwHq+856yAAgoooEB5BawULK+nvSmggAIKKNAmAoQEMTMAQ8E2uQweVIFWETAUbBVmD6KAAgoooEDNC0SlIOGglYI1f7k9QQUUUECBWhWIQJAlk6FgrV5pz0uBf1R4WinoL0EBBRRQQAEFllbASsGlFXR/BRRQQAEFKkDAULACLoJDUKCVBKwUbCVoD6OAAgoooECNCxAKxmylYI1fbE9PAQUUUKB2BQwFa/faemYKNBYwFGws4ncFFFBAAQUUWBIBKwWXRM19FFBAAQUUqDABQ8EKuyAOR4FlKGAouAxx7VoBBRRQQIE6EogqQZZWCtbRhfdUFVBAAQVqS8BQsLaup2ejQFMChoJN6bhNAQUUUEABBUoVMBQsVcp2CiiggAIKVLCAoWAFXxyHpkCZBQwFywxqdwoooIACCtSpgKFgnV54T1sBBRRQoLYEDAVr63p6Ngo0JWAo2JSO2xRQQAEFFFCgVIEIBTfaaCNvHy4VzXYKKKCAAgpUmoChYNtekfAvjoJ1xan4PdoX10XbRa1jW1P7xL6LWsZ+i9rWeF1TbRc3rsX1UWr7xvv7vXkBbKdOnZq6d++e+vXrlz755JO8k+bN29lCAQUUUEABBf4lEKEgS58p+C8XPymggAIKKFBVAoQBMTPwBQsWNAQFTzzxRGrXrl0aO3ZsVZ1TpQ+WIGb+/Pl5mLNmzUrz5s3L5rHuo48+yteBBlybjz/+OC9jP7bPmTOnYR1t2Bb78T0mPkf76J9tEQax5JrHPnznMzPH/fDDDxvasi62R/8sWc85xPGL2/hMP3Fs2i5uoh190Bdjciq/AP6GguV3tUcFFFBAAQXqTYAKQQJBKwXr7cp7vgoooIACNSVASBAzJ2YoWP7Liy9hVwRws2fPTpMmTUr33XdfGjhwYLrzzjvzzPdnn302/fnPf07vvfdeDtPYh5l9Ihykr3feeSc9/PDDeX8qvujjnnvuSYMHD0533XVXGjZsWBo/fnwidHz11VfTkCFD8vGef/75hkCR8I0+6T9CO47NOB555JEcHrF+4sSJ6aGHHkr3339/Gj16dENQyL7MTPTx2muvpeHDh6cBAwaku+++O4/t0UcfTW+++WYeB+dAu7feeis9/vjjefvtt9+eK9YeeOCBPHb24/O4cePS3Llz81jjGOW/MvXXo6Fg/V1zz1gBBRRQQIFlIRCBoJWCy0LXPhVQQAEFFGglgQgEWTIZCpYfHluCrVhOmTIlB2H77bdf2meffdLee++dlwcccEA6/PDD01FHHZV++MMfpmuvvTaHY+xLQBYhHoEh4d+3vvWtvO8ee+yR9tprr7Tvvvum/fffP8+nn356DgZnzpyZHnvssXTCCSck+j///PPT9OnTczhHtWFU5dE/gd15552X25199tk5TOTYBH2nnHJKOvjgg9NZZ52Vg7qo6CPoI3S8+eabc5uDDjoo7bnnnqlXr155bIzxF7/4RR4DxyBkJCjk/Gjz7//+77l9jBsPzr9///45SGR8EViW/8rUX4/8Bq0UrL/r7hkroIACCihQbgErBcstan8KKKCAAgq0gQAhQcwc3lBw2VwEjLElZON27J/+9KdphRVWSCuuuGLadNNN01e+8pWGgG/LLbdMa665Ztpuu+3SBRdckINBwjcCMmaqDC+55JLUsWPHtNJKK+VbN7785S+nnj17plgSCo4YMSKHiSNHjky77757bkvoRijJWAjpGA+f6Z+Kvt122y2tssoq6ZBDDskVghzvtttuy8Fdhw4d0i677JJDuggpqSLs27dv2mmnndJaa63VcC4EnoR+jGeHHXbI48WA/W655ZbcnrGvt956DWMmTOQcDjvssHTHHXfkisTi73HZXJn66pVrYChYX9fcs1VAAQUUUGBZCESloLcPLwtd+1RAAQUUUKCVBCIQZMlUDGF8pmD5LkKEcFS9cYsulXeEb6uuumo69dRT8+25o0aNStzee/nll6ddd901rb766jlk+/nPf57+8pe/5FuQGRGh3oUXXpjWXXfd1L59+3Tsscfm23G59ZggcOjQoem5557L4Q/Vfx988EGigo/nQxL60SYq/RgX156KQm4/3n777dMaa6yR/vu//zsHkGzj9mRCy+WWWy4HlfEbYR9uVaZKkW3rr79++vGPf5z43bz++utpwoQJ6YYbbkgEhFQLMhZuZ/7973+fj8N46JfboJ9++un04osv5uWTTz6Zb0XGKqoZy3cl6rsnrqehYH3/Bjx7BRRQQAEFyiFgpWA5FO1DAQUUUECBNhYgJIiZoUTgw2dDwfJenHB+4YUX0g9+8IMc0lEtePXVV+eKParyeLEHIR7VedwOTHDYpUuXHBoSwtEHgdtFF12Uq+yWX375RFUg4RkhGpV/zHymLRPLq666KlfnbbPNNqlPnz75mYS0Y6Itz/m75ppr0mabbZZvE+YZhKxnImSk6q8YClJZSJDHbckrr7xyrnq87rrrcmDJeUQFIuPifF9++eXcF9tuvfXWtOOOOybGzq3TrJs2bVpDAMh35vDKO/o/ZRHA1FCwLJR2ooACCiigQF0LEArG7NuH6/qn4MkroIACClSzQAQvLJkMBZfN1QxfquUIyX70ox/lII2gjWcHsp4QjiUzzw382c9+loMzqgkvvfTSfNswbV555ZX87L9OnTrlPnjOX7F/PtMuqgH5/uCDD6YDDzwwcQsw1Xlvv/12Q3hIWyoRv/CFL+TKw5NOOim99NJL+beABiEelYvc6sxtwlT7EfrddNNNufJw7bXXzrcbc1s0IWCEkhyfcyHoZB9uHWZJ9SC3FHPuhI2Mj7b89mJiHd9ZOpVPAE9DwfJ52pMCCiiggAL1KmClYL1eec9bAQUUUKCmBAgJYubEDAXLf3nxjYCL5Z/+9Kd8my2VchEKsj4q9xgBYRpv5t1qq63ybcS8AIRqO9bzHD+eNdi5c+ccCnL7MLcks51wj/lvf/tbDgYJ/Oibl4H07t07B3tdu3bNbxGm2o/+COueeuqpfNswlYvc6svLSGI8hHiEglQEUuFHe7ZToUgwyTNl/ud//idXH3Isjkm/VPsRErKO7/THMako5HmJnDv98pZk3lzMsxIJIxk/bWPf8l+R+u3RULB+r71nroACCiigQDkFokqQpZWC5ZS1LwUUUEABBVpRIAJBlkwR4PDZ24fLcyEiFMSWmVDwtNNOW2SlYFwPQjSe/cfbe3nGH28D5hl9TG+88Ua6+OKLcyBHsLjzzjvngI425557bq4wHDZsWEOoxjEJ4371q1/lW5EJE//whz/kakGOR4DIiz2oItx6661zGBkhHsfjzcJUF/JiEJ45SH9//etf07e//e28bosttsgvD6G6Mc4xgkGCPT5zHPqkIpBQkH4Y+8Ybb5zfaMxbkXl2IufA7dRUFzLTn1P5BLgOVgqWz9OeFFBAAQUUqFcBQ8F6vfKetwIKKKBATQlECMWSiRCG8IbJUDAzlOV/8KX6DV9eqHHiiSfmUJDKPJ7lh3kEcXEtuM2YW3mp0KM9YSLbeKYglXm8aIRqO5abb755fq7LhhtumLp3754rCQnpOCb9st+gQYPS1772tfzWYqoGqS4ksBs3bly+nZnblAkVqdyL8XDyPN+QtwgzVioFOQdCwSOPPDJXHvK2ZN5w/O677+bjRZUf+8a50B/HonqQF41w+zChIMfcZJNNUrdu3fLMm5iPO+64HAjGvmW5AHaSBTA1FPTHoIACCiiggAJLK2AouLSC7q+AAgoooEAFCBASxMxwDAXLf1HwpUIuKubGjBmTKwUJxT7zmc+kK6+8sqEqjmfuEaAxPfbYY+nQQw/NLxuhspCQkMCNSsFLLrkkv2iEUPCQQw5JDzzwQHr00UcTLwgZMGBAQ4DIseM2XJ5F+NOf/jSHcQSNPGeQ7XfeeWd+liDj+b//+7/8PEPGy8T2G2+8MVcKMlaeO8hvhMDxmGOOyYHl5z//+TxWnlNI6FecaEsfLCMUpL94piAh4/Dhw/NbjO+9995EhWOEnxFmFvvz89IJcC0MBZfO0L0VUEABBRRQIDW8ZIT/h7S3D/uLUEABBRRQoEoFCAli5hQMBZfNhYxKOXwJvXjRCCFcVAoWw7MZM2bkcI1n+XGrL7cP8wxBQj2uVeNKwZNPPjnfAvz+++/nt/gS+nDrLcckpIu+qeTjLcSrrbZavlWY/nmWX9++ffNtwOuss04aPHhwvtWY/eL23f79+6eePXvmscbtw7wJmVCQ8fPGYp5/SCjIsQgU2c5UPH6Mh9uHCQUJJnnRCONmzLx1mbCR7/GbNBgs7+8RV0PB8pramwIKKKCAAvUoYKVgPV51z1kBBRRQoOYEInxhyUSoQxDD5O3DmWGp/wdbquTCltuHCfLat2/fEApG+EWIRmXfm2++mav6eOMvIR6hG6EeffFCjnPOOSc/U5BQjrcP0zfHYKIvvkewxz5UGFKFSCUhzyDk+YFnnnlmvqWYZ/nxBmHeTvz888/nfWN/9h04cGAOBQkx4/ZhjnXhhRfmW3/Z9+tf/3q+LZqXkHDcqDSMcfE9nhN4yy235IpDzm3ffffNx2M7+zEzVo5bnJf6IthBFsDUUNAfgwIKKKCAAgosrQAVggSDVgouraT7K6CAAgoo0IYCjYMXQhxDwfJeEIwj9MKWZ/mdeuqpOZjj5R1U6kVoSCD41ltv5Rd3fPWrX81vHuaWXcI6AjeuD6EggRxVhOzPyzlYH2Eax6A/Ajb24dgsWcfzAk855ZR8bKr/+Pyd73wn/wcd4+DYtKMv+mQikIxnClLhF7c4c8vyN77xjRxs8mzAm266KVcxcjzGwEzV39ixY/MbhXnZCfveeuutaaeddsrPI9xvv/1yuwgTOTb7MbHEzql8AoaC5bO0JwUUUEABBepZwErBer76nrsCCiigQM0IGAou+0uJMWEXlXIEdYRkVOlR5ccttLx5l+cFEvyNHj06v4iDwI4KPCrzfv3rX+fbaumHsG7y5Mn55SSdOnXK+x9//PHpueeeS0899VS+NZlnFhIcchsywRrLCOp40zDPEFxrrbXyvrygpEePHrnijxeORDUf4R1jZeJNxV/60pfyeLfddtv0zjvv5G0TJ07MbwzmRSecxxFHHJHbjho1Kp8L59OvX79cycjLSjAgGOT2Yc6rXbt2uQKRykmCUmY+E1xyKzHnajBY3t+noWB5Pe1NAQUUUECBehWwUrBer7znrYACCihQUwKGgq17OQnGeKYgt/zG7cPcysstwgRrzKusskquouNNvGeccUautps+fXoOyRgtYRyhYseOHfOLStifvtiXz2uuuWa+Ffjuu+9uODlCPmZCOQJInh/IS0oIJrmNlzcWT5s2LVfmEcQxTmYmKgV333333Ha77bbLFYRUNBIgcos5oSRjYdxULsY5xJjo/4QTTsj9cx48y5DqR47NzH4EhCzZl2NQdchYo4Kw4UT8sFQChoJLxefOCiiggAIKKPBPASsF/SkooIACCihQAwKGgq13EQnZuCWXUO/yyy/PYVwEcxHOcRvu0Ucfna644oo0dOjQXPFHOMa+VO6x5JlwBH5du3bNoRpBXASJEbTtvffeiReEUG1HlWDcDsz+U6ZMyceg0pDjE8Jdc801+VmGBIcEfsUKvTvuuCO/fZjjHXfccfmlJoyFNozlmWeeSddee21+aUiXLl1ywMfzBzmX/fffP1cTEh7GOXDbMSEjQSAhIG15szEz57L11lvnNx4zluI4Wu9K1e6RDAVr99p6ZgoooIACCrSmgJWCrantsRRQQAEFFFhGAoaCywi2UbeEW8wEY1TkcZvslVdemd8GzJK5T58+OVwjQOP2X97gG/twnfhMqEjIx4tIbrzxxrz/b3/72/Sb3/wmXX311bmP3/3udzk05G3FESSyD8emHyr8nnzyyXyrL28j5kUi3JJM+EggSLs4Fsejn7vuuivdfPPNacSIEXl/tjOxnf14I/KwYcPyGHje4S9/+cs8JoLNl156Kd/CTHv2Y+zcwsyxeY4h583YGTfnwjMHJ0yYkM+T/hmzU3kEsPRFI+WxtBcFFFBAAQXqWSBeMsJyuXqG8NwVUEABBRSoZgFCgpg5D0KYCHx8+3D5rmyEWywjdMM57GPJEeNZemyPtrFkHdv5Tl/MBH5R3UcIGFWBsZ2+o1qQz3F94zPfaUtYyDKOG8egHVO0i898ZxszbVkSZPLcQoInnmVYPBf6jnasZ6ysY2LJGCO8pO8INPnsVB4BrpGhYHks7UUBBRRQQIF6FrBSsJ6vvueugAIKKFAzAhHqsGSKUIjPhoLlu8wRbIU3PcfnsC8u+cy1iJCP0I/vsY71tCkGd3zmlluWHI+2cZxYso5ALr7TlpmJbdFntIl2Mbbc8J9taRPHiPWx5Pg8DzD24zvtYx3fOQdCwMZTjIG2tHMqnwC2hoLl87QnBRRQQAEF6lUgKgUJB60UrNdfgeetgAIKKFD1AoQEMXMyhDwRxBgKVv3l9QQUWEjAUHAhDr8ooIACCiigwBIKWCm4hHDupoACCiigQCUJRCDIkslQsJKujmNRoLwChoLl9bQ3BRRQQAEF6lWAUDBmKwXr9VfgeSuggAIKVL2AoWDVX0JPQIGSBQwFS6ayoQIKKKCAAgo0IWClYBM4blJAAQUUUKBaBAwFq+VKOU4Fll7AUHDpDe1BAQUUUEABBVJDlSDhoJWC/iIUUEABBRSoUgFDwSq9cA5bgSUQMBRcAjR3UUABBRRQQIFPCcStw4aCn6JxhQIKKKCAAtUjYChYPdfKkSqwtAKGgksr6P4KKKCAAgoogIChoL8DBRRQQAEFakDAULAGLqKnoECJAoaCJULZTAEFFFBAAQWaFIhQsFu3bt4+3KSUGxVQQAEFFKhgAUPBCr44Dk2BMgsYCpYZ1O4UUEABBRSoU4EIBb19uE5/AJ62AgoooEBtCBgK1sZ19CwUKEXAULAUJdsooIACCiigQHMCVAgSCFop2JyU2xVQQAEFFKhgAUPBCr44Dk2BMgsYCpYZ1O4UUEABBRSoU4EIBK0UrNMfgKetgAIKKFAbAoaCtXEdPQsFShEwFCxFyTYKKKCAAgoo0JyAlYLNCbldAQUUUECBKhAwFKyCi+QQFSiTgKFgmSDtRgEFFFBAgToXiEpBbx+u8x+Cp6+AAgooUN0ChoLVff0cvQItETAUbImWbRVQQAEFFFBgcQJWCi5OxvUKKKCAAgpUkYChYBVdLIeqwFIKGAouJaC7K6CAAgoooEAWIBSMeTlNFFBAAQUUUKA6BQwFq/O6OWoFlkTAUHBJ1NxHAQUUUEABBRoLWCnYWMTvCiiggAIKVKGAoWAVXjSHrMASChgKLiGcuymggAIKKKDAQgJRJcjSSsGFaPyigAIKKKBA9QgYClbPtXKkCiytgKHg0gq6vwIKKKCAAgogYCjo70ABBRRQQIEaEDAUrIGL6CkoUKKAoWCJUDZTQAEFFFBAgSYFDAWb5HGjAgoooIAC1SFgKFgd18lRKlAOAUPBcijahwIKKKCAAgpEKNi1a1dvH/bnoIACCiigQLUKGApW65Vz3Aq0XMBQsOVm7qGAAgoooIACnxaIUJClzxT8tI9rFFBAAQUUqAoBQ8GquEwOUoGyCBgKloXRThRQQAEFFKh7ASoECQStFKz7n4IACiiggALVLGAoWM1Xz7Er0DIBQ8GWedlaAQUUUEABBRYtYKXgol1cq4ACCiigQFUJGApW1eVysAoslYCh4FLxubMCCiiggAIK/FPASkF/CgoooIACCtSAgKFgDVxET0GBEgUMBUuEspkCCiiggAIKNClgpWCTPG5UQAEFFFCgOgQMBavjOjlKBcohYChYDkX7UEABBRRQQAErBf0NKKCAAgooUAMChoI1cBE9BQVKFDAULBHKZgoooIACCijQpEC8ZISlbx9uksqNCiiggAIKVK6AoWDlXhtHpkC5BQwFyy1qfwoooIACCtSngJWC9XndPWsFFFBAgRoTMBSssQvq6SjQhIChYBM4blJAAQUUUECBkgWiUpBw0ErBktlsqIACCiigQGUJGApW1vVwNAosSwFDwWWpa98KKKCAAgrUj4CVgvVzrT1TBRSz7AxpAAAIQklEQVRQQIEaFjAUrOGL66kp0EjAULARiF8VUEABBRRQYIkECAVjtlJwiQjdSQEFFFBAgbYXMBRs+2vgCBRoLQFDwdaS9jgKKKCAAgrUtoCVgrV9fT07BRRQQIE6ETAUrJML7WkqkFIyFPRnoIACCiiggALlEIgqQZZWCpZD1D4UUEABBRRoAwFDwTZA95AKtJGAoWAbwXtYBRRQQAEFakzAULDGLqino4ACCihQnwKGgvV53T3r+hQwFKzP6+5ZK6CAAgooUG4BQ8Fyi9qfAgoooIACbSBgKNgG6B5SgTYSMBRsI3gPq4ACCiigQI0JRCjYpUsXbx+usWvr6SiggAIK1JGAoWAdXWxPte4FDAXr/icggAIKKKCAAmURiFCQpc8ULAupnSiggAIKKND6AoaCrW/uERVoKwFDwbaS97gKKKCAAgrUlgAVggSCVgrW1nX1bBRQQAEF6kzAULDOLrinW9cChoJ1ffk9eQUUUEABBcomEIGglYJlI7UjBRRQQAEFWl/AULD1zT2iAm0lYCjYVvIeVwEFFFBAgdoSsFKwtq6nZ6OAAgooUKcCEQrG6S9YsCAxs37kyJGpXbt2aezYsbHZpQIKVKHA/Pnz8981Q//ggw/Spptumvr165f/zvlb/+STT6rwrByyAgoooIACCrSVQFQKevtwW10Bj6uAAgoooEAZBCIQYMlEOECAwEwo2KFDhzRmzJgcHpThcHahgAJtIDBnzpw0d+7c/Hf8/vvv51Cwf//++e89/ubbYFgeUgEFFFBAAQWqVMBKwSq9cA5bAQUUUECBxgKEAh9//HFDtRDfP/roozRixIj02c9+Nr3wwgsN29nmrIG/ger5DRD4R+jP3/mrr76atthii3T77bfnoJB1TgoooIACCiigQEsECAVj9u3DLZGzrQIKKKCAAhUkQLjD7cLFJQEC66gUXGedddK2226bdt555/TFL37RWQN/A1X2G9h1113TLrvskv+G+Ttm5j/iBw4cmCuCIzCsoH+WHIoCCiiggAIKVLiAlYIVfoEcngIKKKCAAqUIFJ8hGBVFse6tt95Kffr0SVdffXWe+eysgb+B6voNXHXVVQ1/w3379k3XXXdduuGGG9Jrr72Ww38eFUC1oOFgKf9i2kYBBRRQQAEFEIgqQZZWCvqbUEABBRRQoEoFihWChAMEAwQEzHznOWTcSsxnbxmtnltGvVZeq/jb5m83/n4J/OPved68eQ1/54aCVfoPuMNWQAEFFFCgjQQMBdsI3sMqoIACCihQToFicBAvIiBAIDBgyTRr1qwcHpTzuPalgAKtI8DfOH/PMc+cOTMH/B9++GHDy0do46SAAgoooIACCpQqYChYqpTtFFBAAQUUqGABgkDmpia2R0DYVDu3KaBA5QkQ/vH24cZ/w8XHBcyePdvbhyvv0jkiBRRQQAEFKlYgQsHOnTt7+3DFXiUHpoACCiigQDMCxUrBqA4kLCAInDp1aq4SJEzweWPNQLpZgQoV4G88Zm4TnjFjRv4ew+WWYkJD/8ZDxKUCCiiggAIKNCcQoSBLnynYnJbbFVBAAQUUqFABAgFCvwgHoyqQdQQFVBmxjSkqi1z+XYu/a1Atfwf8jUfgx98y4T/f+czzBfk7p42TAgoooIACCihQqgAVggSCVgqWKmY7BRRQQAEFKlCAMKAYCBAYxHeCg2KVYLWEII7TwM7fwL9+A/w949F4ioCwuccHNN7P7woooIACCiiggJWC/gYUUEABBRRQQAEFFFBAAQUUUEABBRSoMwErBevsgnu6CiiggAIKKKCAAgoooIACCiiggAIKWCnob0ABBRRQQAEFFFBAAQUUUEABBRRQQIE6E7BSsM4uuKergAIKKKCAAgoooIACCiiggAIKKKBAvGSEpW8f9veggAIKKKCAAgoooIACCiiggAIKKKBAHQhYKVgHF9lTVEABBRRQQAEFFFBAAQUUUEABBRRQoCgQlYKEg1YKFmX8rIACCiiggAIKKKCAAgoooIACCiigQI0KWClYoxfW01JAAQUUUEABBRRQQAEFFFBAAQUUUGBxAoSCMVspuDgl1yuggAIKKKCAAgoooIACCiiggAIKKFBDAlYK1tDF9FQUUEABBRRQQAEFFFBAAQUUUEABBRQoRSCqBFlaKViKmG0UUEABBRRQQAEFFFBAAQUUUEABBRSocgFDwSq/gA5fAQUUUEABBRRQQAEFFFBAAQUUUECBlgoYCrZUzPYKKKCAAgoooIACCiiggAIKKKCAAgpUuUCEghtssIG3D1f5tXT4CiiggAIKKKCAAgoooIACCiiggAIKlCQQoSBLnylYEpmNFFBAAQUUUEABBRRQQAEFFFBAAQUUqG4BKgQJBK0UrO7r6OgVUEABBRRQQAEFFFBAAQUUUEABBRQoWSACQSsFSyazoQIKKKCAAgoooIACCiiggAIKKKCAAtUtsFClIF+KK/yuh7+Hf5XS+vfg34N/D/49xP8nzX8P/PfAfw/898B/D/5xq5H/Hvrvof8e+u+h/x7672H83wL/Pajufw+WK17A+MN2+Y8/cB108O/jX//A+ffg34N/D/49+O+A/w7474D/DvjvgP8O+O+A/w7474D/DvjvQO38O5BDQS6oswb+BvwN+BvwN+BvwN+AvwF/A/4G/A34G/A34G/A34C/AX8D/gbq4zdgpWDhrSv+fzz8/3jwD5+/A38H/g78O/DfAf8d8N8B/x3w3wH/HfDfAf8d8N8B/x3w3wH/Haj1fwesFLRK0ipRfwP+BvwN+BvwN+BvwN+AvwF/A/4G/A34G/A34G/A34C/gTr7Dfw/J0Jl2Fx7cvMAAAAASUVORK5CYII=;" vertex="1" parent="1">
          <mxGeometry x="40" y="652" width="1285" height="448" as="geometry" />
        </mxCell>
        <mxCell id="JggLTyKNFOGJQd1DEr2l-17" style="edgeStyle=orthogonalEdgeStyle;rounded=0;orthogonalLoop=1;jettySize=auto;html=1;entryX=0.5;entryY=0;entryDx=0;entryDy=0;" edge="1" parent="1" source="JggLTyKNFOGJQd1DEr2l-6" target="JggLTyKNFOGJQd1DEr2l-7">
          <mxGeometry relative="1" as="geometry" />
        </mxCell>
        <mxCell id="JggLTyKNFOGJQd1DEr2l-6" value="2. Processes a security question" style="whiteSpace=wrap;html=1;aspect=fixed;fillColor=#f5f5f5;strokeColor=#666666;fontColor=#333333;" vertex="1" parent="1">
          <mxGeometry x="220" y="150" width="80" height="80" as="geometry" />
        </mxCell>
        <mxCell id="JggLTyKNFOGJQd1DEr2l-18" style="edgeStyle=orthogonalEdgeStyle;rounded=0;orthogonalLoop=1;jettySize=auto;html=1;exitX=0.5;exitY=1;exitDx=0;exitDy=0;entryX=0.5;entryY=0;entryDx=0;entryDy=0;" edge="1" parent="1" source="JggLTyKNFOGJQd1DEr2l-7" target="JggLTyKNFOGJQd1DEr2l-8">
          <mxGeometry relative="1" as="geometry" />
        </mxCell>
        <mxCell id="JggLTyKNFOGJQd1DEr2l-22" style="edgeStyle=orthogonalEdgeStyle;rounded=0;orthogonalLoop=1;jettySize=auto;html=1;entryX=0;entryY=0.5;entryDx=0;entryDy=0;" edge="1" parent="1" target="JggLTyKNFOGJQd1DEr2l-10">
          <mxGeometry relative="1" as="geometry">
            <mxPoint x="300" y="300" as="sourcePoint" />
          </mxGeometry>
        </mxCell>
        <mxCell id="JggLTyKNFOGJQd1DEr2l-23" style="edgeStyle=orthogonalEdgeStyle;rounded=0;orthogonalLoop=1;jettySize=auto;html=1;exitX=1;exitY=0.5;exitDx=0;exitDy=0;entryX=0;entryY=0.5;entryDx=0;entryDy=0;" edge="1" parent="1" source="JggLTyKNFOGJQd1DEr2l-7" target="JggLTyKNFOGJQd1DEr2l-11">
          <mxGeometry relative="1" as="geometry" />
        </mxCell>
        <mxCell id="JggLTyKNFOGJQd1DEr2l-24" style="edgeStyle=orthogonalEdgeStyle;rounded=0;orthogonalLoop=1;jettySize=auto;html=1;exitX=1;exitY=0.5;exitDx=0;exitDy=0;entryX=0;entryY=0.5;entryDx=0;entryDy=0;" edge="1" parent="1" source="JggLTyKNFOGJQd1DEr2l-7" target="JggLTyKNFOGJQd1DEr2l-13">
          <mxGeometry relative="1" as="geometry" />
        </mxCell>
        <mxCell id="JggLTyKNFOGJQd1DEr2l-7" value="3. Processes general comands" style="whiteSpace=wrap;html=1;aspect=fixed;fillColor=#f5f5f5;strokeColor=#666666;fontColor=#333333;" vertex="1" parent="1">
          <mxGeometry x="220" y="260" width="80" height="80" as="geometry" />
        </mxCell>
        <mxCell id="JggLTyKNFOGJQd1DEr2l-20" style="edgeStyle=orthogonalEdgeStyle;rounded=0;orthogonalLoop=1;jettySize=auto;html=1;entryX=0;entryY=0.5;entryDx=0;entryDy=0;" edge="1" parent="1" source="JggLTyKNFOGJQd1DEr2l-8" target="JggLTyKNFOGJQd1DEr2l-14">
          <mxGeometry relative="1" as="geometry" />
        </mxCell>
        <mxCell id="JggLTyKNFOGJQd1DEr2l-8" value="4. Connects Computer Network" style="whiteSpace=wrap;html=1;aspect=fixed;fillColor=#f5f5f5;strokeColor=#666666;fontColor=#333333;" vertex="1" parent="1">
          <mxGeometry x="220" y="390" width="80" height="80" as="geometry" />
        </mxCell>
        <mxCell id="JggLTyKNFOGJQd1DEr2l-26" style="edgeStyle=orthogonalEdgeStyle;rounded=0;orthogonalLoop=1;jettySize=auto;html=1;exitX=1;exitY=0.5;exitDx=0;exitDy=0;entryX=0;entryY=0.5;entryDx=0;entryDy=0;" edge="1" parent="1" source="JggLTyKNFOGJQd1DEr2l-10" target="JggLTyKNFOGJQd1DEr2l-25">
          <mxGeometry relative="1" as="geometry" />
        </mxCell>
        <mxCell id="JggLTyKNFOGJQd1DEr2l-10" value="5. Creates Output" style="whiteSpace=wrap;html=1;aspect=fixed;fillColor=#f5f5f5;strokeColor=#666666;fontColor=#333333;" vertex="1" parent="1">
          <mxGeometry x="370" y="40" width="80" height="80" as="geometry" />
        </mxCell>
        <mxCell id="JggLTyKNFOGJQd1DEr2l-27" style="edgeStyle=orthogonalEdgeStyle;rounded=0;orthogonalLoop=1;jettySize=auto;html=1;exitX=1;exitY=0.5;exitDx=0;exitDy=0;" edge="1" parent="1" source="JggLTyKNFOGJQd1DEr2l-11">
          <mxGeometry relative="1" as="geometry">
            <mxPoint x="520" y="190" as="targetPoint" />
          </mxGeometry>
        </mxCell>
        <mxCell id="JggLTyKNFOGJQd1DEr2l-11" value="6. Stores information, and created information&amp;nbsp;" style="whiteSpace=wrap;html=1;aspect=fixed;fillColor=#f5f5f5;strokeColor=#666666;fontColor=#333333;" vertex="1" parent="1">
          <mxGeometry x="370" y="150" width="80" height="80" as="geometry" />
        </mxCell>
        <mxCell id="JggLTyKNFOGJQd1DEr2l-12" value="9. Disempates Heat from the electrical circuits" style="whiteSpace=wrap;html=1;aspect=fixed;fillColor=#f5f5f5;strokeColor=#666666;fontColor=#333333;" vertex="1" parent="1">
          <mxGeometry x="520" y="260" width="80" height="80" as="geometry" />
        </mxCell>
        <mxCell id="JggLTyKNFOGJQd1DEr2l-28" style="edgeStyle=orthogonalEdgeStyle;rounded=0;orthogonalLoop=1;jettySize=auto;html=1;exitX=1;exitY=0.5;exitDx=0;exitDy=0;entryX=0;entryY=0.5;entryDx=0;entryDy=0;" edge="1" parent="1" source="JggLTyKNFOGJQd1DEr2l-13" target="JggLTyKNFOGJQd1DEr2l-25">
          <mxGeometry relative="1" as="geometry" />
        </mxCell>
        <mxCell id="JggLTyKNFOGJQd1DEr2l-13" value="7. Retrieves stored information&amp;nbsp;" style="whiteSpace=wrap;html=1;aspect=fixed;fillColor=#f5f5f5;strokeColor=#666666;fontColor=#333333;" vertex="1" parent="1">
          <mxGeometry x="370" y="260" width="80" height="80" as="geometry" />
        </mxCell>
        <mxCell id="JggLTyKNFOGJQd1DEr2l-21" style="edgeStyle=orthogonalEdgeStyle;rounded=0;orthogonalLoop=1;jettySize=auto;html=1;entryX=0;entryY=0.5;entryDx=0;entryDy=0;" edge="1" parent="1" source="JggLTyKNFOGJQd1DEr2l-14" target="JggLTyKNFOGJQd1DEr2l-15">
          <mxGeometry relative="1" as="geometry" />
        </mxCell>
        <mxCell id="JggLTyKNFOGJQd1DEr2l-14" value="8. Places information on Commuter Netork&amp;nbsp;" style="whiteSpace=wrap;html=1;aspect=fixed;fillColor=#f5f5f5;strokeColor=#666666;fontColor=#333333;" vertex="1" parent="1">
          <mxGeometry x="370" y="390" width="80" height="80" as="geometry" />
        </mxCell>
        <mxCell id="JggLTyKNFOGJQd1DEr2l-15" value="10. Shares information with other computers on the network&amp;nbsp;" style="whiteSpace=wrap;html=1;aspect=fixed;fillColor=#f5f5f5;strokeColor=#666666;fontColor=#333333;" vertex="1" parent="1">
          <mxGeometry x="520" y="390" width="80" height="80" as="geometry" />
        </mxCell>
        <mxCell id="JggLTyKNFOGJQd1DEr2l-25" value="Displays output" style="whiteSpace=wrap;html=1;aspect=fixed;" vertex="1" parent="1">
          <mxGeometry x="548" y="150" width="80" height="80" as="geometry" />
        </mxCell>
        <mxCell id="JggLTyKNFOGJQd1DEr2l-31" value="Electrictity" style="edgeStyle=orthogonalEdgeStyle;rounded=0;orthogonalLoop=1;jettySize=auto;html=1;exitX=1;exitY=0.5;exitDx=0;exitDy=0;" edge="1" parent="1" source="JggLTyKNFOGJQd1DEr2l-29">
          <mxGeometry relative="1" as="geometry">
            <mxPoint x="370" y="550" as="targetPoint" />
          </mxGeometry>
        </mxCell>
        <mxCell id="JggLTyKNFOGJQd1DEr2l-29" value="11.Distributes electricity" style="whiteSpace=wrap;html=1;aspect=fixed;fillColor=#f5f5f5;strokeColor=#666666;fontColor=#333333;" vertex="1" parent="1">
          <mxGeometry x="220" y="510" width="80" height="80" as="geometry" />
        </mxCell>
        <mxCell id="JggLTyKNFOGJQd1DEr2l-32" value="F1&lt;br&gt;F2&lt;br&gt;F3&lt;br&gt;F5&lt;br&gt;F6&lt;br&gt;F7&lt;br&gt;F9" style="whiteSpace=wrap;html=1;aspect=fixed;fillColor=#f5f5f5;strokeColor=#666666;fontColor=#333333;" vertex="1" parent="1">
          <mxGeometry x="380" y="510" width="110" height="110" as="geometry" />
        </mxCell>
        <mxCell id="JggLTyKNFOGJQd1DEr2l-33" value="" style="endArrow=none;dashed=1;html=1;exitX=0;exitY=1;exitDx=0;exitDy=0;entryX=0;entryY=0.75;entryDx=0;entryDy=0;" edge="1" parent="1" source="JggLTyKNFOGJQd1DEr2l-1" target="JggLTyKNFOGJQd1DEr2l-10">
          <mxGeometry width="50" height="50" relative="1" as="geometry">
            <mxPoint x="430" y="370" as="sourcePoint" />
            <mxPoint x="480" y="320" as="targetPoint" />
            <Array as="points">
              <mxPoint x="310" y="130" />
            </Array>
          </mxGeometry>
        </mxCell>
        <mxCell id="JggLTyKNFOGJQd1DEr2l-34" value="On/Off" style="endArrow=none;dashed=1;html=1;exitX=1;exitY=0.75;exitDx=0;exitDy=0;entryX=0;entryY=0.75;entryDx=0;entryDy=0;" edge="1" parent="1" source="JggLTyKNFOGJQd1DEr2l-1" target="JggLTyKNFOGJQd1DEr2l-4">
          <mxGeometry width="50" height="50" relative="1" as="geometry">
            <mxPoint x="430" y="370" as="sourcePoint" />
            <mxPoint x="480" y="320" as="targetPoint" />
          </mxGeometry>
        </mxCell>
        <mxCell id="JggLTyKNFOGJQd1DEr2l-35" value="" style="endArrow=none;dashed=1;html=1;exitX=0.5;exitY=1;exitDx=0;exitDy=0;entryX=0;entryY=0.5;entryDx=0;entryDy=0;" edge="1" parent="1" source="JggLTyKNFOGJQd1DEr2l-1" target="JggLTyKNFOGJQd1DEr2l-6">
          <mxGeometry width="50" height="50" relative="1" as="geometry">
            <mxPoint x="430" y="370" as="sourcePoint" />
            <mxPoint x="480" y="320" as="targetPoint" />
          </mxGeometry>
        </mxCell>
        <mxCell id="JggLTyKNFOGJQd1DEr2l-36" value="" style="endArrow=none;dashed=1;html=1;exitX=0.25;exitY=1;exitDx=0;exitDy=0;entryX=0;entryY=0.5;entryDx=0;entryDy=0;" edge="1" parent="1" source="JggLTyKNFOGJQd1DEr2l-1" target="JggLTyKNFOGJQd1DEr2l-7">
          <mxGeometry width="50" height="50" relative="1" as="geometry">
            <mxPoint x="430" y="370" as="sourcePoint" />
            <mxPoint x="480" y="320" as="targetPoint" />
          </mxGeometry>
        </mxCell>
        <mxCell id="JggLTyKNFOGJQd1DEr2l-37" value="" style="endArrow=none;dashed=1;html=1;entryX=0;entryY=1;entryDx=0;entryDy=0;" edge="1" parent="1" target="JggLTyKNFOGJQd1DEr2l-11">
          <mxGeometry width="50" height="50" relative="1" as="geometry">
            <mxPoint x="110" y="120" as="sourcePoint" />
            <mxPoint x="480" y="320" as="targetPoint" />
            <Array as="points">
              <mxPoint x="210" y="240" />
              <mxPoint x="320" y="240" />
            </Array>
          </mxGeometry>
        </mxCell>
        <mxCell id="JggLTyKNFOGJQd1DEr2l-38" value="" style="endArrow=none;dashed=1;html=1;entryX=0;entryY=1;entryDx=0;entryDy=0;" edge="1" parent="1" target="JggLTyKNFOGJQd1DEr2l-13">
          <mxGeometry width="50" height="50" relative="1" as="geometry">
            <mxPoint x="90" y="120" as="sourcePoint" />
            <mxPoint x="480" y="320" as="targetPoint" />
            <Array as="points">
              <mxPoint x="220" y="360" />
              <mxPoint x="350" y="360" />
            </Array>
          </mxGeometry>
        </mxCell>
        <mxCell id="JggLTyKNFOGJQd1DEr2l-39" value="" style="endArrow=none;dashed=1;html=1;entryX=0;entryY=0.75;entryDx=0;entryDy=0;" edge="1" parent="1" target="JggLTyKNFOGJQd1DEr2l-12">
          <mxGeometry width="50" height="50" relative="1" as="geometry">
            <mxPoint x="90" y="120" as="sourcePoint" />
            <mxPoint x="480" y="320" as="targetPoint" />
            <Array as="points">
              <mxPoint x="210" y="380" />
              <mxPoint x="370" y="380" />
            </Array>
          </mxGeometry>
        </mxCell>
      </root>
    </mxGraphModel>
  </diagram>
</mxfile>
